<?xml version="1.0" standalone="no"?>
<!DOCTYPE svg PUBLIC "-//W3C//DTD SVG 20010904//EN"
 "http://www.w3.org/TR/2001/REC-SVG-20010904/DTD/svg10.dtd">
<svg version="1.0" xmlns="http://www.w3.org/2000/svg"
 width="960.000000pt" height="1088.000000pt" viewBox="0 0 960.000000 1088.000000"
 preserveAspectRatio="xMidYMid meet">

<g transform="translate(0.000000,1088.000000) scale(0.100000,-0.100000)"
fill="#000000" stroke="none">
<path d="M4560 10394 c-233 -26 -309 -43 -358 -80 -60 -46 -79 -88 -92 -204
-20 -187 -14 -505 11 -536 6 -8 1 -17 -15 -28 -79 -51 -43 -125 72 -150 28 -7
32 -12 32 -39 -1 -69 -35 -114 -273 -355 -128 -130 -272 -286 -320 -347 -174
-218 -299 -426 -373 -620 -32 -86 -38 -112 -38 -185 -1 -69 3 -93 21 -126 l22
-41 7 -1244 6 -1244 -26 -77 c-31 -90 -34 -186 -10 -268 9 -30 53 -133 99
-229 133 -282 181 -442 192 -636 10 -187 -20 -346 -132 -705 -97 -308 -160
-568 -206 -855 -22 -131 -17 -433 10 -605 59 -381 150 -637 297 -834 77 -101
141 -156 239 -202 159 -75 343 -68 550 22 l80 34 14 -22 c38 -59 139 -146 196
-168 89 -35 287 -41 382 -11 82 25 149 73 205 146 l42 54 36 -16 c172 -76 347
-106 471 -80 147 30 248 95 353 228 153 193 244 445 313 864 27 170 25 499 -5
665 -55 301 -106 501 -221 869 -66 212 -91 344 -98 507 -11 254 30 410 202
773 112 237 123 314 69 473 l-23 69 5 1242 5 1242 22 45 c36 75 35 167 -3 281
-63 190 -186 401 -370 636 -47 59 -194 219 -328 355 -147 149 -248 260 -257
282 -8 19 -15 53 -15 75 0 38 2 40 38 47 108 20 144 99 67 150 -20 13 -23 19
-14 30 7 9 9 32 5 64 -5 34 -2 58 7 77 25 49 -1 462 -32 521 -20 38 -100 101
-143 113 -102 28 -225 40 -448 43 -129 2 -251 2 -270 0z m436 -64 c71 -6 169
-20 219 -31 160 -35 178 -74 177 -389 -1 -264 -3 -290 -22 -290 -9 0 -20 4
-25 9 -16 15 -199 40 -365 51 -233 16 -588 -6 -744 -45 -32 -9 -60 -14 -61
-13 -2 2 -5 33 -7 70 -5 78 -14 71 117 93 320 53 851 43 1083 -21 13 -4 22 -2
22 4 0 6 -24 18 -52 27 -233 69 -893 66 -1123 -6 -32 -10 -60 -17 -60 -16 -4
8 16 316 24 370 12 84 30 113 84 137 40 17 199 46 297 53 105 8 316 6 436 -3z
m158 -732 c119 -10 119 -10 198 -61 66 -41 77 -52 66 -63 -7 -7 -29 -15 -48
-16 -29 -3 -35 0 -35 16 0 16 -14 23 -70 37 -234 59 -810 56 -995 -6 -41 -13
-22 -14 237 -9 155 3 399 2 542 -2 l260 -7 -14 -21 c-10 -14 -15 -47 -15 -105
0 -108 15 -141 122 -261 l80 -91 -88 8 c-121 11 -1173 8 -1256 -4 -38 -5 -68
-8 -68 -5 0 2 39 47 86 100 47 53 93 110 101 127 20 37 29 170 14 208 -10 26
-51 40 -51 17 0 -5 -7 -10 -15 -10 -24 0 -65 22 -65 35 0 25 134 95 201 106
163 27 554 31 813 7z m192 -641 c4 -4 1 -13 -6 -22 -10 -13 -8 -17 17 -27 35
-15 100 -90 248 -286 134 -180 233 -337 280 -450 38 -92 39 -95 29 -155 -5
-28 -2 -43 10 -56 9 -10 16 -24 14 -32 -2 -7 8 -16 22 -20 74 -23 177 -57 193
-64 15 -6 17 0 17 58 0 94 -30 178 -111 313 -150 249 -267 409 -453 619 -80
91 -102 121 -88 124 34 7 333 -325 475 -527 137 -196 267 -477 267 -578 0 -46
-15 -103 -32 -127 -12 -15 -18 -15 -73 -3 -93 22 -294 44 -597 66 -222 16
-374 20 -775 20 -320 1 -493 4 -483 10 11 7 12 10 2 10 -7 0 -21 7 -29 16 -10
10 -25 13 -41 9 -19 -5 -23 -3 -19 9 5 11 0 16 -13 16 -21 0 -27 -15 -9 -25 6
-5 4 -12 -8 -22 -10 -8 -12 -12 -5 -8 6 3 12 2 12 -3 0 -16 -80 -31 -195 -36
-60 -3 -146 -9 -190 -12 l-81 -7 -26 35 -27 35 192 21 c106 12 282 28 392 37
109 9 201 18 203 20 2 2 -27 7 -64 11 -142 15 -726 -38 -901 -83 -13 -3 -23
-1 -23 6 0 6 38 22 85 37 l85 26 0 43 c0 47 30 146 67 218 25 51 182 290 253
387 22 30 52 73 66 95 15 22 39 54 55 70 15 17 55 68 89 115 58 82 59 85 38
92 -13 3 -36 6 -52 7 -60 2 -11 16 77 22 118 8 1105 5 1113 -4z m-1391 -136
c-274 -301 -494 -631 -550 -824 -23 -78 -27 -193 -9 -236 8 -19 13 -35 12 -36
-2 -1 -20 -5 -41 -9 -36 -7 -38 -5 -52 28 -40 96 -19 201 79 401 114 230 241
407 478 663 129 138 145 152 175 152 l34 0 -126 -139z m-360 -770 c-7 -32 -19
-39 -30 -21 -7 12 23 65 32 57 3 -3 2 -19 -2 -36z m2346 -64 c-8 -8 -11 -4
-11 14 0 33 14 47 18 19 2 -12 -1 -27 -7 -33z m-431 -271 c256 -16 626 -45
678 -52 l32 -5 -1 -857 c-1 -471 -4 -1022 -6 -1224 l-5 -368 -42 0 c-23 0 -95
-7 -161 -15 -544 -65 -1773 -68 -2458 -5 -109 10 -200 20 -203 22 -9 10 -9
2448 1 2448 6 0 98 9 205 20 107 10 335 26 505 35 171 8 342 17 380 19 151 8
853 -4 1075 -18z m-2137 -2600 c-4 -17 -8 -78 -7 -136 0 -94 4 -116 36 -210
l37 -105 -43 45 c-86 91 -118 250 -76 379 19 59 25 68 42 63 17 -4 19 -9 11
-36z m2871 -156 l1 -105 -89 -195 c-97 -215 -125 -288 -161 -431 -73 -285 -54
-537 70 -939 182 -592 250 -969 225 -1245 -20 -223 -70 -485 -126 -651 -27
-84 -112 -253 -158 -318 -124 -174 -287 -258 -461 -240 -54 6 -215 50 -215 59
0 2 42 1 93 -2 146 -9 184 0 235 54 23 25 42 40 42 33 0 -22 -40 -79 -60 -85
-27 -9 -25 -25 3 -25 33 0 84 35 104 72 14 26 18 55 17 138 -1 91 -6 125 -42
251 -42 153 -64 205 -107 252 -24 27 -27 28 -49 13 -56 -36 -118 -131 -266
-402 -119 -218 -169 -294 -250 -375 -49 -49 -78 -70 -115 -82 -113 -36 -272
-30 -358 14 -89 46 -218 219 -357 479 -40 74 -97 172 -126 217 -75 112 -159
183 -159 132 0 -8 -14 -24 -31 -36 -46 -32 -83 -126 -106 -267 -27 -172 -27
-279 1 -333 24 -49 68 -75 126 -78 22 -1 74 -3 115 -4 61 -2 70 -4 50 -12 -42
-17 -142 -22 -205 -10 -273 51 -472 340 -574 837 -17 82 -39 224 -48 315 -15
144 -15 184 -5 293 l13 126 42 39 c23 22 43 38 45 36 2 -2 -4 -48 -13 -102
-32 -184 -21 -375 36 -631 16 -74 27 -138 23 -143 -17 -28 49 -223 111 -327
40 -66 122 -172 133 -172 5 0 15 33 22 73 6 39 25 113 41 163 l29 91 -29 79
c-34 92 -77 279 -87 378 l-7 68 44 -8 c24 -4 121 -19 214 -33 l170 -26 7 -75
c4 -41 10 -104 13 -139 4 -52 11 -75 39 -117 19 -29 90 -153 157 -276 194
-355 245 -425 343 -469 89 -39 261 -33 368 13 82 35 125 95 273 388 198 392
250 462 342 462 32 0 44 -7 75 -42 36 -40 129 -210 143 -260 28 -103 70 -220
78 -220 6 0 22 10 35 23 l24 22 -21 -43 c-48 -94 32 -14 101 103 61 102 143
324 125 341 -2 3 -15 -20 -27 -51 -27 -68 -35 -67 -14 0 19 62 44 199 44 243
0 18 6 43 14 55 29 47 50 206 50 377 1 153 -1 173 -28 265 -16 55 -32 125 -35
155 -4 31 -11 54 -17 53 -12 -2 -31 59 -113 352 -60 213 -75 277 -96 410 -54
336 -50 489 22 810 18 82 69 214 87 229 8 6 17 25 20 41 4 17 37 100 74 185
59 137 66 162 67 220 0 53 -6 77 -31 128 l-31 62 26 6 c14 3 31 7 36 8 6 2 19
-18 29 -43 15 -35 20 -71 20 -151z m-2221 124 c136 -7 129 -4 110 -51 -4 -10
40 -13 198 -14 112 0 215 -2 229 -3 60 -8 892 -15 960 -8 67 6 75 9 72 27 -2
19 -2 19 11 3 19 -24 31 -23 24 2 -3 11 -1 18 4 14 5 -3 9 0 9 5 0 6 -12 12
-27 12 -21 1 -18 3 12 8 45 7 56 4 35 -9 -8 -6 -11 -10 -6 -10 5 0 3 -7 -4
-15 -7 -8 -9 -15 -5 -15 4 0 13 7 20 16 10 14 15 14 34 4 19 -10 25 -9 36 7 9
12 10 20 3 25 -6 3 14 9 45 13 l56 7 50 -53 c27 -30 48 -55 46 -57 -1 -1 -74
-10 -161 -18 -146 -14 -159 -14 -170 1 -10 13 -23 15 -61 10 -96 -12 -113 -16
-108 -25 25 -40 -645 -62 -1070 -36 -449 28 -904 75 -928 96 -5 4 -3 18 3 30
12 22 15 22 94 15 131 -14 171 -12 171 5 0 8 5 15 12 15 6 0 15 4 20 8 4 5 42
6 83 3 41 -3 133 -9 203 -12z m1694 0 c-3 -3 -12 -4 -19 -1 -8 3 -5 6 6 6 11
1 17 -2 13 -5z m-1909 -149 c81 -8 175 -17 209 -20 l61 -6 7 -62 c8 -62 42
-188 65 -239 7 -15 18 -24 26 -21 8 3 15 -5 19 -24 20 -93 30 -125 42 -135 8
-6 17 -8 20 -4 4 4 1 11 -7 16 -11 7 -3 20 38 60 l52 51 29 -22 c25 -18 32
-19 52 -8 43 22 52 58 22 91 -21 24 -52 23 -79 -3 -21 -19 -22 -20 -19 -3 2
11 4 22 4 25 1 4 20 16 44 27 23 11 51 28 62 39 11 10 34 19 50 19 53 3 56 4
51 13 -4 5 2 7 12 4 11 -2 26 3 36 12 9 9 16 11 16 5 0 -8 23 -10 70 -8 39 1
70 6 70 11 0 5 72 7 160 5 88 -2 160 -6 160 -10 0 -5 6 -8 13 -8 7 0 21 -10
31 -21 17 -20 17 -23 2 -31 -11 -6 -15 -18 -11 -38 5 -26 0 -31 -73 -73 -238
-138 -446 -345 -575 -572 -98 -174 -148 -342 -167 -565 -14 -158 -19 -190 -29
-190 -10 0 -9 -116 2 -126 4 -4 7 3 7 16 0 19 2 20 15 10 8 -7 15 -24 15 -39
0 -89 114 -431 136 -408 2 1 -12 52 -31 111 -57 179 -69 259 -69 461 0 203 13
291 70 465 96 297 283 538 564 725 119 79 241 139 251 123 10 -16 0 -38 -18
-38 -8 0 -12 -4 -9 -9 3 -5 21 -9 40 -8 26 1 46 -9 81 -37 28 -23 44 -44 41
-52 -3 -8 -1 -14 5 -14 6 0 7 -4 4 -10 -3 -5 -19 -10 -35 -10 -34 0 -50 -23
-50 -72 l1 -33 18 35 c10 19 17 40 14 46 -3 9 8 12 36 11 23 -1 41 -5 41 -10
0 -32 45 50 92 168 29 74 96 172 121 178 62 16 205 28 248 23 81 -11 80 -8 52
-94 -62 -197 -141 -535 -173 -742 -24 -154 -26 -393 -5 -535 13 -87 57 -264
165 -673 33 -126 53 -269 48 -351 -3 -53 -4 -54 -53 -82 -53 -29 -191 -73
-262 -82 -36 -4 -43 -2 -43 12 0 71 -166 630 -187 631 -6 0 -15 5 -19 12 -4 7
-3 8 4 4 8 -5 12 0 12 13 0 25 0 25 -36 6 -16 -8 -22 -15 -14 -15 13 0 13 -2
0 -9 -8 -6 -18 -7 -22 -5 -4 3 -9 -1 -10 -8 -1 -12 -4 -45 -7 -75 0 -7 -8 -13
-17 -13 -8 0 -12 -5 -8 -11 4 -8 -1 -9 -16 -4 -15 5 -20 4 -16 -4 4 -5 2 -18
-3 -28 -5 -10 -12 -25 -14 -34 -4 -11 -14 -15 -34 -12 -60 9 -87 -78 -28 -93
33 -8 54 1 65 28 l9 23 0 -24 c1 -29 -46 -94 -61 -85 -7 5 -8 2 -4 -5 5 -8 0
-14 -14 -18 -17 -4 -21 -11 -17 -30 3 -18 1 -23 -10 -19 -11 4 -13 1 -8 -14 4
-11 2 -20 -4 -20 -6 0 -8 -6 -5 -14 3 -8 1 -17 -5 -21 -6 -3 -11 1 -11 10 0 9
-4 14 -9 10 -6 -3 -8 -20 -6 -38 l4 -32 -18 24 c-19 25 -36 16 -24 -15 4 -12
3 -15 -5 -10 -7 4 -12 2 -12 -3 0 -53 -246 81 -412 223 -42 36 -79 66 -82 66
-48 0 168 -204 297 -281 31 -18 57 -37 57 -41 0 -10 -3 -10 -35 2 -20 8 -27 7
-31 -5 -4 -9 -11 -15 -18 -14 -23 3 -37 -1 -32 -9 2 -4 -13 -8 -35 -8 -21 0
-39 3 -39 8 0 5 6 6 13 2 8 -5 9 -4 2 4 -15 16 -50 19 -47 5 2 -15 0 -15 -22
-7 -8 3 -12 12 -9 20 3 9 -2 14 -14 14 -10 0 -24 9 -31 20 -8 13 -23 20 -43
20 -28 0 -30 2 -18 17 12 15 12 16 -3 10 -12 -4 -18 -2 -18 8 0 9 -6 12 -17 8
-11 -4 -14 -3 -9 5 4 7 4 17 0 23 -4 8 -9 7 -15 -2 -7 -11 -9 -10 -9 3 0 9 6
19 13 22 6 4 2 4 -11 2 -17 -3 -22 -1 -18 10 3 8 2 22 -1 32 -6 14 -8 13 -14
-8 l-7 -25 -7 23 c-6 18 -10 20 -21 11 -11 -9 -14 -8 -14 1 0 10 -3 10 -15 0
-13 -11 -14 -10 -9 4 5 12 2 15 -10 10 -14 -5 -15 -2 -8 17 5 13 7 42 6 64 -3
30 -2 35 5 20 6 -14 9 6 8 62 0 45 -4 80 -9 77 -9 -6 -10 -3 -13 49 -1 24 1
34 6 25 7 -10 9 -10 8 2 0 17 -17 59 -18 46 -1 -5 -8 -3 -16 4 -8 6 -19 9 -25
5 -5 -3 -10 -1 -10 6 0 7 -3 9 -6 6 -9 -9 -44 11 -44 25 0 6 8 17 18 25 9 8
11 11 3 7 -10 -5 -13 -3 -9 7 17 45 18 57 4 62 -19 8 -29 -23 -55 -173 -12
-68 -24 -127 -27 -130 -10 -9 -116 113 -171 197 -61 93 -109 194 -143 297 -22
67 -22 70 -6 165 8 53 15 130 15 172 0 42 4 94 9 115 14 53 17 125 12 271 -2
80 -1 84 44 169 57 106 120 202 180 272 25 30 46 56 46 59 0 2 -18 -10 -40
-27 -58 -46 -135 -135 -183 -212 -44 -71 -57 -81 -57 -47 0 28 -44 200 -74
284 -13 39 -51 129 -84 200 -79 173 -96 226 -88 282 6 44 12 63 22 63 2 0 71
-7 152 -15z m2156 -63 c-1 -41 -6 -78 -11 -83 -7 -7 -27 -6 -58 2 -32 8 -87
10 -167 6 -112 -7 -120 -6 -112 11 4 9 9 38 12 64 l4 47 51 5 c29 3 84 10 122
15 39 5 90 8 115 7 l45 -1 -1 -73z m-2484 -294 c57 -71 128 -255 144 -370 3
-24 11 -70 16 -103 18 -105 23 -296 11 -402 -13 -118 -73 -397 -130 -604 -22
-79 -63 -229 -90 -332 -50 -189 -66 -223 -129 -280 -20 -18 -20 -18 -5 60 41
225 110 488 207 789 152 474 135 777 -68 1243 -32 73 -34 82 -15 65 12 -10 39
-40 59 -66z m910 13 c0 -5 -3 -17 -6 -26 -5 -12 -9 -14 -14 -4 -5 7 -6 18 -3
26 6 15 23 18 23 4z m35 -21 c-6 -9 -9 -9 -16 1 -10 17 0 34 13 21 6 -6 7 -16
3 -22z m-126 -1362 l-1 -43 -8 35 c-8 32 -6 50 6 50 2 0 4 -19 3 -42z m-336
-331 c24 -31 71 -86 104 -120 53 -55 59 -65 48 -80 -7 -10 -16 -44 -20 -75 -4
-31 -15 -109 -26 -172 -12 -69 -22 -191 -26 -304 l-6 -188 -81 6 c-80 7 -264
31 -320 42 l-28 6 5 177 c5 192 15 252 87 523 51 190 109 398 116 418 3 9 24
-22 55 -80 27 -52 68 -121 92 -153z m1239 -271 c-4 -15 -7 -17 -10 -6 -3 8
-10 18 -16 22 -6 4 -1 6 10 6 16 -2 20 -7 16 -22z m-922 -54 c0 -5 -7 -17 -15
-28 -14 -19 -14 -19 -15 2 0 11 3 24 7 27 9 10 23 9 23 -1z m-160 -12 c0 -5
-4 -10 -10 -10 -5 0 -10 5 -10 10 0 6 5 10 10 10 6 0 10 -4 10 -10z m840 -286
c0 -2 -7 -4 -15 -4 -8 0 -15 4 -15 10 0 5 7 7 15 4 8 -4 15 -8 15 -10z m985
-180 l-7 -81 -160 -22 c-88 -12 -161 -21 -163 -19 -1 2 -6 44 -10 94 l-7 91
58 7 c70 8 194 49 248 81 l41 25 3 -48 c2 -26 1 -84 -3 -128z m-15 -126 c0
-41 -47 -239 -49 -208 -1 8 -10 26 -21 40 -19 25 -19 25 -34 5 -14 -19 -15
-19 -16 -2 0 13 -7 18 -22 17 -32 -3 -69 10 -62 21 3 5 -3 12 -13 16 -10 4
-22 11 -26 17 -5 6 -6 3 -2 -9 6 -19 5 -18 -14 2 -14 14 -27 20 -39 16 -15 -6
-15 -4 -4 9 11 14 10 17 -10 20 -13 2 22 12 77 22 55 10 127 24 160 31 79 17
75 17 75 3z m-240 -132 c0 -3 -4 -8 -10 -11 -5 -3 -10 -1 -10 4 0 6 5 11 10
11 6 0 10 -2 10 -4z m-846 -140 c-21 -15 -30 -14 -19 3 3 6 14 11 23 11 13 0
13 -2 -4 -14z"/>
<path d="M4725 10178 c-3 -51 -2 -138 3 -193 9 -97 9 -95 11 93 0 105 -1 192
-3 192 -2 0 -7 -42 -11 -92z"/>
<path d="M4874 10083 c1 -106 4 -193 9 -193 9 0 8 267 -2 335 -4 30 -7 -28 -7
-142z"/>
<path d="M4451 10191 c-12 -79 -15 -297 -3 -305 4 -2 6 43 4 100 -3 57 1 141
8 185 14 100 7 116 -9 20z"/>
<path d="M4584 10213 c-11 -68 -10 -311 2 -323 5 -5 9 62 9 181 0 104 -1 189
-2 189 -1 0 -5 -21 -9 -47z"/>
<path d="M4657 10158 c-9 -105 -1 -287 12 -271 3 4 4 91 1 193 l-5 185 -8
-107z"/>
<path d="M4800 10076 c0 -121 4 -185 10 -181 9 6 4 354 -6 364 -2 2 -4 -80 -4
-183z"/>
<path d="M4945 10074 c0 -106 3 -187 7 -180 10 14 9 266 -1 326 -4 26 -7 -36
-6 -146z"/>
<path d="M5008 10230 c4 -19 7 -106 7 -192 0 -91 4 -153 9 -148 13 13 2 331
-12 355 -10 17 -11 14 -4 -15z"/>
<path d="M5078 10215 c4 -27 7 -114 7 -192 0 -140 8 -173 20 -89 8 50 -10 272
-24 308 -7 16 -8 8 -3 -27z"/>
<path d="M4337 10233 c-29 -99 -43 -331 -22 -352 7 -7 9 24 7 92 -2 61 2 137
11 187 14 79 16 116 4 73z"/>
<path d="M4514 10183 c-11 -89 -9 -282 2 -293 5 -5 9 70 9 176 1 101 0 184 -1
184 -1 0 -6 -30 -10 -67z"/>
<path d="M5148 10185 c4 -38 7 -125 7 -192 0 -124 8 -151 20 -65 7 51 -9 249
-24 297 -7 21 -8 9 -3 -40z"/>
<path d="M5203 10220 c16 -70 29 -224 23 -290 -5 -59 -4 -72 6 -62 25 25 4
341 -24 367 -7 7 -9 3 -5 -15z"/>
<path d="M4266 10208 c-14 -51 -29 -256 -22 -300 12 -79 21 -54 17 44 -2 51 2
133 9 181 11 85 10 123 -4 75z"/>
<path d="M4387 10198 c-13 -69 -19 -274 -9 -298 7 -18 8 -2 5 60 -3 47 0 125
6 174 12 85 10 132 -2 64z"/>
<path d="M5276 10175 c5 -33 9 -121 9 -197 0 -108 3 -134 13 -126 17 15 16
161 -3 278 -9 52 -18 97 -22 100 -3 3 -2 -22 3 -55z"/>
<path d="M4205 10126 c-20 -109 -18 -257 3 -278 11 -11 12 -6 5 27 -11 55 -8
176 7 264 7 40 10 75 7 77 -3 3 -13 -37 -22 -90z"/>
<path d="M5323 10190 c23 -130 29 -195 24 -268 -4 -63 -2 -81 7 -72 16 16 11
188 -8 284 -15 77 -35 125 -23 56z"/>
<path d="M4685 9324 c-33 -2 -121 -11 -195 -20 -214 -27 -140 -37 275 -38 319
-1 428 5 413 19 -18 19 -366 45 -493 39z"/>
<path d="M4418 8918 c-10 -26 3 -35 43 -32 21 2 48 8 58 14 11 5 32 11 48 11
20 1 15 4 -17 10 -70 12 -127 11 -132 -3z"/>
<path d="M5035 8920 c-27 -4 -38 -8 -23 -8 15 -1 39 -7 55 -14 15 -6 33 -12
38 -13 33 -7 55 -19 55 -31 0 -8 12 -19 26 -25 15 -5 45 -24 67 -41 35 -28 39
-29 33 -10 -4 12 -24 51 -43 87 l-37 65 -60 -2 c-34 0 -83 -4 -111 -8z"/>
<path d="M4620 8840 c-11 -11 -20 -27 -20 -35 0 -22 37 -55 60 -55 25 0 60 34
60 58 0 25 -31 52 -58 52 -12 0 -31 -9 -42 -20z m64 -15 c20 -21 9 -45 -20
-45 -29 0 -41 24 -24 45 16 19 25 19 44 0z"/>
<path d="M4116 8651 c-3 -5 1 -14 10 -21 12 -10 17 -11 27 -1 9 10 8 11 -6 5
-13 -5 -16 -2 -11 10 6 17 -11 23 -20 7z"/>
<path d="M4782 8637 c-18 -22 11 -56 35 -41 25 15 23 48 -3 52 -11 2 -26 -3
-32 -11z m38 -12 c0 -8 -7 -15 -15 -15 -16 0 -20 12 -8 23 11 12 23 8 23 -8z"/>
<path d="M4892 8538 c-7 -7 -12 -25 -12 -40 0 -40 39 -58 75 -34 44 29 28 86
-25 86 -14 0 -31 -5 -38 -12z m65 -24 c7 -20 -22 -45 -43 -37 -14 5 -19 35 -7
46 12 13 44 7 50 -9z"/>
<path d="M4480 8525 c0 -20 28 -31 43 -16 8 8 8 14 -2 24 -11 10 -13 10 -7 0
4 -7 2 -13 -3 -13 -6 0 -11 5 -11 10 0 6 -4 10 -10 10 -5 0 -10 -7 -10 -15z"/>
<path d="M5427 8429 c4 -29 1 -40 -11 -45 -9 -3 -16 -14 -16 -24 0 -10 -9 -22
-21 -25 -11 -4 -25 -18 -30 -32 -5 -14 -12 -23 -16 -19 -6 6 -27 -24 -39 -56
-3 -9 -17 -19 -30 -22 -14 -4 -33 -15 -43 -25 -9 -9 -25 -21 -35 -24 -10 -4
-14 -12 -10 -18 4 -7 3 -9 -3 -6 -6 4 -36 -6 -67 -22 -31 -17 -56 -27 -56 -23
0 4 -4 1 -9 -6 -5 -9 -37 -16 -87 -19 -44 -3 -80 -9 -82 -13 -2 -5 -16 -4 -33
0 -16 5 -29 5 -29 0 0 -5 -10 -10 -22 -13 -13 -2 42 -4 122 -5 150 -2 362 -15
534 -32 162 -16 150 -22 143 59 -7 80 -41 189 -99 312 -47 99 -68 119 -61 58z"/>
<path d="M5622 8378 c-17 -17 -15 -53 3 -68 20 -17 61 -5 68 19 11 42 -42 78
-71 49z m46 -31 c2 -12 -3 -17 -17 -17 -12 0 -21 6 -21 13 0 31 32 34 38 4z"/>
<path d="M4210 8213 c-11 -31 -26 -76 -33 -100 -6 -24 -14 -43 -17 -43 -16 1
-32 20 -27 34 4 9 3 15 -1 15 -22 -4 -31 4 -34 29 l-3 27 -14 -25 c-8 -14 -17
-60 -19 -102 l-5 -77 54 5 c30 3 83 9 119 15 36 5 164 16 285 25 205 14 269
22 199 25 -16 1 -33 1 -38 0 -5 -1 -12 2 -15 6 -12 17 -58 31 -87 26 -17 -3
-25 -2 -21 3 5 5 14 9 20 9 7 0 12 5 12 12 0 6 3 15 8 19 9 9 9 56 1 79 -9 23
-61 47 -87 39 -30 -9 -67 -44 -67 -63 -1 -13 -2 -13 -11 2 -8 13 -14 15 -30 7
-10 -6 -19 -7 -19 -3 0 13 -67 46 -78 39 -5 -3 -12 1 -16 9 -3 8 -12 15 -21
15 -8 0 -15 7 -15 15 0 33 -20 12 -40 -42z m349 -16 c15 -19 2 -28 -21 -16
-11 6 -22 8 -26 5 -3 -3 0 -6 7 -6 7 0 9 -5 6 -10 -4 -6 -11 -8 -16 -4 -6 3
-17 -2 -24 -12 -14 -18 -14 -18 -15 7 0 14 5 30 12 37 16 16 63 15 77 -1z
m-22 -123 c-3 -3 -12 -4 -19 -1 -8 3 -5 6 6 6 11 1 17 -2 13 -5z"/>
<path d="M5115 7920 c-3 -5 -4 -10 -2 -10 27 0 623 -53 682 -60 165 -22 349
-40 353 -35 3 3 3 7 1 9 -10 10 -255 56 -374 70 -276 33 -647 47 -660 26z"/>
<path d="M4685 7639 c-213 -29 -416 -121 -550 -250 -48 -45 -81 -69 -105 -74
-82 -17 -172 -80 -218 -153 -49 -77 -65 -149 -60 -273 l4 -107 -47 -4 c-152
-15 -276 -284 -255 -551 20 -250 106 -413 254 -485 49 -23 69 -27 147 -27 72
0 100 5 140 23 l50 23 665 3 c909 5 1207 21 1281 71 49 32 103 139 119 237 35
204 -29 390 -148 434 -26 10 -49 19 -51 20 -5 4 17 58 68 168 47 101 121 272
121 280 0 4 -69 6 -153 6 l-153 0 -39 92 c-55 128 -118 220 -211 308 -125 119
-256 189 -442 236 -109 28 -305 39 -417 23z m313 -130 c224 -35 440 -155 557
-311 25 -33 45 -64 45 -69 0 -5 -68 -10 -152 -11 l-152 -3 -37 -140 c-21 -77
-38 -141 -38 -142 -1 -1 -21 7 -46 18 -51 23 -157 27 -223 10 -22 -6 -64 -27
-93 -47 -56 -37 -61 -37 -113 1 -18 14 -17 19 28 148 25 74 46 140 46 147 0
10 -44 12 -210 8 l-210 -6 -20 33 c-27 43 -113 123 -147 136 l-28 11 44 39
c57 51 202 122 316 154 148 43 271 49 433 24z m-804 -353 c57 -34 102 -88 122
-149 21 -64 15 -175 -14 -239 l-21 -48 -70 0 -70 0 20 47 c42 99 31 196 -28
243 -37 29 -94 27 -126 -5 -60 -60 -45 -129 93 -435 87 -193 105 -294 75 -433
-25 -119 -103 -229 -199 -280 -58 -31 -193 -31 -251 0 -123 66 -195 220 -195
418 0 242 118 418 264 391 l36 -7 0 -74 0 -74 -48 6 c-44 5 -52 3 -85 -27 -47
-41 -67 -106 -67 -215 0 -111 20 -173 73 -228 123 -125 310 -45 344 148 15 89
1 148 -82 340 -105 241 -125 303 -125 381 0 120 62 223 155 259 58 21 144 13
199 -19z m1483 -146 c11 -28 10 -30 -13 -30 -24 0 -30 14 -18 44 9 24 18 19
31 -14z m-157 -28 c0 -4 -9 -37 -19 -75 l-20 -67 40 0 c38 0 39 -1 33 -27 -22
-88 -29 -98 -71 -101 l-41 -3 -30 -112 c-87 -316 -88 -321 -69 -350 13 -19 26
-27 48 -27 28 0 29 -2 18 -22 -22 -43 -73 -88 -106 -94 -72 -14 -123 35 -123
117 0 34 84 344 195 717 l16 52 64 0 c36 0 65 -3 65 -8z m-880 -5 c0 -2 -22
-68 -50 -146 -27 -78 -50 -146 -50 -152 0 -5 17 0 37 11 72 38 142 15 169 -55
21 -56 18 -70 -58 -322 l-62 -203 -74 0 c-55 0 -73 3 -69 13 35 91 118 385
115 410 -3 29 -6 32 -40 35 -49 4 -54 -4 -143 -250 l-73 -203 -57 -3 c-32 -2
-62 1 -66 5 -5 5 20 96 56 203 36 107 97 294 136 415 38 121 72 226 74 233 3
8 28 12 80 12 41 0 75 -2 75 -3z m1310 -136 c0 -17 -232 -500 -312 -650 l-77
-144 164 7 c91 3 176 11 189 18 43 19 58 91 32 153 -12 27 -21 35 -40 35 -31
0 -46 -25 -46 -79 0 -34 -4 -42 -24 -47 -13 -3 -37 -4 -52 -2 -28 3 -29 4 -28
61 4 204 216 274 270 90 24 -81 16 -205 -17 -263 -35 -63 -64 -81 -153 -91
-121 -13 -486 -23 -486 -13 0 9 106 208 211 399 31 55 90 166 132 248 l76 147
-106 0 -105 0 6 33 c4 17 10 46 13 64 5 32 6 32 72 36 150 7 281 7 281 -2z
m-791 -119 c37 -26 61 -80 61 -133 0 -51 -46 -217 -84 -302 -48 -109 -140
-177 -241 -177 -101 0 -161 60 -159 160 1 56 59 250 95 322 38 74 95 125 169
149 39 13 131 2 159 -19z m-1306 -312 c22 -63 68 -115 112 -130 19 -6 35 -15
35 -18 0 -4 -21 -15 -46 -26 -50 -21 -95 -73 -115 -134 -18 -59 -26 -58 -39 3
-9 45 -20 65 -53 98 -23 23 -51 47 -61 52 -17 10 -14 14 32 47 39 28 57 51 78
97 16 34 31 61 34 61 3 0 13 -23 23 -50z m1480 -417 c-8 -21 -22 -50 -29 -65
l-15 -28 -564 0 c-403 0 -565 3 -565 11 0 6 7 35 16 65 l15 54 579 0 579 0
-16 -37z"/>
<path d="M4876 7393 c-11 -11 -6 -23 9 -23 8 0 15 4 15 9 0 13 -16 22 -24 14z"/>
<path d="M4760 7361 c-7 -18 -24 -38 -37 -45 l-25 -13 25 -15 c13 -9 30 -31
37 -48 l13 -32 19 36 c11 22 28 38 45 42 l26 7 -26 14 c-15 7 -35 30 -45 49
l-19 36 -13 -31z"/>
<path d="M4960 7355 c-10 -12 -10 -18 0 -30 10 -12 14 -12 26 0 14 13 10 45
-6 45 -4 0 -13 -7 -20 -15z"/>
<path d="M4607 7353 c-4 -3 -7 -12 -7 -20 0 -15 26 -18 34 -4 7 11 -18 33 -27
24z"/>
<path d="M4526 7273 c-11 -11 -6 -23 9 -23 8 0 15 4 15 9 0 13 -16 22 -24 14z"/>
<path d="M5066 7263 c-11 -12 -6 -33 8 -33 19 0 28 27 11 33 -7 3 -16 3 -19 0z"/>
<path d="M4991 6591 c-28 -28 -44 -62 -86 -184 -41 -120 -40 -153 1 -163 59
-15 92 23 135 152 52 153 52 214 -1 214 -17 0 -39 -9 -49 -19z"/>
<path d="M4179 5595 l-15 -74 28 -6 c15 -4 32 -3 38 0 15 9 7 30 -11 30 -14 0
-15 9 -3 83 5 33 3 42 -8 42 -11 0 -19 -22 -29 -75z"/>
<path d="M4266 5601 c-21 -94 -22 -93 21 -89 39 3 60 28 23 28 -15 0 -20 5
-18 18 2 9 10 17 18 17 8 0 16 8 18 18 2 9 -1 17 -7 17 -6 0 -11 7 -11 15 0 8
9 15 20 15 11 0 20 7 20 15 0 10 -10 15 -34 15 -34 0 -34 0 -50 -69z"/>
<path d="M4376 5662 c-6 -9 -36 -130 -36 -144 0 -5 6 -8 14 -8 7 0 18 15 24
33 l10 32 1 -32 c1 -18 5 -33 11 -33 5 0 17 15 25 33 l15 32 -5 -32 c-3 -25
-1 -33 10 -33 20 0 34 37 37 102 3 43 0 53 -15 56 -12 2 -21 -6 -28 -27 -13
-38 -31 -41 -27 -4 2 19 -2 28 -14 31 -9 2 -19 -1 -22 -6z"/>
<path d="M4527 5653 c-20 -23 -40 -99 -32 -123 9 -29 60 -27 79 3 22 33 31
104 16 122 -17 20 -43 19 -63 -2z m32 -60 c-5 -21 -9 -41 -9 -45 0 -5 -4 -8
-10 -8 -13 0 -13 31 0 64 15 40 29 31 19 -11z"/>
<path d="M4863 5655 c-26 -18 -46 -100 -32 -127 13 -25 65 -24 79 1 5 11 10
24 10 30 0 17 -30 13 -36 -4 -13 -33 -26 -14 -19 28 7 43 25 75 25 44 0 -10 8
-17 20 -17 25 0 28 45 4 54 -22 9 -27 8 -51 -9z"/>
<path d="M4962 5653 c-9 -17 -32 -113 -32 -133 0 -6 18 -10 40 -10 29 0 40 4
40 15 0 8 -9 15 -20 15 -29 0 -25 29 6 40 25 10 25 30 -1 30 -23 0 -6 28 18
32 33 5 26 23 -10 26 -23 2 -34 -2 -41 -15z"/>
<path d="M5057 5663 c-3 -5 -10 -35 -17 -68 -7 -33 -15 -65 -17 -72 -9 -22 61
-16 82 7 23 26 33 119 14 131 -17 11 -56 12 -62 2z m38 -72 c-6 -35 -20 -59
-29 -50 -3 2 0 26 6 52 11 55 33 54 23 -2z"/>
<path d="M5200 5656 c0 -8 5 -16 12 -18 9 -3 9 -18 0 -59 -10 -53 -4 -78 16
-65 6 3 14 32 18 62 5 43 11 58 25 61 11 3 19 12 19 19 0 10 -13 14 -45 14
-32 0 -45 -4 -45 -14z"/>
<path d="M5290 5598 c-7 -40 -11 -75 -9 -78 6 -8 63 1 74 11 6 6 2 12 -13 15
-27 8 -29 34 -2 34 11 0 20 7 20 15 0 8 -7 15 -15 15 -8 0 -15 7 -15 15 0 8 9
15 19 15 10 0 21 7 25 15 4 12 -3 15 -33 15 l-38 0 -13 -72z"/>
<path d="M5392 5606 c-12 -35 -22 -69 -22 -75 0 -16 27 -13 34 4 3 8 10 15 16
15 5 0 10 -7 10 -15 0 -8 7 -15 15 -15 12 0 15 15 15 75 0 72 -1 75 -23 75
-20 0 -27 -10 -45 -64z m35 -18 c-3 -8 -6 -5 -6 6 -1 11 2 17 5 13 3 -3 4 -12
1 -19z"/>
<path d="M4627 5653 c-2 -5 -7 -26 -11 -48 -4 -22 -9 -52 -12 -67 -9 -44 22
-35 34 10 l10 37 1 -33 c1 -30 23 -53 38 -39 5 5 32 120 33 140 0 4 -6 7 -14
7 -7 0 -18 -15 -24 -32 l-10 -33 -1 33 c-1 25 -5 32 -20 32 -11 0 -22 -3 -24
-7z"/>
<path d="M4780 5608 c-22 -101 -22 -98 -2 -98 14 0 21 15 33 75 14 70 14 75
-2 75 -12 0 -20 -14 -29 -52z"/>
<path d="M3914 4600 c-28 -11 -54 -48 -54 -76 0 -29 34 -70 65 -78 29 -7 79
15 89 39 15 39 6 83 -20 104 -29 22 -46 25 -80 11z m66 -30 c24 -24 25 -48 4
-78 -35 -51 -114 -9 -98 52 11 47 60 60 94 26z"/>
<path d="M5115 4331 c-92 -39 -69 -175 29 -175 106 0 119 156 16 178 -14 3
-34 1 -45 -3z m63 -37 c39 -27 25 -94 -24 -108 -29 -9 -74 28 -74 61 0 54 52
79 98 47z"/>
<path d="M5656 3955 c10 -15 13 -32 9 -46 -6 -18 -12 -20 -42 -16 -41 7 -41
-13 0 -27 21 -8 31 -6 47 9 31 28 22 84 -15 99 -13 5 -13 2 1 -19z"/>
<path d="M5126 3869 c-47 -37 -27 -94 31 -87 53 6 62 72 14 98 -14 7 -25 5
-45 -11z m48 -23 c9 -13 7 -20 -7 -31 -35 -26 -66 12 -35 43 15 15 28 11 42
-12z"/>
<path d="M4752 3858 c-7 -7 -12 -25 -12 -40 0 -51 81 -50 88 1 7 42 -46 69
-76 39z m56 -31 c4 -20 -25 -34 -40 -19 -15 15 -1 44 19 40 10 -2 19 -11 21
-21z"/>
<path d="M3957 3813 c-12 -11 -8 -40 7 -52 16 -14 42 -5 50 16 11 29 -35 58
-57 36z m43 -17 c0 -20 -19 -31 -32 -18 -6 6 -7 15 -4 21 10 16 36 13 36 -3z"/>
<path d="M5024 3594 c-16 -24 -16 -26 4 -46 18 -19 25 -20 47 -10 16 8 25 20
25 35 0 50 -49 63 -76 21z m53 -10 c7 -18 -17 -38 -31 -24 -11 11 -1 40 14 40
6 0 13 -7 17 -16z"/>
<path d="M4140 3549 c0 -22 24 -41 43 -33 16 6 31 33 22 42 -2 3 -7 -3 -11
-12 -8 -21 -30 -21 -43 2 -9 15 -10 15 -11 1z"/>
<path d="M4831 3316 c-57 -32 -68 -111 -22 -157 38 -38 87 -39 129 -4 93 78
-1 220 -107 161z m73 -17 c71 -33 45 -139 -34 -139 -29 0 -70 44 -70 75 0 28
40 75 64 75 8 0 26 -5 40 -11z"/>
<path d="M4850 3220 c0 -6 -4 -9 -8 -6 -4 2 -8 -4 -8 -15 0 -10 4 -19 8 -19 4
0 8 6 8 14 0 8 5 16 12 18 9 3 9 6 0 12 -7 4 -12 2 -12 -4z"/>
<path d="M5420 3223 c-85 -33 -124 -134 -82 -212 68 -127 262 -69 262 78 0 95
-95 166 -180 134z m110 -48 c49 -44 47 -145 -3 -180 -30 -21 -59 -19 -56 3 3
32 -1 41 -15 36 -16 -6 -50 42 -40 58 4 7 3 8 -4 4 -7 -4 -12 -13 -12 -21 0
-7 -5 -15 -11 -17 -15 -5 16 -61 38 -70 15 -5 15 -7 2 -7 -9 -1 -28 11 -42 25
-47 46 -47 119 -1 169 23 24 31 27 75 23 28 -3 58 -13 69 -23z"/>
<path d="M4456 2986 c-29 -28 -25 -62 10 -78 29 -14 51 -5 66 26 12 28 2 48
-34 67 -14 8 -24 4 -42 -15z m64 -31 c0 -21 -40 -30 -57 -12 -13 12 -12 16 2
31 12 12 21 13 36 6 10 -6 19 -17 19 -25z"/>
<path d="M4744 2985 c-10 -25 4 -47 28 -43 32 4 32 50 0 54 -13 3 -25 -2 -28
-11z m37 -9 c5 3 9 0 9 -5 0 -6 -7 -11 -15 -11 -8 0 -15 8 -14 18 0 10 3 12 6
4 2 -6 9 -10 14 -6z"/>
<path d="M5557 2812 c-46 -51 19 -115 67 -66 21 21 20 40 -4 64 -25 25 -42 25
-63 2z m53 -31 c0 -27 -19 -36 -37 -18 -18 18 -9 37 18 37 12 0 19 -7 19 -19z"/>
<path d="M5015 2330 c-3 -6 1 -7 9 -4 18 7 21 14 7 14 -6 0 -13 -4 -16 -10z"/>
<path d="M3825 2721 c-71 -30 -80 -133 -13 -167 62 -32 133 15 133 88 0 65
-59 104 -120 79z m77 -28 c24 -22 24 -77 -2 -103 -43 -43 -113 -12 -113 50 0
60 71 93 115 53z"/>
</g>
</svg>
