<?xml version="1.0" standalone="no"?>
<!DOCTYPE svg PUBLIC "-//W3C//DTD SVG 20010904//EN"
 "http://www.w3.org/TR/2001/REC-SVG-20010904/DTD/svg10.dtd">
<svg version="1.0" xmlns="http://www.w3.org/2000/svg"
 width="960.000000pt" height="1088.000000pt" viewBox="0 0 960.000000 1088.000000"
 preserveAspectRatio="xMidYMid meet">

<g transform="translate(0.000000,1088.000000) scale(0.100000,-0.100000)"
fill="#000000" stroke="none">
<path d="M5316 9571 c-7 -10 19 -23 54 -27 19 -2 21 -1 10 6 -8 5 -10 10 -5
11 12 1 -25 17 -42 18 -6 1 -14 -3 -17 -8z"/>
<path d="M4255 9560 c-14 -7 -8 -8 20 -3 22 3 42 7 44 9 9 8 -45 2 -64 -6z"/>
<path d="M4345 9540 c-3 -5 1 -10 10 -10 9 0 13 5 10 10 -3 6 -8 10 -10 10 -2
0 -7 -4 -10 -10z"/>
<path d="M4659 9541 c-58 -3 -112 -11 -120 -17 -13 -10 -72 -21 -156 -29 -17
-2 -38 -7 -47 -12 -8 -4 146 -6 342 -4 196 1 359 6 362 10 8 10 140 10 140 0
0 -5 12 -8 28 -8 23 2 24 2 5 6 -13 2 -23 8 -23 12 0 5 -33 12 -72 16 -40 3
-77 10 -83 15 -14 11 -250 19 -376 11z"/>
<path d="M4190 9509 c-24 -9 -46 -21 -48 -28 -2 -6 -2 -11 0 -11 9 0 140 49
146 54 11 12 -52 2 -98 -15z"/>
<path d="M5363 9523 c6 -5 134 -52 146 -53 2 0 -2 6 -8 14 -7 8 -33 22 -58 30
-48 16 -92 21 -80 9z"/>
<path d="M5245 9491 c-7 -12 76 -21 94 -11 11 6 7 9 -15 13 -44 7 -73 7 -79
-2z"/>
<path d="M4552 9462 c-10 -7 -10 -15 -2 -36 l10 -27 229 3 c226 3 230 3 251
26 12 13 19 26 15 30 -10 10 -488 14 -503 4z"/>
<path d="M5326 9446 c21 -15 30 -14 19 3 -3 6 -14 11 -23 11 -13 0 -13 -2 4
-14z"/>
<path d="M4318 9433 c6 -2 18 -2 25 0 6 3 1 5 -13 5 -14 0 -19 -2 -12 -5z"/>
<path d="M5290 9410 c0 -13 18 -22 24 -11 3 5 -1 11 -9 15 -8 3 -15 1 -15 -4z"/>
<path d="M4335 9400 c3 -5 8 -10 11 -10 2 0 4 5 4 10 0 6 -5 10 -11 10 -5 0
-7 -4 -4 -10z"/>
<path d="M4570 9361 c0 -5 27 -9 60 -9 33 0 60 4 60 9 0 5 -27 9 -60 9 -33 0
-60 -4 -60 -9z"/>
<path d="M4740 9366 c0 -10 28 -13 41 -5 10 6 7 9 -13 9 -16 0 -28 -2 -28 -4z"/>
<path d="M4808 9363 c7 -3 16 -2 19 1 4 3 -2 6 -13 5 -11 0 -14 -3 -6 -6z"/>
<path d="M5295 9277 c-4 -15 -8 -27 -9 -27 0 -1 -19 -3 -41 -6 -51 -8 -54 -11
-19 -20 16 -3 47 -11 69 -16 l40 -11 -35 -15 -35 -15 60 -12 c33 -6 62 -10 64
-9 2 2 -2 17 -8 35 -6 18 -11 45 -11 60 0 28 -30 56 -44 41 -4 -3 -11 0 -16 8
-7 11 -10 8 -15 -13z"/>
<path d="M4568 9277 c-7 -4 -26 -12 -42 -17 -16 -6 -27 -12 -25 -14 2 -2 128
0 279 3 l275 6 -40 18 c-35 16 -64 18 -237 15 -108 -2 -202 -6 -210 -11z"/>
<path d="M4287 9266 c-8 -8 -17 -34 -21 -57 -4 -24 -12 -49 -18 -56 -19 -23 0
-27 57 -13 61 15 68 24 28 38 -28 9 -28 9 16 23 55 19 62 34 21 43 -17 3 -29
10 -26 15 3 5 -1 12 -10 15 -23 9 -31 8 -47 -8z"/>
<path d="M4063 8940 c-47 -11 -86 -43 -227 -192 -294 -311 -441 -546 -486
-774 -16 -79 -10 -242 8 -253 8 -5 13 -11 13 -15 -5 -39 -5 -39 117 -32 64 3
191 8 282 11 91 3 184 8 206 11 41 5 41 5 41 45 l0 40 -179 -3 c-201 -3 -180
-11 -192 76 -7 53 21 182 51 234 14 23 51 66 83 95 57 51 59 55 70 122 13 80
26 102 35 59 13 -54 16 -64 26 -64 5 0 9 6 9 14 0 9 15 17 40 21 47 8 56 7 52
-7 -6 -21 9 -43 35 -55 16 -7 50 -32 77 -55 l48 -43 -15 -38 c-9 -20 -28 -53
-43 -72 -15 -20 -24 -38 -21 -41 3 -3 -1 -29 -10 -57 -19 -64 -20 -131 -2
-153 12 -14 10 -19 -9 -35 l-23 -18 38 -6 c67 -11 71 -14 44 -34 l-24 -19 22
-7 c12 -3 396 -5 854 -3 458 2 939 -1 1069 -6 l238 -8 12 28 c8 19 12 75 11
156 -1 133 -8 166 -70 312 -27 65 -156 252 -223 325 -23 25 -64 74 -92 110
-28 36 -109 124 -179 195 -116 117 -131 129 -174 137 -55 10 -1465 9 -1512 -1z
m614 -22 c-3 -8 -6 -5 -6 6 -1 11 2 17 5 13 3 -3 4 -12 1 -19z m-347 8 c0 -3
-4 -8 -10 -11 -5 -3 -10 -1 -10 4 0 6 5 11 10 11 6 0 10 -2 10 -4z m1554 -302
c3 -8 2 -12 -4 -9 -6 3 -10 10 -10 16 0 14 7 11 14 -7z m246 -284 c6 -11 9
-20 7 -20 -2 0 -12 9 -22 20 -10 11 -13 20 -7 20 6 0 16 -9 22 -20z m-423 -9
c47 -14 103 -62 103 -88 0 -26 12 -30 30 -8 17 20 27 19 33 -4 3 -13 17 -22
40 -26 32 -6 62 -35 36 -35 -16 0 -2 -48 25 -90 14 -22 26 -65 33 -115 20
-139 17 -161 -21 -163 -5 0 -12 -6 -17 -13 -5 -9 -43 -12 -146 -11 -217 3
-291 14 -253 37 6 3 10 17 10 30 0 13 6 26 13 28 7 4 6 6 -4 6 -9 1 -24 12
-33 26 -9 14 -21 23 -26 20 -4 -3 -6 3 -3 14 3 13 -4 24 -26 37 -39 23 -42 60
-7 73 35 14 39 36 8 52 -15 8 -31 20 -35 27 -5 7 -12 10 -18 7 -5 -4 -12 2
-16 12 -3 10 -15 28 -25 39 l-19 22 48 23 c58 29 83 49 83 67 0 9 11 13 35 10
20 -1 39 3 43 9 4 6 21 13 37 16 17 2 32 5 35 6 3 0 19 -3 37 -8z m-161 -489
c-12 -11 -18 7 -10 30 l8 23 4 -23 c2 -13 1 -26 -2 -30z"/>
<path d="M5610 7880 c0 -5 5 -10 10 -10 6 0 10 5 10 10 0 6 -4 10 -10 10 -5 0
-10 -4 -10 -10z"/>
<path d="M5918 7845 c-13 -30 -5 -43 16 -26 8 7 20 10 26 6 14 -9 12 6 -4 28
-18 23 -24 22 -38 -8z"/>
<path d="M3758 7919 c-20 -11 -24 -34 -7 -45 15 -9 31 10 27 34 -2 17 -7 19
-20 11z"/>
<path d="M3916 7891 c-4 -7 -5 -15 -2 -18 9 -9 19 4 14 18 -4 11 -6 11 -12 0z"/>
<path d="M4721 7649 c-207 -24 -439 -138 -593 -291 -27 -26 -56 -48 -66 -48
-9 0 -40 -11 -69 -24 -144 -67 -224 -240 -207 -446 6 -64 4 -80 -7 -84 -8 -2
-34 -9 -59 -16 -69 -19 -123 -81 -154 -177 -37 -120 -50 -229 -42 -372 13
-245 71 -397 184 -483 79 -60 147 -77 235 -59 33 7 77 21 97 31 34 18 61 18
441 13 412 -5 735 3 1234 32 341 20 351 23 403 125 61 121 78 338 37 476 -21
71 -68 133 -116 152 -21 8 -39 18 -39 22 0 4 34 96 76 206 42 109 77 213 78
229 l1 30 -142 -3 c-123 -3 -143 -1 -143 12 0 22 -78 192 -116 252 -41 65
-142 174 -214 229 -70 54 -235 137 -326 164 -126 38 -322 50 -493 30z m359
-145 c172 -32 341 -107 454 -200 73 -60 158 -161 154 -183 -3 -12 -31 -14
-154 -12 l-151 2 -31 -118 c-18 -65 -34 -133 -38 -150 -4 -18 -8 -33 -9 -33
-1 0 -24 10 -51 22 -36 16 -68 22 -124 22 -91 0 -137 -13 -214 -59 l-59 -35
-31 18 c-17 10 -32 27 -34 38 -2 11 18 76 43 144 25 68 43 130 40 138 -5 12
-37 14 -223 8 l-217 -6 -43 60 c-26 38 -62 73 -92 92 -28 17 -50 35 -50 39 0
25 184 134 287 170 159 56 383 74 543 43z m-875 -353 c135 -58 196 -240 134
-396 l-24 -60 -69 -3 c-68 -3 -68 -3 -61 20 40 131 41 195 4 254 -45 73 -150
61 -176 -18 -19 -57 -3 -116 92 -353 125 -312 135 -366 94 -517 -61 -227 -238
-352 -412 -292 -110 37 -181 175 -196 379 -19 278 65 475 203 475 62 0 68 -8
69 -89 0 -39 -3 -74 -6 -78 -4 -3 -18 -1 -31 6 -31 17 -58 7 -95 -34 -41 -47
-55 -102 -56 -215 0 -119 21 -185 79 -245 68 -71 150 -72 232 -1 62 53 99 142
98 236 0 71 -4 84 -78 255 -43 99 -89 212 -103 250 -33 93 -41 204 -20 276 17
56 70 129 110 151 57 30 139 30 212 -1z m1571 -169 c6 -30 4 -32 -20 -32 -29
0 -35 25 -15 62 13 25 26 14 35 -30z m-166 -24 c0 -7 -9 -41 -19 -75 l-19 -63
39 0 c45 0 46 -5 25 -85 -13 -48 -15 -50 -57 -59 -24 -5 -45 -10 -47 -11 -5
-4 -122 -418 -122 -433 0 -26 31 -52 62 -52 15 0 28 -2 28 -5 0 -17 -33 -66
-59 -88 -68 -57 -154 -38 -181 41 -17 50 -24 20 121 519 l94 323 68 0 c47 0
67 -4 67 -12z m-930 -7 c0 -5 -23 -75 -51 -156 -28 -80 -50 -148 -47 -150 2
-2 23 5 46 16 100 50 196 -28 177 -142 -4 -23 -24 -96 -45 -163 -21 -67 -50
-161 -65 -209 l-26 -87 -75 0 c-41 0 -74 2 -74 5 0 2 20 67 44 142 82 258 89
284 77 310 -11 25 -48 31 -81 13 -20 -11 -55 -95 -127 -307 -25 -76 -51 -144
-57 -152 -7 -10 -25 -12 -64 -8 -30 3 -57 8 -60 12 -3 3 22 90 55 193 34 103
96 295 138 427 42 132 78 246 80 253 5 14 155 17 155 3z m1339 -130 c12 -8 10
-19 -9 -68 -44 -110 -173 -389 -262 -566 -49 -98 -88 -180 -86 -182 5 -6 321
13 340 20 36 14 48 101 24 160 -27 64 -76 35 -76 -45 l0 -48 -51 -7 c-63 -9
-71 0 -63 70 9 74 47 151 86 175 37 22 104 26 129 7 42 -32 54 -78 54 -202 0
-108 -2 -125 -25 -169 -43 -86 -93 -98 -448 -112 -186 -7 -192 -6 -185 12 12
28 95 185 158 299 56 101 170 322 231 448 l33 67 -99 0 c-113 0 -107 -5 -87
85 l12 50 55 6 c90 9 254 9 269 0z m-802 -120 c89 -41 99 -136 34 -331 -23
-69 -56 -149 -74 -179 -64 -107 -200 -160 -300 -117 -120 51 -118 185 7 479
57 132 214 202 333 148z m-1338 -320 c23 -70 58 -116 105 -139 25 -13 46 -25
46 -27 0 -2 -19 -13 -42 -23 -56 -25 -83 -55 -111 -126 -13 -31 -28 -58 -33
-59 -4 -1 -12 17 -16 40 -13 77 -59 147 -110 166 -8 3 7 25 42 60 37 36 61 69
70 98 22 72 28 73 49 10z m1541 -412 c0 -5 -12 -33 -27 -63 -21 -43 -32 -55
-56 -60 -16 -3 -281 -6 -588 -6 -441 0 -559 3 -559 13 0 13 26 103 34 115 6
10 1196 11 1196 1z"/>
<path d="M4819 7362 c-6 -19 -25 -42 -41 -52 l-29 -17 25 -17 c14 -9 33 -30
42 -48 l16 -31 21 36 c11 20 29 39 39 43 24 7 23 21 -3 29 -11 4 -29 26 -40
48 l-18 42 -12 -33z"/>
<path d="M4930 7375 c0 -8 7 -15 15 -15 8 0 15 7 15 15 0 8 -7 15 -15 15 -8 0
-15 -7 -15 -15z"/>
<path d="M5023 7355 c-16 -18 -16 -28 -1 -43 19 -19 51 15 37 39 -12 22 -20
23 -36 4z"/>
<path d="M4651 7337 c-9 -11 -8 -17 5 -28 13 -11 17 -10 25 2 17 28 -9 51 -30
26z"/>
<path d="M4566 7261 c-3 -5 0 -14 8 -20 10 -9 15 -8 19 3 9 22 -15 37 -27 17z"/>
<path d="M5137 7264 c-13 -13 -7 -42 8 -48 22 -8 31 22 13 40 -8 8 -17 11 -21
8z"/>
<path d="M5062 6564 c-29 -20 -58 -77 -98 -198 -45 -132 -44 -151 7 -169 26
-9 75 22 96 61 29 51 83 225 83 265 0 55 -41 74 -88 41z"/>
<path d="M4210 5543 c-6 -32 -14 -68 -17 -80 -5 -21 -1 -23 31 -23 25 0 36 4
36 15 0 8 -7 15 -16 15 -10 0 -14 6 -10 15 3 8 8 37 12 65 5 41 4 50 -9 50
-11 0 -19 -17 -27 -57z"/>
<path d="M4306 5591 c-5 -7 -36 -144 -36 -157 0 -2 18 -4 40 -4 29 0 40 4 40
15 0 9 -7 18 -15 21 -19 8 -20 34 -1 34 23 0 31 22 12 32 -24 13 -19 28 9 28
18 0 25 5 25 20 0 16 -7 20 -34 20 -19 0 -37 -4 -40 -9z"/>
<path d="M4402 5583 c-10 -19 -32 -114 -32 -138 0 -23 26 -18 39 8 6 12 9 14
7 5 -8 -28 16 -33 36 -8 18 22 18 22 18 1 0 -12 6 -21 14 -21 14 0 31 61 38
135 4 43 -26 46 -51 4 l-19 -32 -4 29 c-4 34 -32 44 -46 17z"/>
<path d="M4561 5581 c-22 -22 -34 -72 -29 -117 3 -26 7 -29 38 -29 28 0 37 5
48 29 23 48 26 100 7 119 -22 22 -41 21 -64 -2z m34 -58 c-10 -54 -24 -76 -25
-38 0 41 10 75 22 75 6 0 7 -15 3 -37z"/>
<path d="M4729 5572 l-11 -27 -9 23 c-5 14 -16 22 -26 20 -18 -3 -27 -29 -38
-108 -6 -47 -5 -52 11 -48 10 2 21 14 25 28 l7 25 1 -27 c1 -23 6 -28 26 -28
14 0 25 3 25 8 0 4 6 39 14 79 11 61 11 73 -1 77 -8 4 -18 -5 -24 -22z"/>
<path d="M4846 5591 c-7 -10 -36 -131 -36 -148 0 -7 9 -13 19 -13 15 0 22 11
29 48 24 113 25 122 9 122 -9 0 -18 -4 -21 -9z"/>
<path d="M4918 5589 c-25 -14 -52 -112 -39 -137 17 -32 50 -34 78 -6 13 13 23
30 20 37 -7 21 -33 19 -46 -5 -10 -20 -11 -17 -6 21 7 56 14 66 29 45 15 -20
36 -11 36 15 0 36 -37 51 -72 30z"/>
<path d="M5019 5598 c0 -2 -8 -40 -18 -86 l-17 -83 40 3 c29 2 42 8 44 21 2
12 -3 17 -17 17 -14 0 -19 5 -15 15 4 8 15 15 25 15 10 0 19 7 19 15 0 8 -7
15 -15 15 -24 0 -17 28 7 32 13 2 24 11 26 21 3 14 -4 17 -37 17 -23 0 -41 -1
-42 -2z"/>
<path d="M5110 5561 c-5 -21 -13 -59 -16 -85 -7 -46 -7 -46 24 -46 43 0 71 28
80 81 12 65 1 89 -42 89 -32 0 -36 -3 -46 -39z m50 -33 c0 -33 -14 -67 -24
-57 -5 5 14 89 20 89 2 0 4 -15 4 -32z"/>
<path d="M5280 5580 c0 -11 4 -20 9 -20 5 0 3 -27 -4 -60 -8 -36 -9 -63 -3
-66 17 -11 37 18 44 62 3 24 15 55 25 68 11 13 19 27 19 30 0 3 -20 6 -45 6
-38 0 -45 -3 -45 -20z"/>
<path d="M5367 5528 c-10 -40 -17 -77 -17 -81 0 -13 83 -3 88 11 2 7 -5 12
-17 12 -12 0 -21 6 -21 15 0 8 6 15 14 15 23 0 31 22 12 32 -23 13 -20 36 6
40 40 6 33 28 -9 28 l-39 0 -17 -72z"/>
<path d="M5496 5592 c-3 -5 -15 -39 -27 -75 -23 -69 -18 -99 8 -59 18 25 33
29 33 7 0 -8 7 -15 15 -15 12 0 15 15 15 75 0 68 -2 75 -19 75 -11 0 -22 -4
-25 -8z m11 -74 c-3 -8 -6 -5 -6 6 -1 11 2 17 5 13 3 -3 4 -12 1 -19z"/>
<path d="M3354 5158 c-16 -47 -5 -161 21 -233 14 -38 30 -71 35 -73 6 -2 10
-12 10 -23 0 -10 4 -19 10 -19 5 0 16 -22 24 -49 8 -27 20 -59 26 -72 11 -19
10 -21 -4 -16 -23 9 -21 2 30 -85 26 -44 47 -87 48 -96 1 -9 14 -55 28 -102
38 -119 61 -227 52 -241 -4 -8 -3 -9 4 -5 8 5 12 -1 12 -16 0 -19 -2 -20 -11
-8 -8 12 -9 9 -5 -11 3 -15 15 -97 26 -183 31 -246 25 -550 -16 -776 -41 -223
-171 -650 -226 -741 -28 -47 -36 -75 -18 -64 14 9 12 -12 -4 -38 -24 -38 -36
-122 -42 -310 -5 -126 -3 -189 4 -203 8 -16 8 -24 -1 -33 -9 -9 -8 -17 3 -34
13 -20 24 -79 35 -187 3 -25 6 -52 8 -60 14 -64 22 -96 48 -172 16 -48 26 -93
24 -100 -8 -19 38 -131 87 -212 86 -145 222 -240 364 -252 74 -7 178 9 294 45
l59 18 36 -58 c44 -72 102 -122 174 -151 51 -20 73 -23 246 -23 235 0 269 8
341 80 28 28 70 86 94 128 23 42 46 77 51 77 5 0 67 -29 137 -64 155 -78 224
-99 317 -99 136 1 278 77 314 169 7 17 23 37 37 44 35 19 77 89 130 220 26 63
50 120 55 125 4 6 15 39 24 74 9 35 27 85 40 110 19 35 27 74 35 166 7 66 17
126 23 133 6 8 7 16 1 20 -5 4 -9 98 -9 217 0 138 -5 229 -14 265 -13 57 -93
318 -137 450 -84 251 -135 463 -154 646 -16 148 -13 497 5 658 17 160 114 553
165 671 5 11 14 38 21 60 6 22 14 45 18 50 3 6 6 16 7 22 1 7 12 25 23 39 42
54 76 234 58 306 -11 46 -9 46 -178 18 -156 -26 -155 -26 -138 -46 7 -9 23
-20 36 -25 13 -5 23 -16 23 -25 0 -12 -3 -14 -13 -6 -10 8 -13 5 -15 -16 -1
-14 -9 -33 -17 -41 -13 -14 -18 -13 -44 2 -27 16 -31 16 -39 1 -5 -10 -26 -18
-53 -21 -24 -2 -60 -9 -79 -14 -52 -13 -204 -11 -218 3 -9 9 -15 9 -24 0 -16
-16 -31 -15 -22 1 6 9 4 9 -8 -1 -12 -10 -18 -10 -24 -1 -4 6 0 16 10 21 21
12 21 52 0 69 -14 11 -16 10 -13 -6 4 -23 -7 -45 -22 -45 -6 0 -8 4 -5 9 4 5
-3 7 -14 4 -12 -3 -20 0 -20 7 0 9 -11 11 -34 7 -25 -4 -37 -1 -49 14 -16 18
-15 19 10 25 71 18 -51 23 -616 23 -511 1 -602 -1 -592 -13 9 -11 5 -17 -16
-31 -38 -24 -64 -53 -67 -73 -2 -13 -15 -18 -49 -20 -40 -3 -47 0 -47 15 0 11
-3 14 -8 6 -13 -20 -88 -21 -76 0 6 8 3 8 -9 -2 -12 -10 -34 -11 -84 -6 -38 3
-84 8 -104 9 -47 4 -55 10 -63 47 -5 27 -1 35 26 60 18 15 30 30 28 32 -5 5
-296 57 -317 57 -6 0 -15 -10 -19 -22z m2186 -1028 c0 -5 -5 -10 -11 -10 -5 0
-7 5 -4 10 3 6 8 10 11 10 2 0 4 -4 4 -10z m4 -30 c18 0 8 -47 -10 -54 -8 -3
-14 -1 -14 4 0 6 5 10 10 10 18 0 10 18 -10 23 -11 3 -20 11 -20 17 0 7 7 10
16 6 9 -3 21 -6 28 -6z m54 -90 c-2 -6 -8 -6 -18 0 -13 9 -13 11 0 20 15 10
25 0 18 -20z m-35 -30 c4 -16 2 -19 -7 -11 -7 6 -16 8 -19 4 -4 -3 -7 0 -7 9
0 34 24 32 33 -2z m42 -560 c3 -5 1 -10 -4 -10 -6 0 -11 5 -11 10 0 6 2 10 4
10 3 0 8 -4 11 -10z m-1615 -275 l14 -30 3 25 c2 14 11 44 20 68 12 32 21 42
38 42 16 0 25 -8 29 -25 4 -16 11 -23 18 -19 6 4 8 3 4 -4 -3 -6 10 -43 31
-84 32 -63 37 -84 40 -152 2 -51 -1 -84 -9 -94 -10 -11 -9 -17 2 -26 8 -6 16
-18 18 -26 3 -10 -4 -8 -20 8 -35 32 -51 29 -36 -5 7 -16 17 -35 24 -43 30
-40 33 -143 3 -125 -5 4 -9 -2 -9 -12 0 -10 -3 -28 -6 -40 -4 -16 0 -23 15
-28 12 -4 18 -11 15 -17 -4 -6 -8 -23 -10 -37 -1 -14 -3 -27 -4 -28 -1 -2 -3
-6 -4 -10 -6 -27 -18 -53 -24 -53 -4 0 -5 -36 -2 -79 4 -43 3 -104 0 -136 -3
-31 -3 -58 2 -61 4 -3 1 -16 -8 -29 -9 -13 -13 -28 -10 -33 3 -5 2 -24 -3 -43
-4 -19 -16 -68 -26 -111 -16 -68 -21 -77 -44 -81 -32 -6 -38 -2 -22 17 16 19
4 43 -13 26 -6 -6 -11 -16 -11 -23 0 -18 -92 -9 -140 13 -11 5 -51 22 -89 38
-109 47 -110 48 -103 157 3 53 21 157 41 241 43 184 92 435 110 574 8 58 23
164 34 235 11 72 23 161 26 200 10 111 26 101 62 -38 17 -67 37 -135 44 -152z
m1604 182 c10 10 26 -17 26 -45 0 -15 10 -27 34 -38 37 -18 60 -53 69 -104 18
-106 26 -121 52 -100 8 7 17 11 19 9 12 -13 37 -146 42 -223 3 -50 10 -98 15
-107 13 -26 11 -39 -6 -33 -9 4 -15 0 -15 -7 0 -11 -2 -11 -9 1 -6 8 -8 17 -5
21 2 4 0 10 -6 14 -11 7 -11 5 -14 -35 0 -14 -4 -29 -8 -35 -3 -6 5 -11 18
-11 16 -1 24 4 25 15 0 10 2 11 6 3 2 -6 9 -10 14 -6 5 3 9 -9 9 -27 0 -31 -1
-32 -15 -13 -12 16 -16 17 -24 5 -6 -10 -6 -22 0 -33 10 -19 39 -25 39 -8 0
21 20 8 34 -22 27 -57 86 -276 86 -317 0 -48 -27 -74 -103 -96 -108 -32 -337
-32 -337 1 0 17 -20 19 -20 2 -1 -8 -6 -6 -14 4 -7 10 -16 15 -19 11 -13 -12
-7 53 6 66 10 11 9 13 -6 7 -16 -5 -18 -1 -15 26 2 24 -1 33 -12 33 -28 0 -48
28 -39 52 5 14 4 25 -2 29 -7 4 -7 10 0 18 6 7 8 16 4 20 -4 3 -8 14 -9 24 -2
9 -8 18 -13 20 -6 2 -11 8 -11 13 0 6 5 7 10 4 6 -3 10 -2 10 4 0 5 -6 11 -12
14 -7 2 1 8 17 12 51 12 57 15 53 27 -3 7 6 21 19 31 24 19 35 86 12 71 -8 -4
-9 3 -4 26 6 27 5 32 -8 27 -10 -4 -16 3 -21 24 -6 31 1 59 15 59 5 0 9 5 9
10 0 6 -9 10 -20 10 -11 0 -20 -5 -20 -10 0 -6 -8 -14 -17 -17 -9 -4 -25 -15
-35 -25 -21 -21 -88 -21 -88 1 0 7 6 11 14 8 7 -3 31 1 52 8 30 10 35 15 22
20 -10 4 -15 11 -12 17 3 5 -2 8 -12 6 -16 -2 -18 3 -16 30 4 42 -12 62 -48
58 -27 -3 -28 -1 -24 28 3 17 6 54 8 82 1 28 6 56 10 62 4 7 5 16 2 21 -3 5 1
14 9 21 18 15 20 34 3 24 -8 -4 -9 -3 -5 2 5 5 19 9 30 9 17 0 23 7 25 28 2
15 8 25 13 22 9 -6 13 7 10 32 -3 19 39 55 56 49 8 -4 25 4 38 16 13 13 28 23
32 23 24 1 54 28 49 43 -5 15 -5 15 7 0 8 -10 17 -15 21 -11z m-1394 -112 c0
-36 -3 -46 -10 -35 -5 8 -10 24 -10 34 0 10 -7 24 -17 31 -16 12 -9 40 8 30 5
-4 9 0 9 7 0 9 3 9 10 -2 5 -8 10 -37 10 -65z m1220 -545 c-11 -7 -11 -11 -1
-24 18 -21 -3 -21 -23 0 -22 21 -20 32 7 36 28 5 36 0 17 -12z m60 -20 c0 -5
-4 -10 -10 -10 -5 0 -10 5 -10 10 0 6 5 10 10 10 6 0 10 -4 10 -10z m440 -530
c-8 -5 -19 -10 -25 -10 -5 0 -3 5 5 10 8 5 20 10 25 10 6 0 3 -5 -5 -10z m-43
-16 c-24 -24 -327 -58 -327 -37 0 6 36 11 88 12 48 1 114 8 147 15 69 15 101
19 92 10z m165 -34 c8 -54 -15 -87 -85 -120 -35 -16 -68 -30 -74 -30 -5 0 -27
-8 -49 -19 -67 -32 -133 -51 -178 -51 -35 0 -48 5 -67 28 -13 15 -33 28 -44
29 -45 6 -59 10 -63 21 -2 7 -10 12 -17 12 -8 0 -17 9 -20 20 -4 11 -11 18
-16 15 -5 -4 -9 1 -9 10 0 8 -7 18 -16 22 -8 3 -13 11 -10 19 3 7 0 15 -7 18
-23 9 48 5 93 -5 59 -13 305 -13 350 0 19 6 47 11 62 11 16 0 28 5 28 10 0 6
6 10 14 10 7 0 27 7 42 15 44 23 61 19 66 -15z m-558 -382 c10 -46 13 -158 5
-158 -5 0 -9 10 -10 23 0 12 -3 33 -5 47 -9 51 -10 110 -2 110 4 0 10 -10 12
-22z m401 -134 c-27 -7 -59 -13 -70 -13 -24 2 71 27 100 27 11 0 -2 -6 -30
-14z m-1922 -19 c54 -10 96 -20 93 -23 -6 -6 -194 27 -221 40 -17 7 -17 8 5 4
14 -2 69 -12 123 -21z"/>
<path d="M4040 3022 c0 -19 12 -42 22 -42 14 0 5 43 -9 48 -7 2 -13 -1 -13 -6z"/>
<path d="M3947 2983 c-4 -3 -7 -17 -7 -30 0 -35 34 -26 38 10 3 26 -14 37 -31
20z"/>
<path d="M4129 2743 c-8 -39 -5 -74 7 -83 20 -18 53 52 34 75 -13 16 -39 21
-41 8z"/>
<path d="M3910 2709 c0 -5 5 -7 10 -4 6 3 10 8 10 11 0 2 -4 4 -10 4 -5 0 -10
-5 -10 -11z"/>
<path d="M3952 2655 c-1 -14 3 -25 8 -25 6 0 10 11 10 25 0 14 -4 25 -8 25 -4
0 -9 -11 -10 -25z"/>
<path d="M3854 2635 c-17 -26 -12 -45 12 -45 16 0 34 38 27 58 -8 19 -21 14
-39 -13z"/>
<path d="M4122 2567 c-5 -6 -11 -30 -13 -53 -4 -35 -2 -40 14 -36 24 6 31 20
17 37 -8 10 -8 19 -1 34 12 22 -1 38 -17 18z"/>
<path d="M3875 2499 c-4 -6 -5 -13 -2 -16 7 -7 27 6 27 18 0 12 -17 12 -25 -2z"/>
<path d="M4054 2497 c-9 -24 6 -44 18 -22 7 11 6 21 -1 28 -7 7 -12 6 -17 -6z"/>
<path d="M4135 2460 c-3 -5 -1 -10 4 -10 6 0 11 5 11 10 0 6 -2 10 -4 10 -3 0
-8 -4 -11 -10z"/>
<path d="M4034 2436 c-8 -22 3 -33 18 -18 9 9 9 15 0 24 -9 9 -13 7 -18 -6z"/>
<path d="M4086 2434 c-9 -8 -16 -20 -16 -25 0 -11 30 -12 31 -1 0 4 2 15 4 25
4 21 1 21 -19 1z"/>
<path d="M3860 2405 c0 -8 5 -15 10 -15 6 0 10 7 10 15 0 8 -4 15 -10 15 -5 0
-10 -7 -10 -15z"/>
<path d="M3947 2353 c-4 -3 -7 -17 -7 -30 0 -28 26 -31 35 -3 9 30 -10 52 -28
33z"/>
<path d="M4036 2324 c-10 -26 -7 -34 14 -34 15 0 20 7 20 25 0 28 -24 34 -34
9z"/>
<path d="M3961 2196 c-29 -35 -12 -86 24 -73 20 8 30 54 15 72 -15 19 -24 19
-39 1z"/>
<path d="M3996 2065 c-11 -8 -16 -18 -11 -22 4 -5 10 -2 12 5 3 6 11 12 19 12
8 0 14 5 14 10 0 14 -11 12 -34 -5z"/>
<path d="M5450 3180 c0 -13 5 -20 13 -17 6 2 12 10 12 17 0 7 -6 15 -12 18 -8
2 -13 -5 -13 -18z"/>
<path d="M5566 3145 c4 -8 8 -15 10 -15 2 0 4 7 4 15 0 8 -4 15 -10 15 -5 0
-7 -7 -4 -15z"/>
<path d="M5612 3100 c-6 -11 -12 -31 -12 -45 0 -20 5 -25 24 -25 30 0 37 25
19 63 -16 32 -15 32 -31 7z"/>
<path d="M5504 3036 c-8 -21 3 -49 16 -41 5 3 10 15 10 25 0 25 -18 36 -26 16z"/>
<path d="M5682 2991 c4 -13 18 -16 19 -4 0 4 -5 9 -11 12 -7 2 -11 -2 -8 -8z"/>
<path d="M5580 2954 c-9 -10 -10 -18 -2 -26 12 -12 32 -2 32 17 0 21 -16 26
-30 9z"/>
<path d="M5757 2953 c-7 -11 10 -40 18 -31 4 4 3 14 -3 24 -5 9 -12 12 -15 7z"/>
<path d="M5727 2784 c-10 -10 -9 -42 2 -48 5 -3 14 0 20 7 12 15 -9 54 -22 41z"/>
<path d="M5689 2577 c-9 -20 -9 -31 -2 -38 25 -25 44 18 24 50 -8 12 -12 10
-22 -12z"/>
<path d="M5596 2503 c-12 -13 -6 -53 9 -53 9 0 15 9 15 24 0 26 -12 40 -24 29z"/>
<path d="M5520 2449 c0 -11 5 -17 10 -14 6 3 10 13 10 21 0 8 -4 14 -10 14 -5
0 -10 -9 -10 -21z"/>
<path d="M5730 2440 c0 -5 -7 -10 -15 -10 -21 0 -19 -17 4 -30 28 -15 31 -13
31 20 0 17 -4 30 -10 30 -5 0 -10 -4 -10 -10z"/>
<path d="M5540 2402 c0 -6 -9 -8 -20 -5 -25 7 -38 -23 -18 -43 12 -13 17 -12
36 4 24 21 28 37 12 47 -5 3 -10 2 -10 -3z"/>
<path d="M5700 2345 c0 -8 5 -15 10 -15 6 0 10 7 10 15 0 8 -4 15 -10 15 -5 0
-10 -7 -10 -15z"/>
<path d="M5513 2203 c-15 -5 -18 -33 -4 -33 5 0 11 9 14 20 3 11 4 20 4 19 -1
0 -8 -3 -14 -6z"/>
<path d="M5862 2199 c2 -7 10 -15 17 -17 8 -3 12 1 9 9 -2 7 -10 15 -17 17 -8
3 -12 -1 -9 -9z"/>
<path d="M5565 2170 c-3 -5 -2 -17 3 -26 8 -14 10 -14 21 0 13 15 8 36 -9 36
-5 0 -12 -4 -15 -10z"/>
<path d="M5454 1995 c-3 -8 -3 -19 1 -25 11 -18 25 -11 25 15 0 27 -17 34 -26
10z"/>
<path d="M3996 5003 c-8 -19 14 -37 28 -23 10 10 1 40 -13 40 -5 0 -12 -8 -15
-17z"/>
<path d="M6210 1221 c-12 -25 -33 -73 -46 -108 -13 -36 -36 -87 -50 -115 -29
-57 -26 -76 4 -26 42 68 60 105 91 186 36 93 37 131 1 63z"/>
</g>
</svg>
