<svg xmlns="http://www.w3.org/2000/svg" xmlns:xlink="http://www.w3.org/1999/xlink" xmlns:inkscape="http://www.inkscape.org/namespaces/inkscape" version="1.1" width="1360.6299" height="907.0866" viewBox="0 0 1360.6299 907.0866">
<g inkscape:groupmode="layer" inkscape:label="Layer 1">
<path transform="matrix(1,0,0,-1,0,907.0866)" d="M697.4408 790.5498C860.0672 790.5498 1000.8162 696.9146 1068.7857 560.6345H1236.8523L1183.775 483.5151C1174.4022 469.8411 1164.9589 456.2124 1155.6463 442.4998L1154.8704 441.364C1152.7877 438.2391 1150.6585 435.1493 1148.5689 432.0295L1127.355 401.0057C1132.122 400.756 1136.9758 400.2701 1141.9138 399.5362 1219.6746 388.0052 1268.1343 307.8799 1241.8217 233.7732 1227.1275 192.388 1199.1764 163.3124 1156.722 151.3074 1127.8375 143.1391 1099.7575 144.6557 1070.2599 144.4175 1043.5689 144.2032 1016.8778 144.4864 990.1851 144.4864H410.5862C394.672 134.8486 377.89 127.6656 358.4086 122.6123 323.6567 113.5913 286.5589 114.5699 252.1471 124.6482 194.4252 141.5492 148.8461 183.4926 125.8024 238.8886 88.3712 328.8677 125.841 445.4674 217.0298 486.4876 235.4956 494.7948 258.2878 500.8099 280.6126 501.3057 273.835 526.7401 272.4661 553.108 280.6209 581.6707 300.3769 650.8746 359.9736 684.1205 419.1514 683.3061 492.7405 749.9466 590.3515 790.5498 697.4408 790.5498" fill="#1a1a18" fill-rule="evenodd"/>
<path transform="matrix(1,0,0,-1,0,907.0866)" d="M697.4408 747.9913C813.6266 747.9913 917.365 694.7433 985.6191 611.3324L862.2655 611.4881 853.2797 576.8249C851.5003 569.9571 848.4659 562.7925 846.1403 556.0367L832.4195 516.1861C813.5864 526.9646 789.4287 532.1537 761.3152 530.1584 736.6331 528.4074 714.1995 520.6414 694.0964 506.0894 690.0636 503.1689 686.2048 500.076 682.5421 496.8102 678.8594 500.3223 674.8112 503.5677 670.3877 506.4982 666.0901 509.345 661.4725 511.7627 656.6403 513.7432 660.7083 524.914 664.7698 536.0913 668.6821 547.2938L691.0773 611.3959H542.9256C526.9782 640.798 501.7598 661.3183 473.0145 672.7153 535.411 719.9532 613.1469 747.9913 697.4408 747.9913ZM1004.5225 586.1225C1010.194 577.857 1015.554 569.3621 1020.5572 560.6345H996.0126Z" fill="#ffed00" fill-rule="evenodd"/>
<path transform="matrix(1,0,0,-1,0,907.0866)" d="M225.3504 312.7609C229.2276 311.6239 238.0187 311.6021 243.3093 310.4303 248.8127 309.2114 253.8179 307.5214 259.0866 305.1907 309.7083 282.82 307.7889 231.0049 308.6912 228.9382 310.6979 231.6798 307.4176 281.8865 358.4013 305.0561 363.8429 307.5284 368.3786 309.0005 374.0913 310.3231 379.4204 311.5548 388.9191 311.631 392.656 312.7609 391.4226 313.8999 393.2328 313.1467 390.6456 313.6416L381.0087 314.3693C357.5863 317.4803 334.9899 331.3783 322.3508 350.9456 314.1567 363.6337 310.4578 375.7578 310.4705 394.0586 310.4833 412.2102 310.5306 430.3783 310.4705 448.53 291.7239 461.8094 254.0815 452.4834 235.9882 444.3437 167.6752 413.6148 139.9666 325.158 168.4704 256.6358 186.1724 214.0795 220.8804 181.9534 265.134 168.9959 291.3491 161.3183 319.8821 160.3539 346.7993 167.3402 372.9815 174.1357 390.5002 185.0862 407.7621 198.9771 414.8413 204.6733 424.5239 215.3421 429.8873 222.3938 451.885 251.3123 464.3549 291.2837 459.0916 329.8703 455.6166 355.343 446.8309 378.8379 436.9445 400.3628 427.2511 421.4707 415.5199 441.2106 405.7736 461.704 396.3385 481.5349 382.3603 502.1391 375.9982 523.7657 368.9663 547.6663 377.5572 576.4521 403.8069 584.2826 416.2949 588.0087 432.0303 585.3141 441.2146 579.174 469.3944 560.3346 465.0154 512.4674 449.1743 484.846 447.7334 482.3334 445.5609 479.7519 444.6184 477.5323L497.9146 477.5703C502.5195 479.6082 510.2317 504.6077 511.7216 511.3757 514.7291 525.0283 515.3457 541.8663 513.0969 556.4228 497.3306 658.4502 352.5576 665.3146 325.0562 568.9837 313.2578 527.6554 331.5331 490.1641 349.6666 456.0531 360.8084 435.094 371.4188 413.8804 382.4878 392.8635 393.5894 371.7842 404.913 347.7745 407.6385 321.3283 412.9381 269.9354 374.4479 221.4167 322.5146 214.7253 264.632 207.2713 220.6491 246.6604 211.4215 294.6875 201.6479 345.5583 229.8552 405.7699 289.7881 405.7551 306.739 405.7515 309.3463 393.2127 306.2823 376.8695 300.5787 346.4444 275.3371 324.1519 246.4095 316.3088 235.4953 313.3505 234.6746 314.5768 228.0776 313.7397ZM1087.1932 238.3824C1113.3281 238.326 1145.687 234.3815 1154.3162 266.313 1161.9757 294.6583 1128.7488 318.039 1103.6401 302.2268 1095.4894 297.089 1088.2919 285.6671 1088.6666 275.0204 1088.8325 270.2409 1090.2277 268.8401 1090.5352 265.1468L1043.041 265.8764C1040.8507 272.7935 1042.0004 284.0516 1043.4523 292.0677 1058.8986 342.4802 1094.5106 359.8512 1135.1347 353.8256 1184.9049 346.4461 1214.646 295.3406 1198.2736 249.2365 1175.2605 184.4186 1119.7449 191.0265 1069.8911 190.6279 1043.1757 190.4134 1016.6788 190.546 990.1854 190.6971H949.0898 877.2165L902.2961 227.9191C903.9719 230.4317 906.2677 233.8322 909.0751 237.9784L909.1732 238.1238C939.5529 282.9728 1028.763 412.7907 1030.6057 415.4596 1042.528 432.7126 1054.3209 449.8654 1066.0558 466.9965H974.0276L990.1018 514.1976 990.18 514.4233H1098.4768 1148.4854 1148.9528L1146.9569 511.5231 1145.7051 509.7112 1145.6635 509.6475C1135.5025 494.8997 1125.163 479.8536 1117.4216 468.4683L1116.9303 467.7477 1116.4465 467.0345 1116.4209 466.9965C1114.0322 463.4796 1111.9181 460.3521 1110.168 457.7377L1037.5413 351.5278 959.8751 238.1238H1007.1145C1033.7916 238.235 1060.5231 238.4203 1087.1932 238.3824ZM461.9078 238.1238H501.7952 624.2975 880.8678L849.4894 190.6971H624.2975 501.7952 445.3554ZM764.5859 484.0637C749.8911 483.0214 735.3561 478.8768 721.1962 468.6593 707.0199 458.3616 697.2352 445.9737 691.8245 431.4189L660.6173 345.5603C647.0796 303.444 663.0151 268.1833 708.5316 267.4446H711.7265C712.707 267.461 713.6186 267.459 714.4809 267.4446H721.0179C735.7473 267.4446 750.2312 272.5551 764.4841 282.8509 778.6604 293.1483 788.4431 305.5346 793.7756 320.0893L825.0684 406.4992C843.8732 463.0448 812.3839 487.4567 764.5859 484.0637ZM759.2117 438.3363C776.8684 441.409 784.5987 428.4425 780.0012 412.0537 776.579 399.8568 771.1373 386.854 766.94 374.4643 758.9477 350.8872 751.754 315.883 727.744 312.9919 709.3814 310.7835 701.1215 322.0268 706.3393 339.8749 709.878 351.966 715.2452 365.4493 719.5207 377.2843 727.9024 400.4938 734.6174 434.0571 759.2117 438.3363ZM899.689 304.9943 900.9009 294.5293C875.7028 237.6873 792.3801 245.514 815.2985 323.9901 820.0106 340.122 826.3655 356.1542 831.6799 372.0991 842.3212 404.0195 853.4993 436.5986 864.885 468.5321L889.8335 540.993C892.457 548.5796 895.9995 557.46 898.0135 565.2303L948.8078 565.1668 931.8969 514.5143 969.1191 514.385 953.045 467.1839 915.5957 466.8817C913.5252 463.0139 902.1305 427.9348 899.5581 420.5302L875.8664 351.0346C873.3302 343.7609 869.97 335.2518 868.4725 327.5813 861.8029 293.4139 898.1989 300.2783 899.689 304.9943ZM584.9413 449.4231C585.6199 454.028 621.6231 552.8514 625.0564 562.534L625.9842 565.185H575.1187L574.0946 562.3614C556.1303 513.2806 539.6868 464.5383 521.941 415.4596 520.7873 412.274 470.5807 272.1404 469.6492 267.4446L518.9499 267.461C520.7 267.8995 521.2369 270.3155 521.7755 271.9621 522.3793 273.8049 522.9488 275.5134 523.5474 277.2091L565.0469 394.0824C569.9373 408.1022 576.8688 422.7534 590.5687 425.9483 600.3312 428.2243 608.5037 425.0914 611.915 418.9073 615.9813 411.5353 612.6157 402.1203 610.1904 395.1666L580.1275 310.3449C575.339 296.7744 568.8439 281.1008 565.0849 267.512L615.865 267.4573C617.1894 273.9742 646.0189 353.7527 650.7765 367.2524 654.6115 378.1358 659.3947 390.1944 662.4584 401.0505 670.46 429.4233 662.8861 456.0347 644.8654 467.9734 635.4901 474.1846 619.9149 476.3151 608.3637 471.2774 596.5452 466.1232 591.9242 459.1151 584.9413 449.4231" fill="#ffffff" fill-rule="evenodd"/>
<path transform="matrix(1,0,0,-1,0,907.0866)" d="M676.3907 673.5557C679.2457 672.3978 684.7659 672.4712 689.0289 670.4906 707.4448 661.93 705.9356 645.8689 707.6509 642.4231 709.1076 647.191 708.3587 649.9431 710.7392 655.1838 719.0481 673.473 736.4143 672.2844 738.752 673.6881 735.1654 675.0879 717.8139 674.3968 710.4197 692.5657 708.5976 697.0425 708.8967 701.1746 707.6509 704.713 706.9499 703.4159 706.2007 695.8403 704.5526 692.2117 696.4415 674.3503 680.6239 675.1987 676.3907 673.5557" fill="#1a1a18" fill-rule="evenodd"/>
<path transform="matrix(1,0,0,-1,0,907.0866)" d="M782.8985 683.4994C786.5456 695.5829 767.0197 700.7715 764.0555 688.0158 761.3785 676.4984 778.9252 670.3364 782.8985 683.4994" fill="#1a1a18" fill-rule="evenodd"/>
<path transform="matrix(1,0,0,-1,0,907.0866)" d="M643.1913 680.6968C645.2881 669.6505 664.9999 671.8207 662.0219 685.4754 659.5401 696.8546 640.5914 694.3978 643.1913 680.6968" fill="#1a1a18" fill-rule="evenodd"/>
<path transform="matrix(1,0,0,-1,0,907.0866)" d="M739.8014 694.012C740.5622 691.5577 743.8864 689.4726 747.4343 690.5115 749.9506 691.249 751.9861 694.2231 750.9059 697.966 748.9638 704.694 737.257 702.22 739.8014 694.012" fill="#1a1a18" fill-rule="evenodd"/>
<path transform="matrix(1,0,0,-1,0,907.0866)" d="M630.563 660.1005C633.9246 666.2616 624.3086 672.2538 620.7792 665.9478 619.0665 662.8893 620.3843 659.2986 622.7408 658.1356 626.9451 656.0595 630.4918 659.9707 630.563 660.1005" fill="#1a1a18" fill-rule="evenodd"/>
<path transform="matrix(1,0,0,-1,0,907.0866)" d="M812.262 660.4251C808.8817 660.8812 805.9629 660.6048 804.9472 657.701 803.8556 654.582 805.4796 653.1327 807.0605 651.3497 814.8498 650.3621 816.406 655.1714 812.262 660.4251" fill="#1a1a18" fill-rule="evenodd"/>
</g>
</svg>
