<svg xmlns="http://www.w3.org/2000/svg" xmlns:xlink="http://www.w3.org/1999/xlink" xmlns:inkscape="http://www.inkscape.org/namespaces/inkscape" version="1.1" width="1360.6299" height="907.0866" viewBox="0 0 1360.6299 907.0866">
<g inkscape:groupmode="layer" inkscape:label="Layer 1">
<path transform="matrix(1,0,0,-1,0,907.0866)" d="M559.1344 457.6147C566.3169 451.9811 571.0385 447.5452 578.4418 441.0108 594.6148 426.7363 631.3915 404.8957 642.0492 391.2661 592.5643 393.1929 559.925 457.018 559.1344 457.6147ZM864.8093 733.9229C868.4396 735.2853 871.9551 736.3193 875.3791 732.0093 886.7554 717.6883 857.4177 716.2364 864.8093 733.9229ZM712.3654 737.3069 712.7711 730.0352C710.1176 728.4849 709.3295 727.7596 705.2958 727.4801 696.204 734.0343 703.1024 743.9083 712.3654 737.3069ZM675.6018 744.9188C681.7694 746.8569 683.257 744.5041 683.7908 738.9173 677.5736 731.0843 670.375 736.778 675.6018 744.9188ZM782.1249 795.9274C779.6378 820.2841 856.9429 776.6884 853.9098 750.9359 851.7115 732.2726 827.5028 764.6783 800.0504 781.1889 793.98 784.84 782.706 790.2349 782.1249 795.9274ZM637.7839 781.1983 633.0739 791.3381 623.6697 794.289C627.171 800.0527 628.6876 797.8799 632.2249 803.0866 635.5026 807.9117 634.7047 810.7435 637.7839 816.0429 638.0997 815.7725 638.6193 815.8153 638.7338 815.2339 638.8435 814.6763 639.449 814.6261 639.5868 814.3957 642.4438 809.6029 640.7456 809.0921 643.0348 805.6505 645.8468 801.4229 648.6114 802.5486 652.551 798.9282 638.1099 787.4578 645.683 797.4924 639.4473 783.7753 637.6921 779.9153 638.6567 782.3248 637.7839 781.1983ZM749.1736 818.2998C756.9034 825.2453 770.6682 813.119 763.8352 806.4394 758.0154 800.75 740.145 810.1868 749.1736 818.2998ZM624.7193 738.7401C629.9354 735.6291 633.058 720.038 615.8293 706.9448 608.4726 701.3537 591.8624 693.0405 583.2541 689.5318 585.4127 687.4631 583.3281 688.6672 587.6779 687.8146 604.9162 689.2917 626.4386 696.6343 646.8574 698.4635 699.2702 703.1585 781.2153 687.7446 813.4379 652.0229 835.9033 627.1183 845.483 578.9398 821.3632 547.8355 811.4627 535.068 797.9037 525.6811 781.0534 517.6477 761.8034 508.4702 746.8223 506.7697 726.6121 500.4862 723.5456 491.3476 722.6504 480.5563 725.5962 470.9517 727.8968 463.4487 732.5566 448.897 722.5328 445.5034 704.7128 439.4696 713.1399 479.8437 711.663 489.966 710.8072 495.8291 709.6595 495.3574 708.296 496.5891 702.8425 492.8 706.3815 493.1921 703.5814 488.6413 702.0094 486.0867 703.2345 487.758 701.2264 486.2015L694.7617 486.9692 690.9103 493.7516C672.0766 491.2461 654.9778 489.5909 636.3394 488.7343 624.6142 488.196 586.5423 491.5644 582.1067 490.5731 578.6107 476.735 594.3385 460.4751 577.7734 452.594 570.6601 455.3362 569.0684 458.134 568.4445 466.1549 568.9962 490.8512 570.1141 493.8619 558.2197 497.408 545.6639 501.1515 538.4747 505.0877 528.0579 509.0618 528.0537 479.5515 552.9484 444.2726 567.1236 428.2413 577.296 416.7369 617.5647 381.2828 639.6494 379.7561 650.1192 379.9508 663.0111 378.2546 675.3005 378.6463 706.407 379.6376 739.2311 389.2235 766.2699 400.6528 781.8253 407.2283 800.1541 417.6629 812.8123 427.3146 840.1326 448.1453 819.0456 459.8751 828.3169 487.4275 831.9563 486.3209 830.2439 487.5814 832.032 483.9636L835.1314 423.8626C835.1753 402.768 834.5718 381.9047 834.2351 360.8334 833.8501 336.7477 829.8351 350.915 813.4719 318.666 810.373 312.5582 806.2858 302.8586 805.282 294.8737 804.2292 286.4985 805.8351 273.9892 813.765 273.39 814.2588 281.5401 811.842 300.4688 819.3155 303.2243 823.3455 292.1426 811.7921 231.3901 849.117 236.524 844.5274 245.9523 834.0579 267.7448 840.3194 277.1073 845.4297 271.8836 843.1614 257.1934 854.3489 242.8631 862.2232 232.7766 876.5838 229.0079 884.6833 241.1855 881.9821 245.2365 859.3498 267.0248 865.8235 278.5595 873.0604 273.9971 873.1967 256.8725 886.6114 249.6016 902.8154 240.8185 915.3703 252.305 909.6877 269.716 902.154 272.9707 891.9227 272.5271 891.4181 284.3799 891.2021 289.4644 905.3793 317.5849 890.5212 340.5237 882.0893 353.5407 882.0927 345.6 881.7695 366.8491 881.4206 389.8474 877.3804 486.2724 879.7833 499.9861L882.2205 494.9521C892.768 495.9913 904.5249 530.3965 909.1009 536.3898 899.5731 536.4522 900.0363 537.3488 897.5877 539.9408 882.6712 543.7035 863.8441 566.3914 863.6224 583.2967 850.6525 595.6095 860.0666 640.5446 865.8692 654.8066 870.5432 666.2951 876.0543 672.8669 883.8947 678.8571 896.3603 688.3807 904.072 686.046 918.8413 681.5815 914.5193 702.851 890.9073 740.3723 879.8326 754.3865 845.8282 797.4156 796.9133 825.4616 741.1116 837.5312 728.157 840.3335 701.0209 840.1918 691.1963 843.5937 687.6068 844.8361 677.1917 855.0028 661.4116 863.0416 657.6242 864.9711 658.7881 862.9047 657.5579 866.4174 648.4578 864.5717 642.5419 858.5209 639.2849 849.8577 633.6105 834.7649 642.6235 835.522 627.0905 827.6655 611.9484 820.0069 595.679 811.014 585.5545 801.0907 599.1766 800.1686 607.0431 797.6945 607.8084 783.7988 618.7022 782.1454 626.5732 778.0037 628.2292 767.0764 629.2307 760.4694 628.1283 756.8685 625.7523 752.3972 620.1694 741.8906 623.4622 749.0163 624.7193 738.7401" fill="#71b847" fill-rule="evenodd"/>
<path transform="matrix(1,0,0,-1,0,907.0866)" d="M773.4263 71.3015C785.8043 107.9799 850.2724 107.4453 871.1133 79.4863 888.423 56.264 799.7956 39.2873 773.4263 71.3015ZM761.8198 98.9388C761.4363 90.3895 767.2935 70.3602 772.5107 65.0064 798.7555 38.0752 869.1316 47.478 878.5168 68.9822 881.5085 37.982 834.6623 33.3031 806.0808 37.3751 791.562 39.4432 775.7969 45.4757 769.6307 54.6392 764.3514 62.4849 760.3909 87.6801 761.8198 98.9388ZM764.2967 115.9007C766.5557 110.6804 767.6215 103.595 768.875 97.3596L771.6725 81.7696C770.9182 73.8553 771.126 79.1589 769.807 77.5097 767.4483 82.9037 767.6082 90.0493 766.0318 96.0378 764.0206 103.6783 762.0474 107.0444 764.2967 115.9007ZM576.0556 104.3073C572.4918 147.9983 649.9556 156.492 651.5569 96.7507 630.7339 95.3436 590.8311 93.4829 576.0556 104.3073ZM573.537 99.6052C589.3569 95.9783 587.3593 92.0089 616.7639 90.7951 653.1902 89.2922 694.7728 97.5764 727.7233 111.8546 733.9652 114.5594 740.1362 118.4783 745.7803 120.6717 746.6564 103.7438 746.6854 101.1617 715.3534 89.7287 677.8936 76.0601 623.122 65.734 584.7565 79.7873 574.2754 83.6269 573.2555 86.8558 573.537 99.6052ZM789.3604 107.3075C791.7619 116.9212 811.1959 117.9873 819.2985 118.247 828.3424 118.5364 850.8912 118.9542 848.7289 108.1505 838.1798 108.8595 830.8287 111.8401 817.8344 111.1963 808.0929 110.7136 794.7808 103.7095 789.3604 107.3075ZM787.8107 117.7685C789.2473 122.0947 786.4319 119.5387 792.0119 122.6628 803.0072 128.8182 819.9357 129.4268 832.6412 127.9687 840.6014 127.0551 843.7414 127.5548 845.3554 119.9866 832.9161 121.4189 826.7046 123.3298 813.2499 122.3728 803.9089 121.7086 794.2425 115.3134 787.8107 117.7685ZM786.244 126.3249C792.1809 140.3073 820.1339 140.4391 835.2527 135.2523 840.329 133.5101 838.9967 134.5411 841.7543 131.008 799.1728 137.7643 805.6984 128.128 786.244 126.3249ZM784.8261 135.591C785.2711 143.2987 788.2486 144.1029 794.9254 146.7238 809.8971 152.6003 839.2847 152.2429 841.5998 138.7542 830.9477 139.1624 827.2706 143.9855 811.8207 142.7723 800.1828 141.8579 792.0899 136.1707 784.8261 135.591ZM624.9302 146.3148C627.5537 150.8085 630.7807 150.1699 637.6816 149.1599 645.95 147.9495 668.1628 139.4212 667.55 127.1486 656.5538 125.7968 662.8864 129.5943 647.8036 138.2987 641.0228 142.2122 627.9151 144.2591 624.9302 146.3148ZM640.499 154.2121C650.3083 154.8303 657.6537 151.4171 664.8168 147.8407 671.0125 144.7466 680.1741 139.2829 679.4858 131.5582 669.1088 127.4871 674.3149 139.0226 651.9634 148.4391 650.1042 149.2223 648.3291 149.639 646.4064 150.3641 644.5981 151.0464 644.7095 150.7819 643.1893 151.7377 640.8051 153.237 642.0849 152.4226 640.499 154.2121ZM658.6951 155.1881C666.2784 154.6628 670.7684 152.6202 677.0563 149.6313 683.1442 146.7374 688.2403 143.8106 688.7835 137.058 680.0278 134.5893 683.3191 140.1591 675.0853 146.0835 669.9334 149.7903 663.7689 152.1136 658.6951 155.1881ZM651.5223 161.3171C656.9371 167.7969 671.9474 164.2671 679.7829 161.3906 688.1434 158.3215 697.6562 153.8994 697.9198 144.6591 689.1035 142.5169 686.2419 149.8802 676.9624 153.953 663.1963 159.9953 655.0761 158.4978 651.5223 161.3171ZM832.0351 153.0136C825.4494 152.8852 819.7804 154.5803 811.7529 154.0134 804.5337 153.5034 798.9625 151.1708 792.311 151.1257 773.6037 201.3009 829.5352 193.2545 836.3616 179.7661 840.4418 171.7038 834.4511 160.5855 832.0351 153.0136ZM804.8378 102.0546C795.6683 102.1915 780.9599 90.489 775.8079 86.4859 774.7608 88.0557 775.4012 86.6534 774.4558 89.6077L768.2241 119.4248 774.2449 148.0901C781.2454 156.6734 773.3268 143.4005 777.0067 150.8153 773.1139 154.9193 759.4843 166.8574 765.447 176.3274 767.7729 182.0384 767.1815 181.7963 773.2457 184.5709L773.1972 173.4185C784.0242 171.1809 785.34 159.1648 788.1415 149.315 787.9439 148.9884 787.559 148.9229 787.4459 148.405 787.2429 147.4784 782.6888 144.0003 781.5677 140.6483 779.9193 135.7186 782.4166 133.5093 782.7673 128.9735 783.6537 117.5091 785.694 117.9907 785.704 111.0563 785.7094 107.2409 785.0497 108.0536 785.9407 103.6959 790.8457 101.3258 796.5317 100.7836 801.3197 104.2359 839.2714 111.2312 838.9857 101.3581 852.6512 105.6234 854.5697 113.4884 852.389 112.2216 849.9424 117.3484 847.6858 122.076 848.4089 124.8168 846.4 130.1825 841.9119 142.168 850.4416 142.5444 836.0135 150.4253 840.7879 168.3179 845.5646 172.095 845.9668 176.0513 846.0882 177.2447 845.3327 182.3769 845.7259 185.953 861.7453 180.5885 850.9017 161.886 844.6938 155.3159 847.4638 148.6534 845.5586 157.6814 848.2473 148.1264 851.3306 137.1688 848.7343 138.0518 856.7657 120.6196 861.2507 110.8851 869.0046 97.7723 871.1841 87.2583 863.8741 90.2279 865.3788 91.2966 858.5768 95.4703 843.3697 104.8011 822.0532 106.6068 804.8378 102.0546ZM736.8089 164.262C742.4705 158.8825 744.7209 134.0802 744.228 125.4535 737.1601 121.9671 728.1417 116.5649 719.4804 114.4735 714.4055 109.7836 667.7337 97.1266 656.8163 97.8661 655.3783 105.7689 650.8559 118.3941 650.5081 122.4575 643.1026 127.5301 647.7698 129.0155 632.173 139.9518 636.2736 139.7163 638.7077 139.0391 642.3557 137.5089 647.4827 135.3586 648.5703 134.5045 650.9854 130.4453 658.6172 127.6603 655.1019 123.6081 662.0576 122.2486 666.7277 121.3356 666.3268 122.1999 669.1963 123.7983 681.9256 130.8906 675.68 124.3865 682.537 130.0192 684.9173 131.9743 681.7907 130.0949 684.9984 132.1489L694.4655 137.6762C697.9521 140.1143 709.418 142.717 696.725 156.9393 699.4565 163.1075 702.2667 173.0656 705.4526 179.0915 718.4395 181.2481 721.9661 178.2176 735.4576 182.3309L737.5989 190.9732C754.6493 177.4582 739.1835 173.3037 736.8089 164.262ZM655.4072 191.014 656.8515 174.0161C657.3821 166.5692 656.9527 170.926 655.7871 169.2539 651.9898 173.8962 648.5647 187.6178 655.4072 191.014ZM694.48 159.9741C689.4451 161.2522 685.6529 163.9519 679.8617 165.8571 674.1916 167.7223 666.9524 167.9003 661.7395 170.3188 657.1981 191.353 660.8324 207.2667 686.012 200.416 706.9399 194.7217 699.2892 176.8246 694.48 159.9741ZM679.7426 218.3196 679.8294 323.3529 680.1214 354.1178 729.7968 350.3486C731.4253 344.6062 731.8894 222.1566 731.3462 195.7691L729.2999 185.9125 705.5544 185.7866C704.7312 193.8231 702.5553 198.356 696.816 202.32 683.4815 211.5292 679.5794 199.6804 679.7426 218.3196ZM807.9996 326.5815C807.3184 317.8706 797.8978 306.5576 797.1463 291.7199 796.3347 275.7039 802.4621 268.122 814.5295 263.2184 817.1923 237.1263 830.4267 233.5351 834.4519 228.8322 838.8768 226.6021 837.2378 226.2614 837.5975 219.9317L837.7741 188.0779C824.811 193.2469 806.2682 202.1366 789.8873 187.7213 782.7772 181.4641 785.7952 178.4407 781.8089 173.9744 776.5937 177.675 777.8809 176.7044 777.6289 185.184 777.4523 191.1178 777.1842 197.0609 777.2658 203.0162 777.9314 221.6923 773.3733 255.0677 776.444 271.1384 773.062 277.0486 774.1037 346.2435 774.4394 359.1675 794.4049 364.4243 809.9019 370.7694 826.6499 378.379 829.5511 350.3151 822.8866 348.6195 815.2622 336.4398 811.5701 330.5412 812.6779 330.0727 807.9996 326.5815ZM592.776 511.0713C627.6368 513.0383 634.1808 508.9995 681.2915 514.3844L686.4851 508.5218C689.7827 504.9096 688.9513 508.8668 690.2124 501.8766 675.8076 495.6066 606.1827 496.4771 587.2929 498.2366 587.3647 503.1309 587.4381 497.6056 592.776 511.0713ZM557.6553 505.5035C548.2721 507.7576 535.9275 513.428 528.558 518.6755 518.6469 525.7321 514.4329 540.9717 531.8694 543.0529 534.0231 531.862 530.473 530.9209 540.5683 524.6612 547.1813 520.5609 551.7819 519.5186 559.294 517.0986ZM476.0127 579.89C479.1121 587.7624 498.9039 618.4233 504.1721 624.7542 508.0717 605.194 517.947 606.8503 518.5148 596.467 519.315 581.8207 518.8073 570.2698 523.1072 557.61 512.1578 559.2722 482.381 573.4253 476.0127 579.89ZM559.1052 523.3391C546.8675 522.4056 541.3034 532.4939 538.2074 543.3123 535.1284 554.07 531.0711 566.1017 531.9907 577.5106 526.966 584.4249 529.1589 615.2426 531.9459 624.2723 534.9042 633.8563 549.1193 642.7709 557.9195 647.7537 619.7219 682.7477 757.6645 681.9531 796.036 639.1463 810.6789 622.8113 816.2847 584.8997 803.6184 561.0603 792.7328 540.5715 733.9694 525.4089 714.255 525.6726 702.8402 525.8251 703.366 522.6338 694.6741 521.0779 681.0452 518.6378 664.6895 517.3985 649.8485 516.1586 616.9893 513.415 608.6296 514.345 579.6454 518.5261L563.4944 520.7924C557.3458 522.9848 561.496 521.3976 559.1052 523.3391ZM522.2154 614.7884C508.8807 620.1774 516.0767 635.2883 522.2795 641.4231 546.9934 665.8631 565.8032 674.7358 604.605 683.4855 656.4512 695.1756 700.6476 694.5928 750.0407 678.7165 792.1828 665.1709 829.7476 643.3747 827.7951 590.3725 826.069 543.5093 778.9637 519.069 741.3724 512.4484 747.8799 529.1759 733.8314 521.5192 762.3017 530.3795 790.9625 539.2981 817.7238 552.2426 819.9377 585.8289 826.3182 682.6141 679.7503 685.3584 614.3712 672.3794 582.9466 666.1412 558.1278 657.7007 536.2894 637.8795 523.5942 626.3563 525.4835 624.9725 522.2154 614.7884ZM616.1769 738.9213C621.1644 732.5391 617.4513 738.2883 617.9414 734.4181 619.1875 724.5692 609.5979 716.3932 599.1007 713.0733 589.6239 710.0759 570.2105 708.1478 564.9449 702.2676 563.2081 700.3278 559.0006 690.4094 557.331 687.397 542.5472 660.7236 524.7023 668.3292 514.0519 663.9046 518.0128 660.6332 520.0671 661.3296 524.9934 659.4035 524.5829 643.0014 510.7153 650.9251 503.6774 641.939L466.852 582.7816C460.1594 568.4723 463.6457 570.5816 466.1668 569.7927L468.3634 572.7818 488.9662 560.9747 520.7726 546.8842C516.5147 541.5942 509.5361 535.5952 514.0692 523.8221 518.1171 513.3112 516.9203 506.9194 518.4403 494.9478 509.4062 497.9392 503.6618 501.5483 495.6693 505.2736 489.2437 508.2684 480.168 511.0707 476.1374 516.2542 465.1228 517.3087 433.6311 539.5215 426.6711 545.7929 382.7169 585.4003 466.2312 658.6169 471.0643 671.9394 475.3868 683.8529 467.1275 689.726 486.8354 694.8403 489.5345 712.7155 493.7431 724.7843 502.2235 736.4543 509.1905 746.0416 552.0087 779.466 564.2717 786.9577 575.0084 793.5171 597.342 801.3983 601.215 784.2781 597.8937 782.4266 587.5421 779.5576 582.6498 777.4832 576.1939 774.7452 571.1224 771.9432 565.8797 768.7735 559.3853 764.8478 540.3402 754.2573 539.2984 746.6562 545.2427 747.0057 555.2552 756.3515 561.0081 760.2267 567.3988 764.5314 577.1132 769.4949 584.6 772.681 607.3339 782.3571 629.6669 778.877 616.792 751.0099 599.0746 754.5351 590.5803 751.9703 576.1117 744.9908 567.222 740.7023 549.8776 733.1389 547.897 723.9453 549.8172 724.5371 613.7649 766.8814 616.1769 738.9213ZM619.8928 837.4654C604.1069 825.8462 588.6754 823.3053 562.2676 796.4254 555.9489 789.9936 541.2455 782.2806 533.5736 775.5749 528.4894 771.1308 527.3626 768.6153 520.8026 764.3222 515.3647 760.7636 511.2366 758.9911 506.6254 754.4928 489.6476 737.9308 485.8379 729.4759 480.6281 707.1565 478.4576 697.8583 475.6414 701.1266 469.1117 694.5684 461.6402 687.0637 464.8762 686.2859 462.4654 676.1112 461.641 672.6331 435.0702 639.6749 430.7715 634.8509 365.0632 539.8401 434.0789 528.8964 514.4729 486.5539 530.0518 478.3487 522.0207 452.355 574.018 403.5951 594.8878 384.025 632.8806 363.3993 670.9961 356.279L670.6979 207.7112C666.1259 206.5808 662.7342 204.4706 658.9749 203.612 654.4735 197.1054 645.5475 196.8999 644.3527 186.4301 642.7066 171.9944 659.8157 163.8074 630.2049 155.4222 619.8814 152.4991 623.3573 154.7325 618.2802 146.3031L599.0117 144.6148C590.9839 140.559 589.4734 142.4472 582.3048 135.7603 575.5088 129.4203 575.4385 127.5177 571.0629 119.3703 565.0639 92.3658 558.5097 78.2467 590.6086 70.6272 634.2729 60.2623 683.6363 68.4326 723.9886 85.5584 757.0891 99.6069 753.4029 99.2061 750.4648 137.3054 739.9823 181.91 755.1275 165.8475 751.8339 183.6298 751.0949 187.6201 749.0302 189.7373 746.8954 192.3605L744.6501 195.215 739.4672 196.9495 739.3226 352.0786 765.1369 355.5323 768.748 191.3088 761.2265 184.8699C756.6758 177.1384 754.2811 169.3956 759.8679 160.3953 768.327 146.7694 766.7215 153.0479 763.2337 134.3874 748.6243 81.142 747.0332 28.4057 822.316 28.5693 849.3554 28.6274 878.4193 34.579 884.0322 57.3987 887.9502 73.3297 882.7554 75.8458 876.7341 92.7317 872.4158 104.8411 866.7074 114.0055 862.581 125.3032 859.0436 127.5823 856.9602 137.3151 855.6117 142.2967 852.3587 154.3136 852.1648 153.4065 857.8329 161.7951 870.175 180.0618 852.8627 187.1342 846.669 194.3226L846.4215 227.4236C862.755 231.696 855.7418 225.4122 870.4998 224.9566 881.4393 224.6193 888.2062 230.7016 891.3943 238.0209 905.0468 239.6132 911.1413 240.2033 916.4608 248.6758 924.3992 261.3195 918.5649 268.6467 913.462 276.4553L900.6347 280.0191C899.1431 286.6788 902.3732 291.7553 904.9776 297.8269 907.4509 312.1495 908.293 326.3502 900.8694 340.3165 898.1025 345.5215 895.5383 346.9482 893.2425 350.7483 889.5733 356.8212 889.4679 403.2499 888.9928 414.8963 888.2405 433.3538 896.7294 430.9435 914.3045 457.9072 930.7434 483.1277 930.6136 490.4487 937.7952 502.7811 940.8895 516.7151 945.7875 529.9554 947.3009 545.3294 948.0759 553.1956 946.6038 564.5313 947.5072 570.3565 948.5674 577.1937 952.4279 579.8619 952.1042 589.341 950.9581 597.4353 953.7313 593.2896 949.621 600.4602L947.3987 609.0307C947.1549 608.6217 946.9806 608.0445 946.8275 607.7205 943.4514 600.5724 944.5569 602.1476 942.8454 601.7292L943.3063 597.6604 937.7133 578.3822C929.8945 546.8956 900.7438 557.1924 893.5781 583.1195L889.3338 603.7398C885.5651 600.9945 888.1756 604.311 887.1851 599.2628 887.0961 598.8107 887.3271 594.97 887.3408 594.4589 886.6862 587.7136 889.3267 584.9824 889.7142 579.0773 901.0531 567.3189 893.8287 560.7357 917.2134 553.8974 921.706 552.5836 917.8569 553.8762 921.1003 552.346L923.7294 550.5829C913.5989 545.9264 905.4488 537.4675 890.5331 547.5288 881.6621 553.5133 876.515 561.5348 871.3505 572.7322 868.7265 578.3471 865.2844 587.2068 864.7234 594.7186 862.4614 591.9301 863.5 597.6215 863.1062 588.9623 863.0206 587.0786 863.5065 585.635 863.6224 583.2967 863.8441 566.3914 882.6712 543.7035 897.5877 539.9408 908.3959 538.0376 912.4135 537.7346 920.7125 543.0679 927.1806 547.2241 930.1901 552.8483 934.863 555.8786 936.2098 513.7424 907.2561 464.6373 887.5009 444.0226 884.5985 461.3596 886.4433 477.6109 882.2205 494.9521L879.7833 499.9861C877.3804 486.2724 881.4206 389.8474 881.7695 366.8491 882.0927 345.6 882.0893 353.5407 890.5212 340.5237 905.3793 317.5849 891.2021 289.4644 891.4181 284.3799 891.9227 272.5271 902.154 272.9707 909.6877 269.716 915.3703 252.305 902.8154 240.8185 886.6114 249.6016 873.1967 256.8725 873.0604 273.9971 865.8235 278.5595 859.3498 267.0248 881.9821 245.2365 884.6833 241.1855 876.5838 229.0079 862.2232 232.7766 854.3489 242.8631 843.1614 257.1934 845.4297 271.8836 840.3194 277.1073 834.0579 267.7448 844.5274 245.9523 849.117 236.524 811.7921 231.3901 823.3455 292.1426 819.3155 303.2243 811.842 300.4688 814.2588 281.5401 813.765 273.39 805.8351 273.9892 804.2292 286.4985 805.282 294.8737 806.2858 302.8586 810.373 312.5582 813.4719 318.666 829.8351 350.915 833.8501 336.7477 834.2351 360.8334 834.5718 381.9047 835.1753 402.768 835.1314 423.8626L832.032 483.9636C827.3894 485.826 828.5794 485.657 828.4666 476.6119 828.417 472.5941 828.5278 468.4085 828.5695 464.3702L827.8722 392.4031C809.1746 378.8223 768.3766 367.6422 739.3354 364.5808 715.7511 362.0945 662.0241 366.9525 643.3146 376.9296 638.8741 379.2977 641.861 377.2276 639.6494 379.7561 617.5647 381.2828 577.296 416.7369 567.1236 428.2413 552.9484 444.2726 528.0537 479.5515 528.0579 509.0618 538.4747 505.0877 545.6639 501.1515 558.2197 497.408 570.1141 493.8619 568.9962 490.8512 568.4445 466.1549 573.0829 471.1051 568.9706 484.9231 569.554 490.9198 569.2317 504.0428 556.4772 501.2725 562.5439 513.8785 567.8512 518.3804 581.3442 516.0396 588.3707 512.3781 588.7976 500.3484 582.1226 504.7211 579.6164 496.0587 578.0747 491.3493 575.1578 489.892 582.1067 490.5731 586.5423 491.5644 624.6142 488.196 636.3394 488.7343 654.9778 489.5909 672.0766 491.2461 690.9103 493.7516L694.7617 486.9692 701.2264 486.2015 697.8067 490.3654C693.9198 495.4263 696.018 498.9209 693.2594 504.8317 690.4372 510.8786 685.6875 510.6325 687.1377 515.3964L712.7447 521.7335C732.9053 522.2789 726.8729 524.198 732.4716 524.518 736.3678 524.7403 734.1525 524.4494 736.1734 523.9786 738.8152 523.3632 743.993 518.5466 734.1752 511.9999 728.3699 508.1292 726.8746 509.4221 725.4315 503.2726 723.64 497.8454 723.9983 501.6138 726.6121 500.4862 746.8223 506.7697 761.8034 508.4702 781.0534 517.6477 797.9037 525.6811 811.4627 535.068 821.3632 547.8355 845.483 578.9398 835.9033 627.1183 813.4379 652.0229 781.2153 687.7446 699.2702 703.1585 646.8574 698.4635 626.4386 696.6343 604.9162 689.2917 587.6779 687.8146L559.6064 676.9338C561.5501 681.3434 568.1231 695.3766 571.8866 698.2985 582.4678 706.5139 627.8649 702.2361 624.7193 738.7401 623.4622 749.0163 620.1694 741.8906 625.7523 752.3972 628.1283 756.8685 629.2307 760.4694 628.2292 767.0764 626.5732 778.0037 618.7022 782.1454 607.8084 783.7988 607.0431 797.6945 599.1766 800.1686 585.5545 801.0907 595.679 811.014 611.9484 820.0069 627.0905 827.6655 642.6235 835.522 633.6105 834.7649 639.2849 849.8577 642.5419 858.5209 648.4578 864.5717 657.5579 866.4174 676.4871 866.789 677.9415 862.5067 688.5133 854.1357 696.8341 847.5474 712.6197 851.754 724.8574 851.2985 762.8936 849.8829 785.9322 837.1049 793.5471 836.9901L804.7037 836.1037C804.0745 842.7277 803.9441 839.594 801.8084 845.4022 798.6033 845.8325 772.941 855.8028 752.7382 859.6687 726.681 864.6548 700.2814 860.4403 693.159 864.6361 685.7337 869.01 670.5737 886.2313 646.4784 874.2189 622.891 862.4599 632.9673 842.1157 619.8928 837.4654" fill="#010003" fill-rule="evenodd"/>
<path transform="matrix(1,0,0,-1,0,907.0866)" d="M642.2933 537.8825C646.56 541.328 654.5894 542.122 659.8522 537.8825 656.0558 535.7234 646.5481 535.8866 642.2933 537.8825ZM557.856 547.4197 557.9717 561.1039C561.6065 559.3677 560.0177 560.9611 563.3252 557.4623 569.7947 553.6638 566.5266 545.1109 565.0594 540.0224L557.7854 539.2854C552.3347 546.6742 552.1397 554.4746 555.2697 563.3972 556.9971 561.6346 556.4143 564.4236 557.3806 560.3448ZM609.1432 533.3564C614.1223 561.57 704.1679 564.7944 705.9566 538.7457 700.9245 538.9665 700.9078 541.5225 696.4483 543.9852 679.8688 553.1409 647.2885 551.3448 629.1034 545.1545 619.1875 541.7787 616.2644 537.3417 609.1432 533.3564ZM763.4639 573.251 763.5447 586.2844C766.6398 584.8217 768.4792 583.4086 771.1277 582.0094 774.6792 580.106 774.2305 581.7852 774.3025 575.4546 774.4649 561.0529 758.8477 558.4209 758.6819 576.8331 758.5129 595.5463 761.4618 591.1588 763.3471 592.6827ZM551.912 596.6067 555.2722 593.259C556.6623 591.4925 555.8409 592.3103 557.1757 590.0411L559.3003 588.8917C560.1368 581.921 559.6452 581.1041 557.458 576.1346L550.1239 576.4819C543.4407 589.4167 550.0219 599.3592 550.0979 599.8652 550.1682 600.3326 550.5483 600.3757 551.2456 600.734ZM624.5317 632.1898C628.5407 634.5275 628.5212 634.4325 630.1675 638.7976L631.0766 648.0876C637.2258 649.9315 632.4197 647.4093 638.7673 649.1883 640.7708 649.7501 644.9907 651.9668 646.1544 652.8438 647.1592 649.2504 648.0561 646.901 647.9858 641.7383 651.7227 630.3325 668.1101 630.7509 682.0004 629.8251 696.0815 628.8866 711.0621 630.3929 724.5853 628.9883L725.5545 621.8972C722.6022 620.6326 722.484 620.727 720.0981 619.2788 719.7647 608.5446 716.9661 600.2124 712.1869 593.8625 708.2561 588.6408 699.5662 583.3145 691.6737 581.5196 697.9969 576.671 695.3471 581.7849 697.6579 576.6344L695.9871 573.9897C690.8791 563.7767 667.6747 571.9331 655.0583 586.6492 644.021 599.5225 647.5853 628.1782 639.0383 634.1615 638.8668 615.748 639.8391 596.9455 632.7833 583.2309 626.5596 571.1335 604.8354 559.2416 593.8211 568.908 593.7369 573.7082 595.4295 572.4357 596.4406 578.8429 587.8675 581.1588 588.6998 585.4949 575.695 586.7787 574.0271 621.8198 577.226 606.6995 565.1147 613.6994 565.1232 624.2125 584.5725 623.2671 607.8438 629.1014 611.9082 630.1202 619.2014 631.8065 624.5317 632.1898ZM531.9907 577.5106C531.0711 566.1017 535.1284 554.07 538.2074 543.3123 541.3034 532.4939 546.8675 522.4056 559.1052 523.3391 566.5598 523.6322 576.3404 522.5301 583.6487 521.1502 591.395 519.6878 597.3282 519.8956 606.278 519.9412 636.4083 520.0946 667.7983 524.0608 696.6306 528.7141 739.5888 535.6471 784.7969 535.6913 794.0129 579.6541 797.6341 596.9276 794.5398 608.0624 787.7704 620.339 779.8552 634.6933 774.9785 633.9005 762.8304 643.1941L762.6078 633.5033C763.1019 628.6235 764.0853 622.7453 761.5519 618.2328 759.2496 614.1311 753.7266 612.9556 750.8086 616.3226 745.4758 622.4766 749.7986 637.9486 748.5866 645.9089L745.1427 647.7554C733.8234 653.2571 693.3254 657.5729 681.2983 658.1146 634.0414 660.2431 562.7551 651.2321 535.3336 610.2882 528.1149 599.5089 534.911 589.8532 531.9907 577.5106" fill="#ece300" fill-rule="evenodd"/>
<path transform="matrix(1,0,0,-1,0,907.0866)" d="M476.1374 516.2542C480.0036 516.7596 479.1206 519.7099 479.6836 524.4143 480.2868 529.454 480.7902 532.874 482.0261 537.5798 483.9749 545.0012 487.4675 553.8362 488.9662 560.9747L468.3634 572.7818 466.1668 569.7927 463.8883 568.9851C461.7507 569.0594 461.3618 569.2025 460.7532 572.275 458.1437 585.4541 474.2334 615.96 479.2643 625.9096 487.6498 642.4948 500.6245 665.8461 513.633 672.6603 524.0356 678.109 531.9102 682.3449 539.3313 688.8827 542.4945 691.6694 547.0325 695.4897 550.0772 699.1515 561.9864 713.4769 565.8273 716.3966 587.3533 721.8147 609.9659 727.5064 608.178 731.4157 615.3497 733.4427L616.1769 738.9213C613.7649 766.8814 549.8172 724.5371 547.897 723.9453 549.8776 733.1389 567.222 740.7023 576.1117 744.9908 590.5803 751.9703 599.0746 754.5351 616.792 751.0099 629.6669 778.877 607.3339 782.3571 584.6 772.681 577.1132 769.4949 567.3988 764.5314 561.0081 760.2267 555.2552 756.3515 545.2427 747.0057 539.2984 746.6562 540.3402 754.2573 559.3853 764.8478 565.8797 768.7735 571.1224 771.9432 576.1939 774.7452 582.6498 777.4832 587.5421 779.5576 597.8937 782.4266 601.215 784.2781 597.342 801.3983 575.0084 793.5171 564.2717 786.9577 552.0087 779.466 509.1905 746.0416 502.2235 736.4543 493.7431 724.7843 489.5345 712.7155 486.8354 694.8403 467.1275 689.726 475.3868 683.8529 471.0643 671.9394 466.2312 658.6169 382.7169 585.4003 426.6711 545.7929 433.6311 539.5215 465.1228 517.3087 476.1374 516.2542" fill="#71b847" fill-rule="evenodd"/>
<path transform="matrix(1,0,0,-1,0,907.0866)" d="M531.9907 577.5106C534.911 589.8532 528.1149 599.5089 535.3336 610.2882 562.7551 651.2321 634.0414 660.2431 681.2983 658.1146 693.3254 657.5729 733.8234 653.2571 745.1427 647.7554L748.5866 645.9089C747.9156 653.6798 747.7719 648.8053 750.3797 650.4653 752.5335 645.7793 752.7694 640.3663 752.3631 633.9779L754.4614 646.4069 762.8304 643.1941C774.9785 633.9005 779.8552 634.6933 787.7704 620.339 794.5398 608.0624 797.6341 596.9276 794.0129 579.6541 784.7969 535.6913 739.5888 535.6471 696.6306 528.7141 667.7983 524.0608 636.4083 520.0946 606.278 519.9412 597.3282 519.8956 591.395 519.6878 583.6487 521.1502 576.3404 522.5301 566.5598 523.6322 559.1052 523.3391 561.496 521.3976 557.3458 522.9848 563.4944 520.7924L579.6454 518.5261C608.6296 514.345 616.9893 513.415 649.8485 516.1586 664.6895 517.3985 681.0452 518.6378 694.6741 521.0779 703.366 522.6338 702.8402 525.8251 714.255 525.6726 733.9694 525.4089 792.7328 540.5715 803.6184 561.0603 816.2847 584.8997 810.6789 622.8113 796.036 639.1463 757.6645 681.9531 619.7219 682.7477 557.9195 647.7537 549.1193 642.7709 534.9042 633.8563 531.9459 624.2723 529.1589 615.2426 526.966 584.4249 531.9907 577.5106" fill="#d0b116" fill-rule="evenodd"/>
<path transform="matrix(1,0,0,-1,0,907.0866)" d="M679.7426 218.3196C685.3524 215.2409 696.46 215.1422 702.942 211.4212 709.1867 207.8365 712.0329 203.0238 717.0372 197.4728L729.5494 198.8306C730.2376 227.2433 729.9981 257.3603 728.8792 285.9094 727.4656 321.9866 687.7505 326.6476 679.8294 323.3529Z" fill="#71b847" fill-rule="evenodd"/>
<path transform="matrix(1,0,0,-1,0,907.0866)" d="M522.2154 614.7884C525.4835 624.9725 523.5942 626.3563 536.2894 637.8795 558.1278 657.7007 582.9466 666.1412 614.3712 672.3794 679.7503 685.3584 826.3182 682.6141 819.9377 585.8289 817.7238 552.2426 790.9625 539.2981 762.3017 530.3795 733.8314 521.5192 747.8799 529.1759 741.3724 512.4484 778.9637 519.069 826.069 543.5093 827.7951 590.3725 829.7476 643.3747 792.1828 665.1709 750.0407 678.7165 700.6476 694.5928 656.4512 695.1756 604.605 683.4855 565.8032 674.7358 546.9934 665.8631 522.2795 641.4231 516.0767 635.2883 508.8807 620.1774 522.2154 614.7884" fill="#cbdc89" fill-rule="evenodd"/>
<path transform="matrix(1,0,0,-1,0,907.0866)" d="M793.5471 836.9901C796.5743 834.105 822.113 822.3744 839.1064 809.7106 854.7854 798.0262 863.9708 788.8881 876.2964 774.8986 894.5768 754.151 919.3717 706.6539 922.354 679.5609L918.8413 681.5815C904.072 686.046 896.3603 688.3807 883.8947 678.8571 876.0543 672.8669 870.5432 666.2951 865.8692 654.8066 860.0666 640.5446 850.6525 595.6095 863.6224 583.2967 863.5065 585.635 863.0206 587.0786 863.1062 588.9623 863.5 597.6215 862.4614 591.9301 864.7234 594.7186 863.4957 609.2161 862.8129 629.3871 866.935 643.2038 868.7117 649.1597 872.5218 657.3756 875.3301 661.8702 879.3686 668.3329 882.2231 673.8814 888.1926 676.4238 901.7566 683.4047 908.4438 679.2718 919.9522 674.2902 916.7882 672.6705 918.3728 673.6314 914.4992 672.3734 911.6283 671.4408 910.2815 670.854 907.6173 669.6921 900.7308 664.0458 900.2761 665.5272 894.9815 657.1817 892.1755 652.7582 889.02 646.0067 887.129 639.4198 885.2632 632.9228 884.1776 624.6471 884.0061 617.4128L887.3408 594.4589C887.3271 594.97 887.0961 598.8107 887.1851 599.2628 888.1756 604.311 885.5651 600.9945 889.3338 603.7398 888.5361 618.0086 888.1432 626.9275 892.4774 640.4094 896.1962 651.9753 902.2859 661.926 909.5933 665.5051 935.6426 679.7463 946.4856 624.2 942.8454 601.7292 944.5569 602.1476 943.4514 600.5724 946.8275 607.7205 946.9806 608.0445 947.1549 608.6217 947.3987 609.0307L949.621 600.4602C953.7313 593.2896 950.9581 597.4353 952.1042 589.341 954.4876 592.0421 954.5978 592.8883 955.2849 600.1166 959.5585 645.0817 940.4118 662.3019 937.5024 670.8759 933.0517 683.9904 930.9662 698.6069 926.0393 712.0576 901.8556 778.0822 862.3474 815.5298 801.8084 845.4022 803.9441 839.594 804.0745 842.7277 804.7037 836.1037Z" fill="#1a1a18" fill-rule="evenodd"/>
<path transform="matrix(1,0,0,-1,0,907.0866)" d="M639.6494 379.7561C641.861 377.2276 638.8741 379.2977 643.3146 376.9296 662.0241 366.9525 715.7511 362.0945 739.3354 364.5808 768.3766 367.6422 809.1746 378.8223 827.8722 392.4031L828.5695 464.3702C828.5278 468.4085 828.417 472.5941 828.4666 476.6119 828.5794 485.657 827.3894 485.826 832.032 483.9636 830.2439 487.5814 831.9563 486.3209 828.3169 487.4275 819.0456 459.8751 840.1326 448.1453 812.8123 427.3146 800.1541 417.6629 781.8253 407.2283 766.2699 400.6528 739.2311 389.2235 706.407 379.6376 675.3005 378.6463 663.0111 378.2546 650.1192 379.9508 639.6494 379.7561" fill="#4e9944" fill-rule="evenodd"/>
<path transform="matrix(1,0,0,-1,0,907.0866)" d="M776.444 271.1384C773.3733 255.0677 777.9314 221.6923 777.2658 203.0162 778.8336 200.0234 777.4863 206.0921 778.7979 198.851 779.3923 195.5701 779.1925 195.6197 779.1352 192.2803 785.9313 196.4027 797.2002 205.6391 804.8279 207.1811 821.84 210.6215 826.8106 203.9525 836.6292 198.487 837.1945 206.9464 837.2157 221.3436 834.4519 228.8322 830.4267 233.5351 817.1923 237.1263 814.5295 263.2184 802.4621 268.122 796.3347 275.7039 797.1463 291.7199 797.8978 306.5576 807.3184 317.8706 807.9996 326.5815 804.2992 329.1809 805.9397 325.9823 793.4834 320.5933 787.6321 318.062 782.3761 316.0928 779.2534 312.5049 773.303 305.6683 779.0522 281.9852 776.444 271.1384" fill="#71b847" fill-rule="evenodd"/>
<path transform="matrix(1,0,0,-1,0,907.0866)" d="M918.8413 681.5815 922.354 679.5609C919.3717 706.6539 894.5768 754.151 876.2964 774.8986 863.9708 788.8881 854.7854 798.0262 839.1064 809.7106 822.113 822.3744 796.5743 834.105 793.5471 836.9901 785.9322 837.1049 762.8936 849.8829 724.8574 851.2985 712.6197 851.754 696.8341 847.5474 688.5133 854.1357 677.9415 862.5067 676.4871 866.789 657.5579 866.4174 658.7881 862.9047 657.6242 864.9711 661.4116 863.0416 677.1917 855.0028 687.6068 844.8361 691.1963 843.5937 701.0209 840.1918 728.157 840.3335 741.1116 837.5312 796.9133 825.4616 845.8282 797.4156 879.8326 754.3865 890.9073 740.3723 914.5193 702.851 918.8413 681.5815" fill="#fdfefe" fill-rule="evenodd"/>
<path transform="matrix(1,0,0,-1,0,907.0866)" d="M773.4263 71.3015C799.7956 39.2873 888.423 56.264 871.1133 79.4863 850.2724 107.4453 785.8043 107.9799 773.4263 71.3015" fill="#fdfefe" fill-rule="evenodd"/>
<path transform="matrix(1,0,0,-1,0,907.0866)" d="M650.9854 130.4453C648.0085 127.6849 649.4165 126.7685 650.5081 122.4575 650.8559 118.3941 655.3783 105.7689 656.8163 97.8661 667.7337 97.1266 714.4055 109.7836 719.4804 114.4735 720.1981 130.2233 719.8367 134.8869 723.5864 140.0029 725.7756 146.1141 728.6505 149.8657 729.8555 154.1313 731.7814 159.9956 729.1298 153.7892 731.7652 157.3685 731.9679 157.6443 733.7426 159.5529 734.0153 159.8706 735.6623 161.7902 736.0713 162.1327 736.8089 164.262 739.1835 173.3037 754.6493 177.4582 737.5989 190.9732L735.4576 182.3309C721.9661 178.2176 718.4395 181.2481 705.4526 179.0915 702.2667 173.0656 699.4565 163.1075 696.725 156.9393 709.418 142.717 697.9521 140.1143 694.4655 137.6762L684.9984 132.1489C681.7907 130.0949 684.9173 131.9743 682.537 130.0192 675.68 124.3865 681.9256 130.8906 669.1963 123.7983 666.3268 122.1999 666.7277 121.3356 662.0576 122.2486 655.1019 123.6081 658.6172 127.6603 650.9854 130.4453" fill="#ece300" fill-rule="evenodd"/>
<path transform="matrix(1,0,0,-1,0,907.0866)" d="M889.3338 603.7398 893.5781 583.1195 896.9513 584.0345C901.8672 571.1876 915.5948 567.0017 927.4876 570.8682 934.7426 573.2269 932.0128 573.5707 937.7133 578.3822L943.3063 597.6604 940.3308 606.6964C939.6298 613.3856 938.5923 627.7992 934.7924 633.1292 935.4402 620.3336 937.3039 610.7723 927.3345 605.2893 917.3653 606.4424 915.0372 615.602 914.9386 626.3762 914.838 637.4293 916.3786 647.1763 927.3866 647.0785 921.4773 654.1123 921.3072 655.4282 914.2662 661.1227L909.5933 665.5051C902.2859 661.926 896.1962 651.9753 892.4774 640.4094 888.1432 626.9275 888.5361 618.0086 889.3338 603.7398" fill="#71b847" fill-rule="evenodd"/>
<path transform="matrix(1,0,0,-1,0,907.0866)" d="M466.1668 569.7927C463.6457 570.5816 460.1594 568.4723 466.852 582.7816L503.6774 641.939C510.7153 650.9251 524.5829 643.0014 524.9934 659.4035 520.0671 661.3296 518.0128 660.6332 514.0519 663.9046 524.7023 668.3292 542.5472 660.7236 557.331 687.397 559.0006 690.4094 563.2081 700.3278 564.9449 702.2676 570.2105 708.1478 589.6239 710.0759 599.1007 713.0733 609.5979 716.3932 619.1875 724.5692 617.9414 734.4181 617.4513 738.2883 621.1644 732.5391 616.1769 738.9213L615.3497 733.4427C608.178 731.4157 609.9659 727.5064 587.3533 721.8147 565.8273 716.3966 561.9864 713.4769 550.0772 699.1515 547.0325 695.4897 542.4945 691.6694 539.3313 688.8827 531.9102 682.3449 524.0356 678.109 513.633 672.6603 500.6245 665.8461 487.6498 642.4948 479.2643 625.9096 474.2334 615.96 458.1437 585.4541 460.7532 572.275 461.3618 569.2025 461.7507 569.0594 463.8883 568.9851Z" fill="#4e9944" fill-rule="evenodd"/>
<path transform="matrix(1,0,0,-1,0,907.0866)" d="M679.8294 323.3529C687.7505 326.6476 727.4656 321.9866 728.8792 285.9094 729.9981 257.3603 730.2376 227.2433 729.5494 198.8306L717.0372 197.4728C712.0329 203.0238 709.1867 207.8365 702.942 211.4212 696.46 215.1422 685.3524 215.2409 679.7426 218.3196 679.5794 199.6804 683.4815 211.5292 696.816 202.32 702.5553 198.356 704.7312 193.8231 705.5544 185.7866L729.2999 185.9125 731.3462 195.7691C731.8894 222.1566 731.4253 344.6062 729.7968 350.3486L680.1214 354.1178Z" fill="#4e9944" fill-rule="evenodd"/>
<path transform="matrix(1,0,0,-1,0,907.0866)" d="M672.7689 86.3039C676.8958 90.3146 701.0413 95.1738 708.6779 97.8642 717.6694 101.031 735.4338 110.7071 742.3934 111.6828 738.5321 101.0242 679.4512 83.3097 672.7689 86.3039ZM573.537 99.6052C573.2555 86.8558 574.2754 83.6269 584.7565 79.7873 623.122 65.734 677.8936 76.0601 715.3534 89.7287 746.6854 101.1617 746.6564 103.7438 745.7803 120.6717 740.1362 118.4783 733.9652 114.5594 727.7233 111.8546 694.7728 97.5764 653.1902 89.2922 616.7639 90.7951 587.3593 92.0089 589.3569 95.9783 573.537 99.6052" fill="#fdfefe" fill-rule="evenodd"/>
<path transform="matrix(1,0,0,-1,0,907.0866)" d="M576.0556 104.3073C590.8311 93.4829 630.7339 95.3436 651.5569 96.7507 649.9556 156.492 572.4918 147.9983 576.0556 104.3073" fill="#fdfefe" fill-rule="evenodd"/>
<path transform="matrix(1,0,0,-1,0,907.0866)" d="M897.5877 539.9408C900.0363 537.3488 899.5731 536.4522 909.1009 536.3898 904.5249 530.3965 892.768 495.9913 882.2205 494.9521 886.4433 477.6109 884.5985 461.3596 887.5009 444.0226 907.2561 464.6373 936.2098 513.7424 934.863 555.8786 930.1901 552.8483 927.1806 547.2241 920.7125 543.0679 912.4135 537.7346 908.3959 538.0376 897.5877 539.9408" fill="#4e9944" fill-rule="evenodd"/>
<path transform="matrix(1,0,0,-1,0,907.0866)" d="M776.444 271.1384C779.0522 281.9852 773.303 305.6683 779.2534 312.5049 782.3761 316.0928 787.6321 318.062 793.4834 320.5933 805.9397 325.9823 804.2992 329.1809 807.9996 326.5815 812.6779 330.0727 811.5701 330.5412 815.2622 336.4398 822.8866 348.6195 829.5511 350.3151 826.6499 378.379 809.9019 370.7694 794.4049 364.4243 774.4394 359.1675 774.1037 346.2435 773.062 277.0486 776.444 271.1384" fill="#4e9944" fill-rule="evenodd"/>
<path transform="matrix(1,0,0,-1,0,907.0866)" d="M864.7234 594.7186C865.2844 587.2068 868.7265 578.3471 871.3505 572.7322 874.6336 571.3424 878.3657 570.0339 883.5429 571.0277 891.2293 572.5029 890.0969 573.3377 889.7142 579.0773 889.3267 584.9824 886.6862 587.7136 887.3408 594.4589L884.0061 617.4128C884.1776 624.6471 885.2632 632.9228 887.129 639.4198 889.02 646.0067 892.1755 652.7582 894.9815 657.1817 900.2761 665.5272 900.7308 664.0458 907.6173 669.6921 901.2334 670.0615 903.1768 671.5182 897.8261 672.9418 896.0236 673.4211 893.5744 673.422 892.7986 673.6408 887.7662 675.0629 890.223 671.9176 888.1926 676.4238 882.2231 673.8814 879.3686 668.3329 875.3301 661.8702 872.5218 657.3756 868.7117 649.1597 866.935 643.2038 862.8129 629.3871 863.4957 609.2161 864.7234 594.7186" fill="#71b847" fill-rule="evenodd"/>
<path transform="matrix(1,0,0,-1,0,907.0866)" d="M655.8602 608.5681C678.3418 590.5979 681.7178 621.7024 682.7919 623.5673L712.7274 622.7439C713.5529 584.3815 669.0314 578.9755 655.8602 608.5681ZM695.9871 573.9897 697.6579 576.6344C683.35 576.3455 669.9447 580.2364 663.5877 589.7191 692.4291 573.1089 716.7053 590.5672 718.253 621.8972L724.8288 624.937 724.5853 628.9883C711.0621 630.3929 696.0815 628.8866 682.0004 629.8251 668.1101 630.7509 651.7227 630.3325 647.9858 641.7383L646.2159 648.4861C638.9986 638.2536 646.6876 643.6312 647.1621 621.9814 647.303 615.5728 651.3205 601.4276 653.2625 595.5148 657.1956 583.5399 677.7102 570.221 695.9871 573.9897" fill="#010003" fill-rule="evenodd"/>
<path transform="matrix(1,0,0,-1,0,907.0866)" d="M476.1374 516.2542C480.168 511.0707 489.2437 508.2684 495.6693 505.2736 503.6618 501.5483 509.4062 497.9392 518.4403 494.9478 516.9203 506.9194 518.1171 513.3112 514.0692 523.8221 509.5361 535.5952 516.5147 541.5942 520.7726 546.8842L488.9662 560.9747C487.4675 553.8362 483.9749 545.0012 482.0261 537.5798 480.7902 532.874 480.2868 529.454 479.6836 524.4143 479.1206 519.7099 480.0036 516.7596 476.1374 516.2542" fill="#4e9944" fill-rule="evenodd"/>
<path transform="matrix(1,0,0,-1,0,907.0866)" d="M583.9021 606.8849C596.5634 596.1217 611.5683 596.3431 611.0515 620.1043 619.8729 622.2359 627.3116 626.8643 631.1648 627.6643 636.9659 578.825 587.74 575.5703 583.9021 606.8849ZM630.1675 638.7976C628.5212 634.4325 628.5407 634.5275 624.5317 632.1898 612.2648 622.3331 579.5819 624.4733 570.7993 617.3966 573.302 611.1493 571.578 617.0411 577.2787 612.8955 579.2936 599.6305 582.3839 590.8694 591.6277 584.7537 604.4108 576.2962 613.4905 581.485 624.511 586.5823 622.5287 581.694 619.3789 578.2462 614.1146 575.0198 611.1694 573.2144 610.0707 573.0012 606.7219 572.1721L599.0448 569.3882C614.702 564.2039 630.3966 580.3648 632.935 592.3528 634.4005 599.2733 637.3018 612.0051 637.0503 618.9197 637.007 620.1125 634.7974 643.9156 634.7835 643.9569 628.7734 642.765 633.6437 644.6795 630.1675 638.7976" fill="#010003" fill-rule="evenodd"/>
<path transform="matrix(1,0,0,-1,0,907.0866)" d="M800.0504 781.1889C827.5028 764.6783 851.7115 732.2726 853.9098 750.9359 856.9429 776.6884 779.6378 820.2841 782.1249 795.9274 782.706 790.2349 793.98 784.84 800.0504 781.1889" fill="#fdfefe" fill-rule="evenodd"/>
<path transform="matrix(1,0,0,-1,0,907.0866)" d="M878.5168 68.9822C869.1316 47.478 798.7555 38.0752 772.5107 65.0064 767.2935 70.3602 761.4363 90.3895 761.8198 98.9388 760.3909 87.6801 764.3514 62.4849 769.6307 54.6392 775.7969 45.4757 791.562 39.4432 806.0808 37.3751 834.6623 33.3031 881.5085 37.982 878.5168 68.9822" fill="#fdfefe" fill-rule="evenodd"/>
<path transform="matrix(1,0,0,-1,0,907.0866)" d="M592.776 511.0713C587.4381 497.6056 587.3647 503.1309 587.2929 498.2366 606.1827 496.4771 675.8076 495.6066 690.2124 501.8766 688.9513 508.8668 689.7827 504.9096 686.4851 508.5218L681.2915 514.3844C634.1808 508.9995 627.6368 513.0383 592.776 511.0713" fill="#cbdc89" fill-rule="evenodd"/>
<path transform="matrix(1,0,0,-1,0,907.0866)" d="M630.1675 638.7976C633.6437 644.6795 628.7734 642.765 634.7835 643.9569 634.7974 643.9156 637.007 620.1125 637.0503 618.9197 637.3018 612.0051 634.4005 599.2733 632.935 592.3528 630.3966 580.3648 614.702 564.2039 599.0448 569.3882L606.7219 572.1721C610.0707 573.0012 611.1694 573.2144 614.1146 575.0198 619.3789 578.2462 622.5287 581.694 624.511 586.5823 613.4905 581.485 604.4108 576.2962 591.6277 584.7537 582.3839 590.8694 579.2936 599.6305 577.2787 612.8955 571.578 617.0411 573.302 611.1493 570.7993 617.3966 579.5819 624.4733 612.2648 622.3331 624.5317 632.1898 619.2014 631.8065 611.9082 630.1202 607.8438 629.1014 584.5725 623.2671 565.1232 624.2125 565.1147 613.6994 577.226 606.6995 574.0271 621.8198 575.695 586.7787 588.6998 585.4949 587.8675 581.1588 596.4406 578.8429 595.4295 572.4357 593.7369 573.7082 593.8211 568.908 604.8354 559.2416 626.5596 571.1335 632.7833 583.2309 639.8391 596.9455 638.8668 615.748 639.0383 634.1615 647.5853 628.1782 644.021 599.5225 655.0583 586.6492 667.6747 571.9331 690.8791 563.7767 695.9871 573.9897 677.7102 570.221 657.1956 583.5399 653.2625 595.5148 651.3205 601.4276 647.303 615.5728 647.1621 621.9814 646.6876 643.6312 638.9986 638.2536 646.2159 648.4861L647.9858 641.7383C648.0561 646.901 647.1592 649.2504 646.1544 652.8438 644.9907 651.9668 640.7708 649.7501 638.7673 649.1883 632.4197 647.4093 637.2258 649.9315 631.0766 648.0876Z" fill="#e1e048" fill-rule="evenodd"/>
<path transform="matrix(1,0,0,-1,0,907.0866)" d="M697.8067 490.3654C703.5599 492.9083 698.9391 495.0386 704.8111 500.8294 726.5066 504.4711 706.5054 456.9625 720.2982 449.5507 729.9139 454.0637 722.9679 465.9004 721.4063 474.3567L721.7294 497.4369C722.9066 501.9012 723.3962 501.6155 725.4315 503.2726 726.8746 509.4221 728.3699 508.1292 734.1752 511.9999 743.993 518.5466 738.8152 523.3632 736.1734 523.9786 734.1525 524.4494 736.3678 524.7403 732.4716 524.518 726.8729 524.198 732.9053 522.2789 712.7447 521.7335L687.1377 515.3964C685.6875 510.6325 690.4372 510.8786 693.2594 504.8317 696.018 498.9209 693.9198 495.4263 697.8067 490.3654" fill="#aadadd" fill-rule="evenodd"/>
<path transform="matrix(1,0,0,-1,0,907.0866)" d="M694.48 159.9741C699.2892 176.8246 706.9399 194.7217 686.012 200.416 660.8324 207.2667 657.1981 191.353 661.7395 170.3188 666.9524 167.9003 674.1916 167.7223 679.8617 165.8571 685.6529 163.9519 689.4451 161.2522 694.48 159.9741" fill="#ece300" fill-rule="evenodd"/>
<path transform="matrix(1,0,0,-1,0,907.0866)" d="M804.8378 102.0546C798.4284 100.027 803.0633 101.4299 801.3197 104.2359 796.5317 100.7836 790.8457 101.3258 785.9407 103.6959 785.0497 108.0536 785.7094 107.2409 785.704 111.0563 785.694 117.9907 783.6537 117.5091 782.7673 128.9735 782.4166 133.5093 779.9193 135.7186 781.5677 140.6483 782.6888 144.0003 787.2429 147.4784 787.4459 148.405 787.559 148.9229 787.9439 148.9884 788.1415 149.315 785.34 159.1648 784.0242 171.1809 773.1972 173.4185 770.5366 174.3885 767.626 174.998 765.447 176.3274 759.4843 166.8574 773.1139 154.9193 777.0067 150.8153 773.3268 143.4005 781.2454 156.6734 774.2449 148.0901L768.2241 119.4248 774.4558 89.6077C775.4012 86.6534 774.7608 88.0557 775.8079 86.4859 780.9599 90.489 795.6683 102.1915 804.8378 102.0546" fill="#ece300" fill-rule="evenodd"/>
<path transform="matrix(1,0,0,-1,0,907.0866)" d="M793.362 154.8473C813.8373 156.2876 808.2071 156.7636 830.5645 156.1453 831.2913 162.9893 843.7175 187.9951 811.8539 186.9996 804.5025 186.77 796.1511 183.9949 792.6279 178.8866 790.6467 176.0145 789.8856 172.1602 790.0322 167.3036 790.2468 160.1935 791.6692 160.4571 793.362 154.8473" fill="#ece300" fill-rule="evenodd"/>
<path transform="matrix(1,0,0,-1,0,907.0866)" d="M655.8602 608.5681C669.0314 578.9755 713.5529 584.3815 712.7274 622.7439L682.7919 623.5673C681.7178 621.7024 678.3418 590.5979 655.8602 608.5681" fill="#fdfefe" fill-rule="evenodd"/>
<path transform="matrix(1,0,0,-1,0,907.0866)" d="M559.1344 457.6147C559.925 457.018 592.5643 393.1929 642.0492 391.2661 631.3915 404.8957 594.6148 426.7363 578.4418 441.0108 571.0385 447.5452 566.3169 451.9811 559.1344 457.6147" fill="#fdfefe" fill-rule="evenodd"/>
<path transform="matrix(1,0,0,-1,0,907.0866)" d="M801.3197 104.2359C803.0633 101.4299 798.4284 100.027 804.8378 102.0546 822.0532 106.6068 843.3697 104.8011 858.5768 95.4703 865.3788 91.2966 863.8741 90.2279 871.1841 87.2583 869.0046 97.7723 861.2507 110.8851 856.7657 120.6196 848.7343 138.0518 851.3306 137.1688 848.2473 148.1264 845.5586 157.6814 847.4638 148.6534 844.6938 155.3159 850.9017 161.886 861.7453 180.5885 845.7259 185.953 845.3327 182.3769 846.0882 177.2447 845.9668 176.0513 845.5646 172.095 840.7879 168.3179 836.0135 150.4253 850.4416 142.5444 841.9119 142.168 846.4 130.1825 848.4089 124.8168 847.6858 122.076 849.9424 117.3484 852.389 112.2216 854.5697 113.4884 852.6512 105.6234 838.9857 101.3581 839.2714 111.2312 801.3197 104.2359" fill="#d0b116" fill-rule="evenodd"/>
<path transform="matrix(1,0,0,-1,0,907.0866)" d="M583.9021 606.8849C587.74 575.5703 636.9659 578.825 631.1648 627.6643 627.3116 626.8643 619.8729 622.2359 611.0515 620.1043 611.5683 596.3431 596.5634 596.1217 583.9021 606.8849" fill="#fdfefe" fill-rule="evenodd"/>
<path transform="matrix(1,0,0,-1,0,907.0866)" d="M777.2658 203.0162C777.1842 197.0609 777.4523 191.1178 777.6289 185.184 777.8809 176.7044 776.5937 177.675 781.8089 173.9744 785.7952 178.4407 782.7772 181.4641 789.8873 187.7213 806.2682 202.1366 824.811 193.2469 837.7741 188.0779L837.5975 219.9317C837.2378 226.2614 838.8768 226.6021 834.4519 228.8322 837.2157 221.3436 837.1945 206.9464 836.6292 198.487 826.8106 203.9525 821.84 210.6215 804.8279 207.1811 797.2002 205.6391 785.9313 196.4027 779.1352 192.2803 779.1925 195.6197 779.3923 195.5701 778.7979 198.851 777.4863 206.0921 778.8336 200.0234 777.2658 203.0162" fill="#4e9944" fill-rule="evenodd"/>
<path transform="matrix(1,0,0,-1,0,907.0866)" d="M587.6779 687.8146C583.3281 688.6672 585.4127 687.4631 583.2541 689.5318 591.8624 693.0405 608.4726 701.3537 615.8293 706.9448 633.058 720.038 629.9354 735.6291 624.7193 738.7401 627.8649 702.2361 582.4678 706.5139 571.8866 698.2985 568.1231 695.3766 561.5501 681.3434 559.6064 676.9338Z" fill="#4e9944" fill-rule="evenodd"/>
<path transform="matrix(1,0,0,-1,0,907.0866)" d="M871.3505 572.7322C876.515 561.5348 881.6621 553.5133 890.5331 547.5288 905.4488 537.4675 913.5989 545.9264 923.7294 550.5829L921.1003 552.346C917.8569 553.8762 921.706 552.5836 917.2134 553.8974 893.8287 560.7357 901.0531 567.3189 889.7142 579.0773 890.0969 573.3377 891.2293 572.5029 883.5429 571.0277 878.3657 570.0339 874.6336 571.3424 871.3505 572.7322" fill="#4e9944" fill-rule="evenodd"/>
<path transform="matrix(1,0,0,-1,0,907.0866)" d="M729.8555 154.1313C732.6323 151.3434 733.4291 158.9182 727.5345 142.0832 726.1393 138.0986 725.3379 133.77 723.5867 129.9039L723.5864 140.0029C719.8367 134.8869 720.1981 130.2233 719.4804 114.4735 728.1417 116.5649 737.1601 121.9671 744.228 125.4535 744.7209 134.0802 742.4705 158.8825 736.8089 164.262 736.0713 162.1327 735.6623 161.7902 734.0153 159.8706 733.7426 159.5529 731.9679 157.6443 731.7652 157.3685 729.1298 153.7892 731.7814 159.9956 729.8555 154.1313" fill="#d0b116" fill-rule="evenodd"/>
<path transform="matrix(1,0,0,-1,0,907.0866)" d="M569.554 490.9198C577.427 486.6041 565.041 459.0632 579.0864 457.3128 584.5666 466.8554 578.0157 475.3757 577.0534 485.3177 576.0663 495.5156 578.5801 494.9892 579.6164 496.0587 582.1226 504.7211 588.7976 500.3484 588.3707 512.3781 581.3442 516.0396 567.8512 518.3804 562.5439 513.8785 556.4772 501.2725 569.2317 504.0428 569.554 490.9198" fill="#aadadd" fill-rule="evenodd"/>
<path transform="matrix(1,0,0,-1,0,907.0866)" d="M609.1432 533.3564C616.2644 537.3417 619.1875 541.7787 629.1034 545.1545 647.2885 551.3448 679.8688 553.1409 696.4483 543.9852 700.9078 541.5225 700.9245 538.9665 705.9566 538.7457 704.1679 564.7944 614.1223 561.57 609.1432 533.3564" fill="#010003" fill-rule="evenodd"/>
<path transform="matrix(1,0,0,-1,0,907.0866)" d="M557.6553 505.5035 559.294 517.0986C551.7819 519.5186 547.1813 520.5609 540.5683 524.6612 530.473 530.9209 534.0231 531.862 531.8694 543.0529 514.4329 540.9717 518.6469 525.7321 528.558 518.6755 535.9275 513.428 548.2721 507.7576 557.6553 505.5035" fill="#cbdc89" fill-rule="evenodd"/>
<path transform="matrix(1,0,0,-1,0,907.0866)" d="M909.5933 665.5051 914.2662 661.1227C921.3072 655.4282 921.4773 654.1123 927.3866 647.0785 931.5145 643.231 933.3791 639.5516 934.7924 633.1292 938.5923 627.7992 939.6298 613.3856 940.3308 606.6964L943.3063 597.6604 942.8454 601.7292C946.4856 624.2 935.6426 679.7463 909.5933 665.5051" fill="#fdfefe" fill-rule="evenodd"/>
<path transform="matrix(1,0,0,-1,0,907.0866)" d="M697.8067 490.3654 701.2264 486.2015C703.2345 487.758 702.0094 486.0867 703.5814 488.6413 706.3815 493.1921 702.8425 492.8 708.296 496.5891 709.6595 495.3574 710.8072 495.8291 711.663 489.966 713.1399 479.8437 704.7128 439.4696 722.5328 445.5034 732.5566 448.897 727.8968 463.4487 725.5962 470.9517 722.6504 480.5563 723.5456 491.3476 726.6121 500.4862 723.9983 501.6138 723.64 497.8454 725.4315 503.2726 723.3962 501.6155 722.9066 501.9012 721.7294 497.4369L721.4063 474.3567C722.9679 465.9004 729.9139 454.0637 720.2982 449.5507 706.5054 456.9625 726.5066 504.4711 704.8111 500.8294 698.9391 495.0386 703.5599 492.9083 697.8067 490.3654" fill="#2c4006" fill-rule="evenodd"/>
<path transform="matrix(1,0,0,-1,0,907.0866)" d="M789.3604 107.3075C794.7808 103.7095 808.0929 110.7136 817.8344 111.1963 830.8287 111.8401 838.1798 108.8595 848.7289 108.1505 850.8912 118.9542 828.3424 118.5364 819.2985 118.247 811.1959 117.9873 791.7619 116.9212 789.3604 107.3075" fill="#71b847" fill-rule="evenodd"/>
<path transform="matrix(1,0,0,-1,0,907.0866)" d="M784.8261 135.591C792.0899 136.1707 800.1828 141.8579 811.8207 142.7723 827.2706 143.9855 830.9477 139.1624 841.5998 138.7542 839.2847 152.2429 809.8971 152.6003 794.9254 146.7238 788.2486 144.1029 785.2711 143.2987 784.8261 135.591" fill="#71b847" fill-rule="evenodd"/>
<path transform="matrix(1,0,0,-1,0,907.0866)" d="M793.362 154.8473C791.6692 160.4571 790.2468 160.1935 790.0322 167.3036 789.8856 172.1602 790.6467 176.0145 792.6279 178.8866 796.1511 183.9949 804.5025 186.77 811.8539 186.9996 843.7175 187.9951 831.2913 162.9893 830.5645 156.1453 808.2071 156.7636 813.8373 156.2876 793.362 154.8473ZM832.0351 153.0136C834.4511 160.5855 840.4418 171.7038 836.3616 179.7661 829.5352 193.2545 773.6037 201.3009 792.311 151.1257 798.9625 151.1708 804.5337 153.5034 811.7529 154.0134 819.7804 154.5803 825.4494 152.8852 832.0351 153.0136" fill="#e1e048" fill-rule="evenodd"/>
<path transform="matrix(1,0,0,-1,0,907.0866)" d="M893.5781 583.1195C900.7438 557.1924 929.8945 546.8956 937.7133 578.3822 932.0128 573.5707 934.7426 573.2269 927.4876 570.8682 915.5948 567.0017 901.8672 571.1876 896.9513 584.0345Z" fill="#4e9944" fill-rule="evenodd"/>
<path transform="matrix(1,0,0,-1,0,907.0866)" d="M925.8341 610.3755C916.0149 615.7429 915.3074 637.7012 924.3337 643.1306 927.2991 640.9001 924.2609 644.9046 927.4306 639.9077 930.6068 634.9008 931.3265 623.4049 930.234 617.7518 929.9801 616.4374 929.2161 614.3474 928.5279 613.2231 926.9323 610.6153 928.0361 612.2517 925.8341 610.3755ZM934.7924 633.1292C933.3791 639.5516 931.5145 643.231 927.3866 647.0785 916.3786 647.1763 914.838 637.4293 914.9386 626.3762 915.0372 615.602 917.3653 606.4424 927.3345 605.2893 937.3039 610.7723 935.4402 620.3336 934.7924 633.1292" fill="#010003" fill-rule="evenodd"/>
<path transform="matrix(1,0,0,-1,0,907.0866)" d="M679.7829 161.3906C671.9474 164.2671 656.9371 167.7969 651.5223 161.3171 655.0761 158.4978 663.1963 159.9953 676.9624 153.953 686.2419 149.8802 689.1035 142.5169 697.9198 144.6591 697.6562 153.8994 688.1434 158.3215 679.7829 161.3906" fill="#71b847" fill-rule="evenodd"/>
<path transform="matrix(1,0,0,-1,0,907.0866)" d="M787.8107 117.7685C794.2425 115.3134 803.9089 121.7086 813.2499 122.3728 826.7046 123.3298 832.9161 121.4189 845.3554 119.9866 843.7414 127.5548 840.6014 127.0551 832.6412 127.9687 819.9357 129.4268 803.0072 128.8182 792.0119 122.6628 786.4319 119.5387 789.2473 122.0947 787.8107 117.7685" fill="#71b847" fill-rule="evenodd"/>
<path transform="matrix(1,0,0,-1,0,907.0866)" d="M637.6816 149.1599C630.7807 150.1699 627.5537 150.8085 624.9302 146.3148 627.9151 144.2591 641.0228 142.2122 647.8036 138.2987 662.8864 129.5943 656.5538 125.7968 667.55 127.1486 668.1628 139.4212 645.95 147.9495 637.6816 149.1599" fill="#71b847" fill-rule="evenodd"/>
<path transform="matrix(1,0,0,-1,0,907.0866)" d="M925.8341 610.3755C928.0361 612.2517 926.9323 610.6153 928.5279 613.2231 929.2161 614.3474 929.9801 616.4374 930.234 617.7518 931.3265 623.4049 930.6068 634.9008 927.4306 639.9077 924.2609 644.9046 927.2991 640.9001 924.3337 643.1306 915.3074 637.7012 916.0149 615.7429 925.8341 610.3755" fill="#4e9944" fill-rule="evenodd"/>
<path transform="matrix(1,0,0,-1,0,907.0866)" d="M697.6579 576.6344C695.3471 581.7849 697.9969 576.671 691.6737 581.5196 699.5662 583.3145 708.2561 588.6408 712.1869 593.8625 716.9661 600.2124 719.7647 608.5446 720.0981 619.2788 722.484 620.727 722.6022 620.6326 725.5545 621.8972L724.5853 628.9883 724.8288 624.937 718.253 621.8972C716.7053 590.5672 692.4291 573.1089 663.5877 589.7191 669.9447 580.2364 683.35 576.3455 697.6579 576.6344" fill="#e1e048" fill-rule="evenodd"/>
<path transform="matrix(1,0,0,-1,0,907.0866)" d="M672.7689 86.3039C679.4512 83.3097 738.5321 101.0242 742.3934 111.6828 735.4338 110.7071 717.6694 101.031 708.6779 97.8642 701.0413 95.1738 676.8958 90.3146 672.7689 86.3039" fill="#010003" fill-rule="evenodd"/>
<path transform="matrix(1,0,0,-1,0,907.0866)" d="M569.554 490.9198C568.9706 484.9231 573.0829 471.1051 568.4445 466.1549 569.0684 458.134 570.6601 455.3362 577.7734 452.594 594.3385 460.4751 578.6107 476.735 582.1067 490.5731 575.1578 489.892 578.0747 491.3493 579.6164 496.0587 578.5801 494.9892 576.0663 495.5156 577.0534 485.3177 578.0157 475.3757 584.5666 466.8554 579.0864 457.3128 565.041 459.0632 577.427 486.6041 569.554 490.9198" fill="#2c4006" fill-rule="evenodd"/>
<path transform="matrix(1,0,0,-1,0,907.0866)" d="M786.244 126.3249C805.6984 128.128 799.1728 137.7643 841.7543 131.008 838.9967 134.5411 840.329 133.5101 835.2527 135.2523 820.1339 140.4391 792.1809 140.3073 786.244 126.3249" fill="#71b847" fill-rule="evenodd"/>
<path transform="matrix(1,0,0,-1,0,907.0866)" d="M637.7839 789.5441 631.0304 796.1374C633.6244 799.0294 635.508 803.5628 639.108 807.7054 640.0908 805.3461 639.6318 805.4966 641.6983 802.9327L644.8788 799.7323C645.0613 799.5543 645.4505 799.2011 645.7289 798.9282 644.1678 796.9448 643.788 796.602 642.0569 794.6008ZM637.7839 781.1983C638.6567 782.3248 637.6921 779.9153 639.4473 783.7753 645.683 797.4924 638.1099 787.4578 652.551 798.9282 648.6114 802.5486 645.8468 801.4229 643.0348 805.6505 640.7456 809.0921 642.4438 809.6029 639.5868 814.3957 639.449 814.6261 638.8435 814.6763 638.7338 815.2339 638.6193 815.8153 638.0997 815.7725 637.7839 816.0429 634.7047 810.7435 635.5026 807.9117 632.2249 803.0866 628.6876 797.8799 627.171 800.0527 623.6697 794.289L633.0739 791.3381Z" fill="#2c4006" fill-rule="evenodd"/>
<path transform="matrix(1,0,0,-1,0,907.0866)" d="M640.499 154.2121C642.0849 152.4226 640.8051 153.237 643.1893 151.7377 644.7095 150.7819 644.5981 151.0464 646.4064 150.3641 648.3291 149.639 650.1042 149.2223 651.9634 148.4391 674.3149 139.0226 669.1088 127.4871 679.4858 131.5582 680.1741 139.2829 671.0125 144.7466 664.8168 147.8407 657.6537 151.4171 650.3083 154.8303 640.499 154.2121" fill="#71b847" fill-rule="evenodd"/>
<path transform="matrix(1,0,0,-1,0,907.0866)" d="M749.1736 818.2998C740.145 810.1868 758.0154 800.75 763.8352 806.4394 770.6682 813.119 756.9034 825.2453 749.1736 818.2998" fill="#f2f4d2" fill-rule="evenodd"/>
<path transform="matrix(1,0,0,-1,0,907.0866)" d="M748.5866 645.9089C749.7986 637.9486 745.4758 622.4766 750.8086 616.3226 753.7266 612.9556 759.2496 614.1311 761.5519 618.2328 764.0853 622.7453 763.1019 628.6235 762.6078 633.5033L760.7639 633.5932C759.8171 629.4773 760.2605 627.2932 759.549 624.0722 758.4922 619.2907 758.2408 620.2086 754.8041 619.0815 751.2724 624.4838 752.1619 627.0503 752.3631 633.9779 752.7694 640.3663 752.5335 645.7793 750.3797 650.4653 747.7719 648.8053 747.9156 653.6798 748.5866 645.9089" fill="#2c4006" fill-rule="evenodd"/>
<path transform="matrix(1,0,0,-1,0,907.0866)" d="M771.1277 582.0094C770.597 574.0617 772.5379 569.7598 765.612 568.2963L763.4639 573.251 763.3471 592.6827C761.4618 591.1588 758.5129 595.5463 758.6819 576.8331 758.8477 558.4209 774.4649 561.0529 774.3025 575.4546 774.2305 581.7852 774.6792 580.106 771.1277 582.0094" fill="#2c4006" fill-rule="evenodd"/>
<path transform="matrix(1,0,0,-1,0,907.0866)" d="M888.1926 676.4238C890.223 671.9176 887.7662 675.0629 892.7986 673.6408 893.5744 673.422 896.0236 673.4211 897.8261 672.9418 903.1768 671.5182 901.2334 670.0615 907.6173 669.6921 910.2815 670.854 911.6283 671.4408 914.4992 672.3734 918.3728 673.6314 916.7882 672.6705 919.9522 674.2902 908.4438 679.2718 901.7566 683.4047 888.1926 676.4238" fill="#fdfefe" fill-rule="evenodd"/>
<path transform="matrix(1,0,0,-1,0,907.0866)" d="M563.3252 557.4623 561.2706 544.0779C557.0637 545.093 560.1101 541.9086 557.856 547.4197L557.3806 560.3448C556.4143 564.4236 556.9971 561.6346 555.2697 563.3972 552.1397 554.4746 552.3347 546.6742 557.7854 539.2854L565.0594 540.0224C566.5266 545.1109 569.7947 553.6638 563.3252 557.4623" fill="#2c4006" fill-rule="evenodd"/>
<path transform="matrix(1,0,0,-1,0,907.0866)" d="M864.8093 733.9229C857.4177 716.2364 886.7554 717.6883 875.3791 732.0093 871.9551 736.3193 868.4396 735.2853 864.8093 733.9229" fill="#f2f4d2" fill-rule="evenodd"/>
<path transform="matrix(1,0,0,-1,0,907.0866)" d="M752.3631 633.9779C752.1619 627.0503 751.2724 624.4838 754.8041 619.0815 758.2408 620.2086 758.4922 619.2907 759.549 624.0722 760.2605 627.2932 759.8171 629.4773 760.7639 633.5932 756.3696 637.8854 756.6497 639.6043 754.4614 646.4069Z" fill="#f2f4d2" fill-rule="evenodd"/>
<path transform="matrix(1,0,0,-1,0,907.0866)" d="M557.1757 590.0411C556.8976 588.3097 556.7193 586.1438 556.2655 584.5527 555.3286 581.2659 555.069 581.6064 553.7693 580.1182 550.1055 584.4368 550.8048 590.349 551.912 596.6067L551.2456 600.734C550.5483 600.3757 550.1682 600.3326 550.0979 599.8652 550.0219 599.3592 543.4407 589.4167 550.1239 576.4819L557.458 576.1346C559.6452 581.1041 560.1368 581.921 559.3003 588.8917Z" fill="#2c4006" fill-rule="evenodd"/>
<path transform="matrix(1,0,0,-1,0,907.0866)" d="M658.6951 155.1881C663.7689 152.1136 669.9334 149.7903 675.0853 146.0835 683.3191 140.1591 680.0278 134.5893 688.7835 137.058 688.2403 143.8106 683.1442 146.7374 677.0563 149.6313 670.7684 152.6202 666.2784 154.6628 658.6951 155.1881" fill="#98a55b" fill-rule="evenodd"/>
<path transform="matrix(1,0,0,-1,0,907.0866)" d="M642.0569 794.6008C643.788 796.602 644.1678 796.9448 645.7289 798.9282 645.4505 799.2011 645.0613 799.5543 644.8788 799.7323L641.6983 802.9327C639.6318 805.4966 640.0908 805.3461 639.108 807.7054 635.508 803.5628 633.6244 799.0294 631.0304 796.1374L637.7839 789.5441Z" fill="#e1e048" fill-rule="evenodd"/>
<path transform="matrix(1,0,0,-1,0,907.0866)" d="M712.3654 737.3069C703.1024 743.9083 696.204 734.0343 705.2958 727.4801 709.3295 727.7596 710.1176 728.4849 712.7711 730.0352Z" fill="#010003" fill-rule="evenodd"/>
<path transform="matrix(1,0,0,-1,0,907.0866)" d="M766.0318 96.0378C767.6082 90.0493 767.4483 82.9037 769.807 77.5097 771.126 79.1589 770.9182 73.8553 771.6725 81.7696L768.875 97.3596C767.6215 103.595 766.5557 110.6804 764.2967 115.9007 762.0474 107.0444 764.0206 103.6783 766.0318 96.0378" fill="#f2f4d2" fill-rule="evenodd"/>
<path transform="matrix(1,0,0,-1,0,907.0866)" d="M763.4639 573.251 765.612 568.2963C772.5379 569.7598 770.597 574.0617 771.1277 582.0094 768.4792 583.4086 766.6398 584.8217 763.5447 586.2844Z" fill="#aadadd" fill-rule="evenodd"/>
<path transform="matrix(1,0,0,-1,0,907.0866)" d="M650.5081 122.4575C649.4165 126.7685 648.0085 127.6849 650.9854 130.4453 648.5703 134.5045 647.4827 135.3586 642.3557 137.5089 638.7077 139.0391 636.2736 139.7163 632.173 139.9518 647.7698 129.0155 643.1026 127.5301 650.5081 122.4575" fill="#d0b116" fill-rule="evenodd"/>
<path transform="matrix(1,0,0,-1,0,907.0866)" d="M675.6018 744.9188C670.375 736.778 677.5736 731.0843 683.7908 738.9173 683.257 744.5041 681.7694 746.8569 675.6018 744.9188" fill="#010003" fill-rule="evenodd"/>
<path transform="matrix(1,0,0,-1,0,907.0866)" d="M655.4072 191.014C648.5647 187.6178 651.9898 173.8962 655.7871 169.2539 656.9527 170.926 657.3821 166.5692 656.8515 174.0161Z" fill="#d0b116" fill-rule="evenodd"/>
<path transform="matrix(1,0,0,-1,0,907.0866)" d="M557.856 547.4197C560.1101 541.9086 557.0637 545.093 561.2706 544.0779L563.3252 557.4623C560.0177 560.9611 561.6065 559.3677 557.9717 561.1039Z" fill="#f2f4d2" fill-rule="evenodd"/>
<path transform="matrix(1,0,0,-1,0,907.0866)" d="M557.1757 590.0411C555.8409 592.3103 556.6623 591.4925 555.2722 593.259L551.912 596.6067C550.8048 590.349 550.1055 584.4368 553.7693 580.1182 555.069 581.6064 555.3286 581.2659 556.2655 584.5527 556.7193 586.1438 556.8976 588.3097 557.1757 590.0411" fill="#f2f4d2" fill-rule="evenodd"/>
<path transform="matrix(1,0,0,-1,0,907.0866)" d="M760.7639 633.5932 762.6078 633.5033 762.8304 643.1941 754.4614 646.4069C756.6497 639.6043 756.3696 637.8854 760.7639 633.5932" fill="#e1e048" fill-rule="evenodd"/>
<path transform="matrix(1,0,0,-1,0,907.0866)" d="M765.447 176.3274C767.626 174.998 770.5366 174.3885 773.1972 173.4185L773.2457 184.5709C767.1815 181.7963 767.7729 182.0384 765.447 176.3274" fill="#d0b116" fill-rule="evenodd"/>
<path transform="matrix(1,0,0,-1,0,907.0866)" d="M642.2933 537.8825C646.5481 535.8866 656.0558 535.7234 659.8522 537.8825 654.5894 542.122 646.56 541.328 642.2933 537.8825" fill="#2c4006" fill-rule="evenodd"/>
<path transform="matrix(1,0,0,-1,0,907.0866)" d="M723.5864 140.0029 723.5867 129.9039C725.3379 133.77 726.1393 138.0986 727.5345 142.0832 733.4291 158.9182 732.6323 151.3434 729.8555 154.1313 728.6505 149.8657 725.7756 146.1141 723.5864 140.0029" fill="#010003" fill-rule="evenodd"/>
</g>
</svg>
