<svg xmlns="http://www.w3.org/2000/svg" xmlns:xlink="http://www.w3.org/1999/xlink" xmlns:inkscape="http://www.inkscape.org/namespaces/inkscape" version="1.1" width="1360.6299" height="907.0866" viewBox="0 0 1360.6299 907.0866">
<g inkscape:groupmode="layer" inkscape:label="Layer 1">
<path transform="matrix(1,0,0,-1,0,907.0866)" d="M185.2149 707.834C180.5272 693.7929 177.4695 699.3408 164.4043 694.9817 155.8568 692.1298 150.0613 685.2266 147.6652 675.7517 142.738 656.267 142.183 667.1911 133.5246 655.2941 126.0865 645.0746 121.9958 590.7237 145.6588 572.9715 151.5339 568.5639 161.1473 563.862 170.4563 563.419 186.6104 562.6505 188.0391 567.6959 196.6456 573.1027 225.5207 563.1613 234.0964 560.2411 260.1643 575.083 285.296 563.5735 322.5472 524.3014 369.629 520.9424 388.908 519.5667 386.369 521.4495 402.9409 513.9507 422.5966 505.0565 485.4807 482.0987 491.1622 477.6134 495.4476 405.481 487.6716 353.4707 514.5565 280.4879 522.7367 258.2816 539.9487 248.5979 563.4043 240.9287 583.6348 234.3135 584.1102 236.935 596.9718 235.08 608.3532 233.4387 598.0473 220.443 613.5579 206.8707 620.2675 200.9993 630.0249 196.0931 641.8602 194.2432L643.623 193.7412 667.5151 193.2299C674.5946 183.2533 676.1679 182.2127 691.0849 182.1668 698.0494 167.8975 699.0491 164.0333 703.8394 146.7522 711.7574 118.1863 738.1945 103.7483 760.6542 122.1267 768.5249 128.5668 774.2534 143.5992 772.8789 158.6937 771.6594 172.0939 767.6955 186.1492 765.932 200.3057 764.1927 214.2709 763.321 228.7346 757.2192 240.0491 745.469 261.8376 716.1386 251.5209 713.046 251.5941 708.6722 251.6973 708.6762 253.5945 703.3677 254.4588 691.2527 256.4306 690.4378 248.6874 683.5283 250.4684L691.8075 266.4649C723.0509 258.2212 709.38 252.1664 753.3615 256.6981 762.8848 241.7238 784.4091 217.8442 796.4325 201.9387L828.4215 159.3465C835.7406 150.4471 832.7353 153.4586 830.732 141.647 827.8316 124.5436 838.9361 127.9967 846.7807 108.5879 858.2536 80.2015 844.683 45.879 862.918 25.3962 870.4216 16.9682 879.3924 8.9169 897.2892 11.9614 910.9378 14.2832 922.2194 23.4473 927.9884 30.7395 943.4633 50.2997 933.05 91.5129 929.9146 117.3132 927.841 134.3801 924.9715 143.3222 915.6246 152.661 909.125 159.1549 905.5916 155.5396 903.7032 165.4812 902.1379 173.7184 900.8237 178.8644 895.5303 182.2674 879.2561 192.7298 894.0682 171.8694 874.8677 211.2863 865.0057 231.5324 850.3914 259.0427 844.4353 280.133 873.398 279.4774 889.5081 274.7752 915.8414 287.2534 940.6845 299.0256 942.1118 309.6763 956.8409 329.1406 991.9355 375.5157 1032.4508 339.948 1087.6294 343.8026L1094.2948 345.5929C1103.2611 347.9219 1109.1635 350.2879 1116.2907 354.6952 1124.9719 360.0641 1127.1838 363.3199 1134.4839 369.4598L1136.8888 372.8628C1149.5724 391.9133 1155.8911 406.5157 1155.2026 436.1882 1154.5852 462.7947 1156.8413 483.5055 1171.5698 499.0456 1175.122 504.4263 1178.7316 508.856 1183.8002 512.1207 1190.2857 520.5674 1196.7644 524.2586 1203.5438 536.6682 1227.8092 581.0862 1179.5369 608.8484 1201.0156 640.0071L1212.3394 639.7138C1210.3195 660.5178 1206.2251 671.5409 1210.9859 693.8391 1213.513 705.674 1220.9352 726.8786 1227.7409 734.343 1227.7409 734.343 1231.0025 739.5775 1232.7236 742.828L1232.7327 774.498V774.5216C1232.7341 779.6684 1224.959 779.4553 1224.959 779.4553L1224.9578 779.4575C1221.2697 777.9512 1212.9268 778.8095 1194.2694 774.9057 1148.3969 765.3067 1106.4929 743.756 1067.8544 719.3744L1025.2341 690.4517 1022.3289 688.7055 1018.2197 686.1022 1006.6397 678.0288C995.9584 665.7769 943.8199 636.751 924.1055 629.8328 890.2366 617.9462 845.3837 634.2024 808.6289 635.4587 811.1988 642.3715 820.8173 648.5734 824.8266 680.5103 831.2615 731.7686 811.1656 740.5741 807.8159 754.488 766.1758 927.445 544.0606 944.2066 468.6454 789.7241 459.3104 770.6015 448.5467 735.4769 452.0154 712.3995 453.365 703.4179 449.0223 700.0773 448.1419 688.8356 445.2506 651.9061 461.0699 636.05 468.3393 616.8019 471.1584 609.3377 475.547 602.3557 477.4003 594.7835L437.6197 609.3828C415.1169 620.1153 425.3131 642.3228 336.0169 665.2959 292.0034 676.6186 298.3884 671.3113 259.0036 693.216 243.5658 701.8021 210.4492 724.3659 192.7284 713.5183Z" fill="#010003" fill-rule="evenodd"/>
<path transform="matrix(1,0,0,-1,0,907.0866)" d="M692.153 866.2207C688.9898 862.0257 679.0122 856.6231 674.6956 852.8905 642.9178 825.412 644.2889 815.2906 634.3744 805.7007 634.1193 806.0315 633.9957 806.5568 633.8871 806.8558 633.7803 807.1515 633.5549 807.645 633.4316 808.0081 633.3103 808.3658 633.1646 808.7746 633.0413 809.1652L631.6129 814.6531C625.841 814.2917 622.4114 813.5578 617.7523 813.0779 613.0865 812.5971 609.336 812.3391 604.6872 811.1259L601.6411 793.7819C580.0975 797.7546 579.3262 786.837 569.4749 788.5675 567.167 794.0466 570.8764 801.4808 571.3285 808.0075 563.358 807.4752 555.5047 805.4844 548.5275 805.0462 538.3545 804.4075 523.0043 826.6847 501.9871 803.2924L498.5702 799.969 497.8392 805.4107C495.7807 819.2874 502.2646 825.4417 509.4541 831.7488 513.1508 834.9908 515.183 838.2404 519.1038 841.4181 522.3064 844.0135 525.5796 846.8759 529.0401 849.4551 560.6538 873.0147 600.6824 887.3161 642.7128 885.0353 657.4218 884.2371 693.9975 878.0542 701.9413 870.0058 697.2763 867.6102 697.3719 866.8772 692.153 866.2207" fill="#010003" fill-rule="evenodd"/>
<path transform="matrix(1,0,0,-1,0,907.0866)" d="M751.375 643.3997C754.1181 640.614 752.1939 642.8489 754.4055 638.9952 761.9587 625.8334 767.7198 621.6293 781.4996 621.5873 776.4131 606.6249 761.0102 589.8461 749.7108 577.7124 727.7488 554.1299 686.969 532.3479 653.8723 524.5696 641.3031 521.6156 595.9718 515.2003 586.4244 522.4533 564.7895 520.958 533.8273 543.2596 517.9518 558.6381L499.3174 580.1448C490.5575 591.3751 480.4886 609.1639 476.9646 624.4875L486.2134 619.4344C503.2327 606.5266 523.0752 599.8796 544.6658 596.4738 595.4292 588.4659 654.4559 602.2769 697.6392 627.0151 719.6247 639.61 733.9703 648.6384 737.9481 679.2985 742.2738 712.6367 727.9815 743.4595 702.3501 734.1619 679.1825 725.7574 657.2058 717.4774 632.1396 711.671 591.8034 702.328 502.854 692.801 466.5305 710.7735L461.5682 712.3575C459.0198 727.4614 466.6422 756.1817 471.1156 769.2636 474.4692 779.0726 487.8351 807.5395 494.2327 811.3419L494.9172 805.1681C498.2536 799.7176 497.3786 798.0642 497.791 791.0671 498.7108 775.4678 503.267 781.1759 479.4333 767.069 476.4044 761.7073 472.2049 755.5048 471.5853 747.2021 471.1445 731.003 474.6101 722.1662 483.6506 714.892 504.1763 698.3753 520.8242 712.5055 534.3823 714.2505 541.0865 715.1134 547.7913 715.7602 554.2257 716.6109 578.7111 719.8478 657.1548 727.5688 670.0425 731.9815 690.8488 739.1058 694.1208 775.6608 660.4756 778.3659 664.6867 789.8097 673.4662 798.8349 676.8556 810.3821 662.9647 811.0766 645.9582 804.9521 640.0534 807.7708 646.3633 815.5565 650.8301 824.6041 657.1261 831.8466 667.506 843.7873 690.4913 863.352 704.395 867.7905 712.2878 870.3099 726.3998 858.7145 731.4894 855.1253 744.6078 845.8736 763.3437 825.6515 772.0143 812.7088 780.0491 800.7163 795.2434 772.9685 796.733 755.714 780.5248 758.1512 775.5103 757.9151 766.3513 747.4654 759.8497 740.0475 754.7539 731.1694 750.945 718.6666 737.627 674.9529 750.7159 655.5229 751.375 643.3997" fill="#010003" fill-rule="evenodd"/>
<path transform="matrix(1,0,0,-1,0,907.0866)" d="M602.9872 747.1264C600.6195 757.1171 605.1869 771.1883 607.4283 780.8726 608.6197 786.02 609.6946 791.2009 610.7428 796.6329 612.5443 805.9637 611.8214 804.5317 622.2467 804.8123L620.6862 797.97C620.9952 797.7679 621.5111 797.7118 621.7347 797.6109 626.0049 795.6828 626.9579 797.2523 625.8121 788.0641 616.7789 784.5968 619.9526 793.3065 614.8307 771.8729 611.2043 756.6976 610.0869 756.9652 615.9433 753.3371L618.0454 752.4026C614.3278 744.8927 610.2839 742.4759 602.9872 747.1264" fill="#010003" fill-rule="evenodd"/>
<path transform="matrix(1,0,0,-1,0,907.0866)" d="M630.1587 788.3317C631.2872 798.5154 632.5594 796.9235 642.5408 798.1517 648.8946 798.9335 655.202 800.3676 661.5952 800.5011 657.6684 788.9216 636.0928 757.1327 632.5452 744.6214 639.8776 745.0356 665.8815 745.4276 667.5134 752.7387 669.2423 760.4861 660.7329 762.5713 657.1168 758.7952 653.6778 755.2043 657.7648 749.0645 646.5603 752.1103 643.5782 778.3166 685.6903 772.8752 675.6627 748.3893 671.7107 738.7379 661.8609 738.8623 649.5248 737.2689 641.2141 736.1952 624.7185 732.9268 617.2702 733.7679L645.5149 789.317Z" fill="#010003" fill-rule="evenodd"/>
<path transform="matrix(1,0,0,-1,0,907.0866)" d="M506.408 757.1472C486.9017 766.2569 482.2356 730.8856 499.9255 725.637 519.0058 719.9759 532.0556 738.6585 521.2962 756.6406 515.4364 766.4349 498.2125 785.5356 509.5913 799.8466 519.2836 812.0375 545.8365 805.574 539.8586 778.8078L529.8766 777.6187C533.0784 790.5523 529.4673 800.5453 516.9487 794.0324 512.051 779.243 528.404 767.1234 533.3329 753.7003 539.7746 736.1569 528.8542 720.8127 515.6603 716.5216 473.1049 702.6826 467.5082 773.1173 505.8221 768.3086Z" fill="#010003" fill-rule="evenodd"/>
<path transform="matrix(1,0,0,-1,0,907.0866)" d="M538.9838 738.6568C539.7304 749.035 543.1113 762.2334 545.5264 772.35 546.8984 778.0958 548.153 783.0573 549.4691 789.099 551.3315 797.648 551.0877 797.3561 560.2079 797.87L556.5574 779.4422C562.261 781.3573 562.7874 781.7618 568.5242 780.321 571.7866 771.3833 570.3687 766.745 568.1115 756.6032 565.5294 745.0021 567.7325 741.4872 556.1277 740.6331 555.7385 749.4894 564.4162 764.5365 559.8088 771.7569 554.3765 771.0443 554.8283 770.8326 552.8911 764.7154 546.8204 745.5458 551.2816 739.7467 538.9838 738.6568" fill="#010003" fill-rule="evenodd"/>
<path transform="matrix(1,0,0,-1,0,907.0866)" d="M587.8352 785.7085C601.8857 790.3389 603.6517 778.4116 600.679 766.7671 598.0686 756.5426 595.6665 747.1301 586.1273 744.1191 571.8844 739.624 569.7632 751.5819 572.79 762.8295 575.9133 774.4371 577.2722 782.2273 587.8352 785.7085" fill="#010003" fill-rule="evenodd"/>
<path transform="matrix(1,0,0,-1,0,907.0866)" d="M824.9142 593.1386C823.0569 595.226 823.3716 596.4599 812.7289 594.7455 775.8422 588.8041 745.6606 562.665 727.1722 531.2727 713.8528 508.6562 716.7626 498.037 706.9158 499.0782 705.9098 514.3136 715.0034 525.407 716.2447 537.3071 713.022 535.0569 712.478 534.5558 710.1683 528.7927 705.8934 518.1276 703.9349 503.8574 700.655 500.1293 691.6516 504.0646 692.3511 507.2284 693.7478 517.593 694.6804 524.518 694.6441 530.8676 699.0746 534.4075 702.3566 537.0293 710.121 540.0315 714.3001 542.6603 727.6598 551.0633 742.0589 560.0276 753.099 571.5334L775.9579 594.906C777.9866 605.9276 787.1632 607.7534 797.2903 608.6449 810.8201 609.8357 816.0843 606.4024 827.4606 604.7827 819.5604 614.2377 800.286 611.159 786.884 611.6615L791.7596 620.6839C794.2694 627.9766 799.708 627.9965 815.2549 627.5925 823.7557 627.3717 831.937 625.6636 840.1065 624.0696 859.034 620.3767 874.5644 619.9498 893.5688 617.7756 887.2081 614.5237 868.1003 608.2138 859.9975 608.8351 859.6307 608.6242 859.127 608.4505 858.8305 608.3337L856.266 605.0761C933.6197 610.7848 990.1471 657.4572 1036.622 689.8516 1080.4241 720.383 1148.2047 765.798 1218.9495 772.0393L1227.4926 772.4594C1227.8673 767.8077 1227.9467 757.0661 1227.6109 752.381 1227.1586 746.0728 1215.3526 729.5462 1209.6351 712.9474 1196.5249 674.8872 1204.9197 671.1636 1204.4585 646.4934 1149.573 645.9012 1118.7799 635.6222 1074.58 617.3552 1037.6399 602.0887 1001.984 581.0907 955.9301 577.9704 905.2503 574.5365 853.2822 583.5169 808.7533 565.8398 739.5976 538.3868 749.3292 502.2281 715.1289 499.1508 717.5616 510.4052 727.1022 525.8288 732.8514 533.7825 743.8175 548.9541 745.0829 548.9578 756.4762 561.2545 765.1664 570.634 803.3703 595.6186 824.9142 593.1386" fill="#010003" fill-rule="evenodd"/>
<path transform="matrix(1,0,0,-1,0,907.0866)" d="M494.9498 742.5876C502.2751 745.31 503.4129 747.03 505.3541 754.4163L508.9331 751.2381C513.3708 746.5674 511.1464 747.8439 519.3604 745.1223 512.4212 739.8354 511.1827 740.1892 508.8495 730.2081L506.0911 733.231C505.9278 733.4819 505.7725 733.8597 505.6183 734.1202 502.2082 739.8782 504.8056 737.7202 498.3778 740.5931L495.7458 741.9957C495.6171 742.3965 495.2021 742.3741 494.9498 742.5876" fill="#010003" fill-rule="evenodd"/>
<path transform="matrix(1,0,0,-1,0,907.0866)" d="M781.1317 729.0961C775.4786 717.9823 772.1147 711.7231 770.1069 696.7329 767.8803 680.1049 771.09 671.0029 770.8351 657.5457L773.2157 653.7212C773.3767 653.4139 773.528 653.0533 773.6803 652.7438 780.476 638.9376 781.4696 640.5185 790.6277 635.5344L792.2857 634.3727C792.4164 634.6335 792.8518 633.9728 793.0834 633.7188 782.7287 626.9267 775.1435 620.9028 764.1181 633.5915 757.1806 641.5761 752.972 652.3736 751.5794 664.9781 750.793 674.6199 750.1241 682.848 750.7653 692.9393 751.0609 697.5944 751.6389 701.5192 752.4675 706.1774 753.8445 713.9146 753.5894 714.6099 756.6021 717.7085 756.6174 728.0467 767.7244 742.7381 773.119 747.6075 785.5804 758.8559 797.8827 750.3985 803.6016 741.8296 788.6424 741.9149 787.5643 737.7021 781.1317 729.0961" fill="#010003" fill-rule="evenodd"/>
<path transform="matrix(1,0,0,-1,0,907.0866)" d="M535.1468 723.5456C536.2628 734.6801 537.8468 731.9563 549.8555 733.5258 557.1009 734.4726 564.1577 735.5299 571.9241 736.4441 585.9811 738.0992 601.2386 740.5067 615.441 741.4376 612.4689 731.3556 611.6142 732.5033 600.3916 731.2944 582.5421 729.3716 549.1698 723.7602 535.1468 723.5456" fill="#010003" fill-rule="evenodd"/>
<path transform="matrix(1,0,0,-1,0,907.0866)" d="M725.3005 656.4728C722.7023 643.7367 689.8912 627.9032 674.6468 621.0139 655.4242 612.3268 630.8286 605.3312 608.0698 602.0694 567.1358 596.2034 519.7272 599.6392 485.8994 624.7057 483.9707 626.135 473.0856 634.5298 479.0775 635.6081L491.1636 629.8668C522.2472 607.4546 565.9744 603.6026 603.8578 607.6848 635.3178 611.0745 703.6999 632.8372 715.5397 654.2436 718.7377 664.5858 722.5257 678.8066 722.9163 690.2379 723.583 709.7618 717.2603 713.4497 712.3876 722.5041L721.368 726.5599C741.691 714.2717 733.8325 668.5676 725.3005 656.4728" fill="#010003" fill-rule="evenodd"/>
<path transform="matrix(1,0,0,-1,0,907.0866)" d="M775.4683 701.0629C776.2762 714.5753 784.1169 730.097 791.7585 735.9154 806.7402 747.3234 813.9929 724.6766 813.693 712.3428 821.3176 696.2715 808.5161 646.8381 796.9581 640.9196 777.3202 630.864 766.1829 687.3673 775.4683 701.0629" fill="#010003" fill-rule="evenodd"/>
<path transform="matrix(1,0,0,-1,0,907.0866)" d="M687.9112 640.0052C670.8858 626.5678 627.8066 615.5218 600.0863 612.3263 582.2963 610.2751 562.8969 610.5319 545.2948 613.4805 531.142 615.8514 510.0335 620.2619 501.7204 627.8125 490.8986 632.0883 488.6677 642.0353 485.4073 654.4613 481.8481 668.0259 480.3571 677.8491 481.1494 692.9297L489.7052 691.2326C562.9399 684.3917 586.273 684.7809 659.0642 704.1053 673.054 707.819 699.2515 718.4424 706.3812 719.1836 717.7966 705.3664 721.2606 697.3135 715.5938 672.6753 713.7584 664.6949 711.144 655.2437 706.7259 651.0501 703.6724 648.1517 692.8489 641.8709 687.9112 640.0052" fill="#010003" fill-rule="evenodd"/>
<path transform="matrix(1,0,0,-1,0,907.0866)" d="M179.5309 629.6652C186.6246 622.6869 179.6389 623.391 195.3856 614.3176 192.7165 605.1379 190.8944 607.3696 189.9751 593.78 175.8997 593.9909 165.3919 597.9662 160.469 607.9181 158.169 613.2501 156.4705 619.1155 155.4917 625.8061 154.5503 632.2408 155.5435 642.8948 152.4586 647.1825 143.7262 636.3045 155.0458 609.3176 157.0252 600.0517 160.977 597.8293 163.1251 595.4882 168.5639 593.0606 172.3031 591.391 178.0603 590.4967 180.9584 588.0813 168.5322 577.9559 153.5647 574.0432 146.9713 589.4552 142.5297 592.2692 140.4125 602.7052 138.7329 609.0486 135.0156 623.0889 138.4676 623.3077 138.3077 635.1137 139.7968 648.8819 140.3351 650.4616 149.1012 656.3577 156.8667 661.5805 153.5196 668.8409 158.4961 677.3241 164.5707 687.6788 168.6875 684.2132 180.2225 687.259 199.2495 692.2828 180.3144 725.053 239.3399 692.8999 252.1531 685.9208 265.9241 677.0619 279.483 670.917 306.29 658.7677 345.4693 653.529 374.4306 641.6215 390.6496 634.9533 401.6687 626.4459 412.6873 617.6911 416.893 614.3496 441.902 591.3323 443.1708 588.5558L445.1627 588.617 440.699 597.4557C448.6581 595.8164 463.5672 589.5136 472.2707 586.2025 485.8852 581.0233 493.2235 580.3733 497.2105 568.6968L500.1165 563.0057C506.8395 543.0178 521.2443 508.3557 540.7115 499.9527 549.7435 496.0542 564.3096 494.1252 569.1844 501.8491L569.4146 512.8761C579.5257 509.5851 585.6165 503.6134 598.714 501.0809 621.6208 496.6517 643.6542 502.9733 664.0982 512.7282 672.4213 516.6998 681.5733 522.7926 689.6854 525.659 689.2792 517 688.4059 513.2653 689.6486 504.2682 698.4309 489.6887 722.9871 492.1296 736.6788 500.9411 741.8449 504.2656 760.3662 525.8001 768.6125 533.8599 773.9229 539.0501 799.1719 556.9413 809.8787 557.3171 834.3961 558.1774 845.9583 531.0845 848.2 533.2966L846.8198 539.2191C864.3699 535.2922 902.5608 511.799 913.873 503.0518 934.3993 487.1801 954.8969 474.9514 933.9752 439.5356 931.8447 433.3229 926.8401 427.6304 922.8492 422.513 917.267 415.3558 915.5358 414.0887 909.5771 408.1558 903.6879 402.2915 901.3671 399.7993 895.4124 394.6842 889.6096 389.6994 885.6003 386.5147 879.402 381.7395 857.2694 364.686 858.7199 369.0289 852.4868 353.397 844.2414 332.7165 829.4987 330.5803 824.8751 324.3393 831.6235 321.1231 818.5839 325.4766 827.4694 324.1108 830.5362 323.6391 829.8405 324.5669 831.7721 321.9168 831.799 321.88 832.3974 320.1358 833.0289 319.235 836.6406 325.4306 836.3665 328.9005 844.2635 331.2797 846.9082 324.049 843.268 306.9193 822.2142 305.833 804.1283 304.9002 802.0763 310.8691 795.8387 330.696L792.6143 330.4431 796.2588 317.1654C781.0716 318.7582 783.7625 333.0978 777.9827 345.3812 775.7807 343.0539 777.2794 346.6293 776.3165 342.0536 775.3788 337.595 776.8242 335.7825 777.2219 331.9551 765.4907 335.9217 763.4477 359.9884 769.4867 371.4962 775.0769 382.1488 790.4894 386.3511 802.8607 394.7624 800.265 396.4173 799.3749 395.4643 794.5438 394.4254 803.2521 413.3656 816.4916 396.0227 826.9648 406.5367L837.0431 418.5405C852.4276 437.7229 856.0431 456.4777 875.6045 468.3555 880.7967 471.5087 886.4853 472.7458 889.9055 476.229 874.3187 475.9648 862.0798 466.9824 856.6741 458.4521 843.802 460.1568 825.2172 467.4762 813.4209 471.8537 798.9199 477.2353 779.0737 482.7353 770.8671 467.9575L775.5423 468.5207C779.4797 474.8445 788.953 473.6316 795.9336 471.3191 796.7322 469.5608 796.5085 470.6861 796.695 468.0652 796.8489 465.8992 796.773 467.2718 796.6576 465.8664 796.6267 465.4868 795.5663 460.9809 795.4078 460.3411 786.1467 422.9867 792.267 428.8791 792.3379 405.3124 792.3492 401.5344 786.2406 392.682 783.3424 390.183 777.3761 385.4568 770.6925 382.2701 765.9371 375.0704 759.6972 365.6239 762.3737 356.3099 760.8427 344.9475L762.448 342.0689C762.5792 341.7883 762.7635 341.3741 762.9032 341.0609 765.0615 336.2156 765.7291 332.0717 771.5767 328.9796 778.8053 325.1582 776.1387 329.9034 779.7141 323.3546 786.6094 310.7237 784.4871 315.1774 795.6986 311.6265 806.9253 308.0707 793.3535 302.0709 825.4843 299.9696L828.9215 292.9051C831.1198 290.2218 850.7733 238.703 859.4357 223.3273 865.2288 213.0449 870.747 201.9036 875.7422 189.9445 884.7091 168.476 888.0814 173.6269 881.7347 149.8527 848.1932 150.2127 863.7647 125.1479 838.1324 160.8089L765.5519 255.3075C731.6209 296.4733 746.0107 291.092 712.1854 298.4958 702.8952 300.5291 680.4706 307.4448 673.5824 307.4091L677.9852 302.4746 700.1303 293.4726C698.3731 288.4827 671.9306 251.4141 669.7916 233.1573 675.212 236.6124 675.3594 240.1869 679.9425 244.4519 685.205 243.3455 700.0464 239.9879 702.5258 236.3825 706.7911 230.1797 706.5981 219.0441 703.4652 212.4907 699.5381 210.3769 698.5664 210.9192 694.9913 208.5126 683.699 200.9123 689.963 200.6215 660.6071 201.1382 645.1075 201.4109 626.4227 204.4888 619.2295 214.2635L618.0276 215.8486C596.9577 231.6044 622.6194 292.6933 632.6816 314.9651 637.6717 326.0103 636.9163 322.7193 631.4136 333.7778 625.519 345.6252 620.1867 357.478 613.031 367.8956 595.2112 393.8394 571.6253 385.3298 539.3591 451.6614 536.3518 457.844 524.8434 485.4943 524.5424 490.2647L508.7106 514.7657C505.8692 513.055 504.3078 518.881 508.1026 510.3836 511.5302 502.7094 523.0176 487.6948 525.5901 470.1192 513.1786 475.4013 500.9698 487.5046 462.7593 500.6452 439.5685 508.6199 419.3048 518.6455 397.2263 527.8377L404.3018 533.3066C342.9771 531.0794 341.4634 535.4425 291.5178 568.3462 284.2268 573.1492 269.5606 579.0736 266.0043 586.7915L264.3072 590.7186C253.6716 588.3528 248.5466 570.4509 215.2159 577.9548 229.6301 579.9915 233.119 590.3283 254.3335 591.6824 277.1651 593.14 280.7739 608.3141 285.5982 612.9771 285.0987 620.8163 288.4799 632.4732 283.6392 638.498L281.4633 627.0806C279.7997 613.6223 275.8263 605.8474 266.3277 601.223 254.8443 595.6322 248.3172 600.2787 234.9099 592.6207 193.4983 568.9672 189.1066 602.725 203.5429 611.4464 204.336 615.9305 217.8156 622.4726 222.2226 624.6788 254.376 640.7734 240.4148 629.0294 242.9274 656.454 237.6272 654.4253 239.9734 656.5754 237.5915 651.7922 236.1322 648.8617 237.731 648.4363 235.309 645.3533 229.9037 651.5289 235.3283 666.0207 227.0242 673.0699 224.6105 668.6739 231.7144 652.7225 225.3988 648.832 227.3309 643.7497 224.5618 647.7857 230.8864 642.9266 233.475 640.938 233.9623 640.3028 235.5471 637.7919 230.4601 633.2834 223.5305 631.9894 216.8606 628.6884 203.1863 621.921 196.634 609.4599 186.2904 630.6809 185.7543 637.2604 184.3608 671.3382 182.8372 673.2573 176.1117 664.778 180.9842 640.8867 179.5309 629.6652" fill="#010003" fill-rule="evenodd"/>
<path transform="matrix(1,0,0,-1,0,907.0866)" d="M483.8618 637.1087C477.6962 639.4501 478.1942 640.6676 476.0654 648.1757 470.9506 666.2208 469.4686 676.3544 469.6121 695.9375 479.3581 694.4516 476.1938 694.3465 476.8571 683.3608L482.0199 651.083C483.4383 645.4346 486.1987 641.2348 483.8618 637.1087" fill="#010003" fill-rule="evenodd"/>
<path transform="matrix(1,0,0,-1,0,907.0866)" d="M472.0745 637.2298C467.9989 638.8095 468.8666 637.4373 466.1853 642.3228L459.3506 664.3823C456.33 679.3577 456.9435 685.7711 459.0136 699.8743 467.5294 696.2922 464.7285 694.3303 465.1923 683.3999 466.0155 663.9987 474.9171 646.4305 472.0745 637.2298" fill="#010003" fill-rule="evenodd"/>
<path transform="matrix(1,0,0,-1,0,907.0866)" d="M1109.5252 545.0352C1138.3126 544.7959 1173.6862 553.0819 1202.7421 555.6266 1200.2608 541.2917 1189.71 525.7125 1177.581 517.8889 1174.9088 512.3438 1169.636 508.5904 1164.613 502.4563 1160.3098 497.2011 1156.9686 491.2756 1153.9583 484.183 1144.768 462.5328 1150.2734 455.2336 1147.2387 434.2986 1125.9281 434.6898 1091.8225 442.874 1071.054 447.6161L999.8328 466.5702C995.8864 464.3986 998.3384 465.5446 1004.8331 463.0467 1055.2561 443.6529 1097.2404 439.4452 1147.5122 428.7492 1147.851 418.7319 1146.1646 406.6563 1142.3999 398.4661 1131.9548 363.1229 1088.2006 339.2807 1041.9993 356.358 1026.6585 362.0285 1005.3346 373.5442 991.2141 381.5082 985.2316 384.8822 946.6166 407.7298 945.0584 407.5537 947.5464 401.79 973.0103 387.9388 979.808 383.9366L1013.3833 365.0346C1015.9274 363.344 1014.6543 364.0938 1015.9401 362.9648L1017.5431 361.22C956.3343 363.6907 994.8166 337.8467 943.7513 375.4942 938.1577 379.6183 929.7992 386.8699 924.5599 389.3593 922.6009 386.8041 922.9453 389.9605 924.9321 386.9476L945.0043 369.8135C950.1222 366.1041 965.8616 356.2234 969.3434 351.9561 967.2993 349.098 960.9797 344.4687 958.1071 341.672 945.2024 329.1066 940.5354 311.4054 928.0687 304.9019 922.5445 311.6151 901.7617 329.0542 896.5755 338.0751L893.952 336.7012C900.9068 322.4018 916.9705 312.9066 924.8621 302.2455 909.2066 282.2893 860.7203 285.8987 840.204 287.0779L834.1458 302.4099C840.833 305.0459 843.9423 307.9865 846.9133 313.3417 853.1478 324.5805 848.8817 325.6506 850.0192 335.1841 850.447 338.7682 855.8405 344.8899 857.8809 352.1699 861.0718 363.5532 860.2483 360.1658 868.3546 366.0429L912.1946 399.1249C918.9122 405.8464 921.9883 409.2987 928.262 416.9373 941.239 433.7535 955.8643 455.6426 946.6761 483.683 929.8117 506.6124 888.0996 531.1874 859.3574 542.4568 853.0571 544.9269 845.4104 545.8646 841.3985 549.3169 836.206 553.7852 836.4059 557.1116 828.8019 559.931L825.5154 563.6563C842.7674 566.0195 855.2475 568.9205 874.5951 569.8573 931.5003 572.6137 967.7171 564.0922 1023.4417 586.9962 1063.8751 603.6151 1140.2039 642.5759 1191.981 639.6049 1183.2922 595.328 1207.5231 584.2732 1203.2105 560.4644 1192.184 555.2368 1103.2785 549.4249 1099.6659 544.8872Z" fill="#010003" fill-rule="evenodd"/>
<path transform="matrix(1,0,0,-1,0,907.0866)" d="M538.7122 517.0473 545.946 502.8024C532.6722 509.1171 510.8627 538.4239 506.0852 560.1396 512.3931 555.2433 518.4635 549.3637 525.1842 543.7528 534.1326 536.2824 532.1205 531.4802 537.421 521.5654 538.7522 523.427 539.2066 523.2796 538.0968 528.7669 537.3907 532.2583 537.0846 531.0136 536.7886 534.8548 555.3706 521.335 561.7188 526.1309 564.3507 515.2518 566.7403 505.3734 564.3017 503.445 564.3003 503.4504 564.2405 503.6454 563.9839 502.7533 563.7472 502.4582 554.2398 496.6855 554.1248 516.2304 548.8943 523.074 548.8418 514.8573 551.4454 509.7288 552.9447 501.713 545.8365 505.7989 545.5159 512.0816 538.7122 517.0473" fill="#010003" fill-rule="evenodd"/>
<path transform="matrix(1,0,0,-1,0,907.0866)" d="M830.461 420.4151C828.2812 416.1212 823.6928 409.3393 818.7831 409.4725 815.1681 409.5703 813.3758 410.8337 808.4171 410.7841 804.7534 410.7472 802.7765 410.1344 799.1371 410.0964 797.451 429.2419 799.1926 438.3456 802.4094 455.5443L805.6001 466.0574C822.9376 462.9294 830.9492 453.227 852.5415 454.1321 850.5751 445.693 852.349 451.7683 849.5107 447.5324Z" fill="#010003" fill-rule="evenodd"/>
<path transform="matrix(1,0,0,-1,0,907.0866)" d="M587.0798 363.8639 586.1988 380.2C606.2683 366.3777 607.8756 362.9891 620.3721 337.9793 627.4689 323.7766 630.377 326.1472 623.0906 310.7965 618.9148 301.9989 615.4914 290.0971 610.9174 282.9694 603.7551 296.9957 597.7942 319.6097 592.9829 336.5416 586.8723 328.9844 605.317 289.5542 606.8404 281.0222L579.1 278.5031C566.1646 301.5485 553.0105 326.5373 544.0207 355.5232 539.0039 371.6991 535.7307 383.9049 534.0489 401.8558 532.855 414.5939 528.4735 442.2665 530.263 453.3157 538.1328 442.8317 540.2733 417.9044 576.2112 389.0843 582.8825 383.7345 583.7312 374.3853 586.7325 360.544Z" fill="#010003" fill-rule="evenodd"/>
<path transform="matrix(1,0,0,-1,0,907.0866)" d="M504.2897 472.2608C510.6974 469.2691 518.0916 464.8266 523.2569 460.5409 524.3675 443.1793 524.4718 425.7737 526.0504 408.4231 527.7376 389.8823 532.2847 377.1065 535.0711 360.2891 542.5274 345.2111 546.2773 327.5033 561.5254 298.4417 573.3777 275.8533 586.7167 256.5805 594.7948 241.3244 571.2987 242.2794 549.3773 251.6621 533.9886 262.6234 519.9491 272.6235 513.8192 304.0231 509.9278 321.6268 502.1232 356.9318 496.5225 437.1182 499.574 474.385Z" fill="#010003" fill-rule="evenodd"/>
<path transform="matrix(1,0,0,-1,0,907.0866)" d="M721.4995 288.2259C733.3197 287.8846 731.948 285.355 737.4115 278.242 740.6246 274.0589 746.7979 268.1484 747.3056 262.7887L739.3479 261.6415C734.7118 265.5981 725.2756 282.2063 721.4995 288.2259" fill="#010003" fill-rule="evenodd"/>
<path transform="matrix(1,0,0,-1,0,907.0866)" d="M600.8037 243.1565C595.5585 249.1883 586.4766 262.4916 583.2901 271.8802 592.4004 274.8603 597.8917 275.6991 608.3368 275.0003Z" fill="#010003" fill-rule="evenodd"/>
<path transform="matrix(1,0,0,-1,0,907.0866)" d="M705.8322 291.1725C723.5674 290.3204 719.6715 289.5208 723.8015 279.7744 726.8644 272.5461 732.2343 267.0199 734.5979 261.4893 719.835 261.3076 707.7787 269.4368 695.719 271.459 698.1129 279.7118 702.8646 285.3726 705.8322 291.1725" fill="#010003" fill-rule="evenodd"/>
<path transform="matrix(1,0,0,-1,0,907.0866)" d="M691.4183 245.6308C699.3567 255.0101 723.3171 247.5703 718.4645 207.9079L707.7934 211.5955C710.6743 246.549 703.673 239.7688 691.4183 245.6308" fill="#010003" fill-rule="evenodd"/>
<path transform="matrix(1,0,0,-1,0,907.0866)" d="M736.024 158.5511C721.2523 157.5717 719.9507 154.4272 710.5252 148.9499L708.9806 156.7718C722.3562 157.6477 740.2521 159.3434 735.2252 173.8426 732.7318 181.0329 731.5512 186.6263 727.4316 193.8266 719.0382 208.4967 721.3691 191.2603 722.4897 217.851 722.1665 232.0098 720.0465 234.2534 716.1409 245.4032 728.5728 247.661 732.9784 248.0615 738.3546 239.0975 742.714 231.8281 744.0911 223.4931 745.1969 214.494L753.0265 157.6395Z" fill="#010003" fill-rule="evenodd"/>
<path transform="matrix(1,0,0,-1,0,907.0866)" d="M738.8257 245.6385C758.8525 241.6229 756.6111 212.019 762.1186 182.7714 765.284 165.9617 773.7276 123.9174 743.3311 121.3098 752.826 128.1869 759.0285 128.6325 761.6256 143.3132 763.8664 155.9818 761.2773 166.5167 758.8704 178.2133 756.3654 190.3859 755.7066 200.7499 753.9582 213.4692 752.7759 222.0673 751.1811 237.8985 742.9102 243.2767 745.1019 236.3244 747.6973 232.3511 749.5739 224.0368L759.8767 157.1856C763.3616 112.498 713.9279 116.8143 712.7442 146.5279 719.0796 149.4442 722.7167 152.9206 732.0858 154.8077 744.5985 157.3271 747.2854 153.5372 757.1211 152.9762 756.3912 171.6596 747.8436 230.1276 738.8257 245.6385" fill="#010003" fill-rule="evenodd"/>
<path transform="matrix(1,0,0,-1,0,907.0866)" d="M674.9328 194.5397C679.1581 197.4886 682.2488 195.6492 687.7386 197.5363 692.7613 199.2626 708.3 218.9463 719.0507 200.0631 717.8811 199.0386 683.0592 179.5303 674.9328 194.5397" fill="#010003" fill-rule="evenodd"/>
<path transform="matrix(1,0,0,-1,0,907.0866)" d="M698.531 184.2426C698.3413 188.0198 697.7945 187.5047 709.8058 192.2502 715.9742 194.6871 721.1438 197.4251 725.3864 193.1587 723.1198 190.3323 709.6116 185.8686 705.3919 184.1187 700.403 182.0497 701.1091 181.5874 698.531 184.2426" fill="#010003" fill-rule="evenodd"/>
<path transform="matrix(1,0,0,-1,0,907.0866)" d="M701.049 176.8731C702.5406 182.2657 715.0272 185.8212 720.7169 187.1351 727.3466 188.6661 726.2178 188.8659 728.6332 184.8736 726.533 180.8592 728.7389 183.0572 722.4307 181.0477 719.5935 180.144 717.9542 179.583 715.1709 178.5529 708.709 176.1619 705.6763 173.1203 701.049 176.8731" fill="#010003" fill-rule="evenodd"/>
<path transform="matrix(1,0,0,-1,0,907.0866)" d="M885.4379 179.2273C905.9343 175.7871 896.7515 139.8552 889.4854 133.3689 886.5686 145.491 882.2322 142.8043 886.7883 154.7396 891.7194 167.6568 887.7124 168.8162 885.4379 179.2273" fill="#010003" fill-rule="evenodd"/>
<path transform="matrix(1,0,0,-1,0,907.0866)" d="M704.7493 169.6844C706.6341 173.1461 711.3155 174.3313 717.5574 176.3093 724.2182 178.4194 728.4093 181.0862 731.1266 175.2077L710.4288 167.9771C703.8417 166.0734 707.2685 166.068 704.7493 169.6844" fill="#010003" fill-rule="evenodd"/>
<path transform="matrix(1,0,0,-1,0,907.0866)" d="M707.819 161.3991C709.3752 165.2289 713.2799 166.1462 717.8672 167.665 723.1068 169.4007 727.5297 170.3784 733.756 169.926 732.2777 163.046 730.4876 164.1699 723.2318 162.3158 718.5254 161.113 712.2481 158.4819 707.819 161.3991" fill="#010003" fill-rule="evenodd"/>
<path transform="matrix(1,0,0,-1,0,907.0866)" d="M911.9849 147.81C916.8287 136.2013 920.6498 98.0546 922.4949 81.8872 925.5883 54.7841 923.2483 36.2687 901.7461 26.6236 871.8797 13.2273 855.3572 41.9434 862.7131 53.1723 866.4143 58.8223 878.6143 64.8026 888.5086 65.6671 905.6177 67.163 908.1071 61.0002 919.1534 57.5541 920.6195 76.0411 915.9812 106.2944 913.6366 127.1078 913.1936 131.0417 912.7587 134.481 912.1011 138.1201 911.429 141.8394 910.2195 144.8439 911.9849 147.81" fill="#010003" fill-rule="evenodd"/>
<path transform="matrix(1,0,0,-1,0,907.0866)" d="M849.894 122.9227C841.1905 127.0828 835.8163 131.8088 839.1487 145.8714L846.392 140.114C841.5629 131.2288 845.6448 130.2979 849.894 122.9227" fill="#010003" fill-rule="evenodd"/>
<path transform="matrix(1,0,0,-1,0,907.0866)" d="M848.802 135.0323C852.169 137.1393 875.5078 145.9704 879.7144 145.6126 884.6762 140.8516 887.5312 130.1479 887.1347 121.3543 880.71 119.1909 869.9386 117.0207 863.5952 115.0676 857.4849 119.1648 849.8863 127.4683 848.802 135.0323" fill="#010003" fill-rule="evenodd"/>
<path transform="matrix(1,0,0,-1,0,907.0866)" d="M890.2984 121.3815C890.5343 128.5072 893.4506 130.676 896.478 136.7481 899.0382 141.8839 899.5028 149.2705 902.2592 154.1265 911.2904 147.3613 909.6211 125.0065 911.3304 112.1579 913.5235 95.669 915.2977 82.1313 915.4772 64.2813 889.7669 73.5486 877.4629 70.401 860.7274 56.5608 859.7098 68.1273 860.3297 77.2438 858.7355 88.9705 856.8972 102.4914 853.9778 105.8803 850.8807 116.6528L860.3946 114.3578C858.4223 107.9634 856.7623 111.0129 859.2287 102.4398L862.7924 80.6301C862.8367 76.2494 861.0007 79.1359 863.5275 74.4058 869.3804 70.1076 876.4679 75.047 883.6166 76.5989 904.8824 81.2166 903.4021 78.0959 900.5698 90.3776L896.682 117.4105Z" fill="#010003" fill-rule="evenodd"/>
<path transform="matrix(1,0,0,-1,0,907.0866)" d="M861.0194 104.8255C861.2249 109.5174 862.151 110.0166 865.9267 112.1669 871.2828 115.2181 879.5347 117.1009 885.7372 117.3076 892.9548 117.5479 892.5109 117.8722 893.8823 112.6959 890.1482 110.7448 881.8682 110.7179 876.9509 109.3765 870.8743 107.7188 866.7595 104.9797 861.0194 104.8255" fill="#010003" fill-rule="evenodd"/>
<path transform="matrix(1,0,0,-1,0,907.0866)" d="M863.2497 95.9746C864.1335 102.1476 866.6864 103.0958 877.5856 105.9551 882.9692 107.3676 893.9081 109.6226 896.1968 103.4033 892.4706 100.65 885.1808 101.6294 880.2819 100.546 873.0711 98.9518 870.8406 96.2518 863.2497 95.9746" fill="#010003" fill-rule="evenodd"/>
<path transform="matrix(1,0,0,-1,0,907.0866)" d="M864.6576 86.4998C865.2311 91.5335 864.9935 91.5148 869.5006 93.4472 874.8539 95.7424 889.6402 98.7744 893.7729 97.6028 899.7693 95.9026 895.6366 98.1893 897.4392 93.7375 892.9089 90.957 888.5529 92.4834 880.3899 90.8566 874.5004 89.6828 870.7329 87.2099 864.6576 86.4998" fill="#010003" fill-rule="evenodd"/>
<path transform="matrix(1,0,0,-1,0,907.0866)" d="M866.7247 76.1683C865.3671 84.6774 870.6586 84.619 878.9601 86.5437 885.4931 88.0586 894.8248 90.2333 899.3928 85.4524 897.7966 81.2908 900.7773 82.9015 893.9151 81.2798Z" fill="#010003" fill-rule="evenodd"/>
<path transform="matrix(1,0,0,-1,0,907.0866)" d="M138.3077 635.1137C138.4676 623.3077 135.0156 623.0889 138.7329 609.0486 140.4125 602.7052 142.5297 592.2692 146.9713 589.4552 154.1486 587.3085 159.0814 592.3446 157.0252 600.0517 155.0458 609.3176 143.7262 636.3045 152.4586 647.1825 155.5435 642.8948 154.5503 632.2408 155.4917 625.8061 156.4705 619.1155 158.169 613.2501 160.469 607.9181 163.6982 608.4802 171.0471 612.0734 174.5277 614.3632 181.2711 618.7997 180.7696 621.2633 179.5309 629.6652 180.9842 640.8867 176.1117 664.778 182.8372 673.2573 184.3608 671.3382 185.7543 637.2604 186.2904 630.6809 193.4603 631.2135 197.6298 634.7364 204.8922 636.5917 212.8499 638.6244 218.2442 637.6088 226.0956 638.7471 225.0238 644.5817 224.5028 641.0934 224.7333 646.3653L225.3988 648.832C231.7144 652.7225 224.6105 668.6739 227.0242 673.0699 235.3283 666.0207 229.9037 651.5289 235.309 645.3533 237.731 648.4363 236.1322 648.8617 237.5915 651.7922 239.9734 656.5754 237.6272 654.4253 242.9274 656.454 240.4148 629.0294 254.376 640.7734 222.2226 624.6788 217.8156 622.4726 204.336 615.9305 203.5429 611.4464 196.9444 586.3677 230.4332 604.7189 239.8218 606.9359 263.4863 612.5233 266.9136 605.0602 277.9342 622.7977L280.6359 626.2659C280.7595 626.8008 281.1677 626.8309 281.4633 627.0806L283.6392 638.498C288.4799 632.4732 285.0987 620.8163 285.5982 612.9771 283.5096 604.9471 280.5656 604.7124 278.814 597.7474 285.2538 591.1673 301.3886 584.8586 310.4351 580.2973 332.386 569.2289 355.9198 560.719 381.0189 557.0254 411.3652 552.56 411.3879 558.6976 424.1993 559.3258 424.1772 552.0078 422.0016 550.8119 427.6633 545.7087 434.5498 539.5003 451.5355 531.9706 460.4647 528.6934 468.7495 525.6533 477.4351 523.5401 486.6338 521.5207 500.385 518.502 497.5483 521.981 499.7784 522.464 499.917 522.4944 501.4278 523.9585 504.8379 520.9733 508.6811 517.608 507.1201 518.8181 508.7106 514.7657L524.5424 490.2647 563.0757 427.0215C580.8864 402.3428 596.986 390.1187 613.7768 371.4157 622.9284 361.222 627.9199 351.6738 633.9325 339.0792 643.955 318.0844 643.324 321.5784 634.0589 299.8483 625.7021 280.2464 617.5179 260.805 615.9382 238.7823 615.5583 233.4883 618.0593 215.9254 618.0276 215.8486L619.2295 214.2635C643.682 211.1958 650.0557 210.3452 662.36 242.5581L678.6978 284.1744C681.7569 294.4735 678.8886 293.7396 677.9852 302.4746L673.5824 307.4091C680.4706 307.4448 702.8952 300.5291 712.1854 298.4958 746.0107 291.092 731.6209 296.4733 765.5519 255.3075L838.1324 160.8089C863.7647 125.1479 848.1932 150.2127 881.7347 149.8527 888.0814 173.6269 884.7091 168.476 875.7422 189.9445 870.747 201.9036 865.2288 213.0449 859.4357 223.3273 850.7733 238.703 831.1198 290.2218 828.9215 292.9051 822.7828 294.8139 827.5496 293.7912 822.867 291.8237 808.9157 285.9605 802.2438 292.5343 795.0665 299.9894 790.2479 304.9946 787.1627 304.9566 777.9197 314.6511 768.2837 324.7571 759.5558 332.6783 760.8427 344.9475 762.3737 356.3099 759.6972 365.6239 765.9371 375.0704 770.6925 382.2701 777.3761 385.4568 783.3424 390.183 782.2633 401.5182 778.2415 463.5893 775.5423 468.5207L770.8671 467.9575C779.0737 482.7353 798.9199 477.2353 813.4209 471.8537 825.2172 467.4762 843.802 460.1568 856.6741 458.4521 862.0798 466.9824 874.3187 475.9648 889.9055 476.229 886.4853 472.7458 880.7967 471.5087 875.6045 468.3555 856.0431 456.4777 852.4276 437.7229 837.0431 418.5405L826.9648 406.5367C816.4916 396.0227 803.2521 413.3656 794.5438 394.4254 799.3749 395.4643 800.265 396.4173 802.8607 394.7624 790.4894 386.3511 775.0769 382.1488 769.4867 371.4962 763.4477 359.9884 765.4907 335.9217 777.2219 331.9551 776.8242 335.7825 775.3788 337.595 776.3165 342.0536 777.2794 346.6293 775.7807 343.0539 777.9827 345.3812 783.7625 333.0978 781.0716 318.7582 796.2588 317.1654L792.6143 330.4431 795.8387 330.696C802.0534 327.3131 802.7354 324.4175 809.7423 322.5824 815.3405 322.9067 835.8693 342.3991 842.7773 353.3692 854.5544 372.0713 855.1536 371.2226 872.4739 385.8866 877.8645 390.4506 884.8298 396.1137 889.8729 400.2514 893.0761 402.8794 894.2941 405.0989 897.2498 408.0444 910.1251 420.8749 923.5321 431.185 933.1478 449.2573L933.9333 447.4123C938.7981 458.7803 933.1866 474.7623 927.2081 481.845 916.4874 494.5465 892.6098 510.482 877.1253 518.7937 867.7664 523.8181 856.942 528.4854 848.2 533.2966 845.9583 531.0845 834.3961 558.1774 809.8787 557.3171 799.1719 556.9413 773.9229 539.0501 768.6125 533.8599 760.3662 525.8001 741.8449 504.2656 736.6788 500.9411 722.9871 492.1296 698.4309 489.6887 689.6486 504.2682 685.3541 506.7388 681.5271 500.7869 663.9483 495.0995 605.2609 476.1128 587.2564 499.9167 569.1844 501.8491 564.3096 494.1252 549.7435 496.0542 540.7115 499.9527 521.2443 508.3557 506.8395 543.0178 500.1165 563.0057L497.2105 568.6968C492.0188 568.2169 451.8014 585.3855 445.1627 588.617L443.1708 588.5558C441.6157 586.6724 445.2897 586.9998 441.0275 586.9786 437.83 590.4383 427.5774 596.1628 423.1176 599.1449 401.3294 613.7116 395.2837 620.7324 366.5285 632.3426 351.627 638.3585 337.9062 642.8818 322.0798 648.6894 271.0205 667.4255 287.4294 660.1487 239.8791 686.5294 188.3081 715.1406 203.7305 689.6602 180.5703 682.8812 169.1963 679.5527 167.4198 679.6644 162.0405 671.0326 157.6378 663.9678 154.3745 659.2116 149.8949 652.8169 144.2523 644.7614 140.847 636.9284 138.3077 635.1137" fill="#70b849" fill-rule="evenodd"/>
<path transform="matrix(1,0,0,-1,0,907.0866)" d="M471.5853 747.2021 470.4707 745.0665C466.8171 736.1357 472.4073 752.1622 469.6325 742.8399L467.9527 729.9317C467.2565 723.4342 466.4894 717.3102 466.5305 710.7735 502.854 692.801 591.8034 702.328 632.1396 711.671 657.2058 717.4774 679.1825 725.7574 702.3501 734.1619 727.9815 743.4595 742.2738 712.6367 737.9481 679.2985 733.9703 648.6384 719.6247 639.61 697.6392 627.0151 654.4559 602.2769 595.4292 588.4659 544.6658 596.4738 523.0752 599.8796 503.2327 606.5266 486.2134 619.4344L476.9646 624.4875C480.4886 609.1639 490.5575 591.3751 499.3174 580.1448L517.9518 558.6381C533.8273 543.2596 564.7895 520.958 586.4244 522.4533 592.0625 523.6231 609.9174 522.705 619.8982 524.1008 666.2829 530.5861 704.8891 555.2308 730.2934 592.9787 735.9046 601.3159 752.7912 631.472 751.375 643.3997 750.7159 655.5229 737.627 674.9529 750.945 718.6666 754.7539 731.1694 759.8497 740.0475 766.3513 747.4654 775.5103 757.9151 780.5248 758.1512 796.733 755.714 795.2434 772.9685 780.0491 800.7163 772.0143 812.7088 763.3437 825.6515 744.6078 845.8736 731.4894 855.1253 726.3998 858.7145 712.2878 870.3099 704.395 867.7905 690.4913 863.352 667.506 843.7873 657.1261 831.8466 650.8301 824.6041 646.3633 815.5565 640.0534 807.7708 645.9582 804.9521 662.9647 811.0766 676.8556 810.3821 673.4662 798.8349 664.6867 789.8097 660.4756 778.3659 694.1208 775.6608 690.8488 739.1058 670.0425 731.9815 657.1548 727.5688 578.7111 719.8478 554.2257 716.6109 547.7913 715.7602 541.0865 715.1134 534.3823 714.2505 520.8242 712.5055 504.1763 698.3753 483.6506 714.892 474.6101 722.1662 471.1445 731.003 471.5853 747.2021" fill="#70b849" fill-rule="evenodd"/>
<path transform="matrix(1,0,0,-1,0,907.0866)" d="M856.266 605.0761 858.8305 608.3337C859.127 608.4505 859.6307 608.6242 859.9975 608.8351 858.49 611.096 858.64 607.7083 860.9576 610.1923 861.0829 610.327 861.4519 610.6677 861.5874 610.808L864.1074 613.3615C848.8709 616.5113 808.5317 623.8545 793.1724 618.6688 791.3237 619.8052 791.4906 616.5896 791.7596 620.6839L786.884 611.6615C800.286 611.159 819.5604 614.2377 827.4606 604.7827 816.0843 606.4024 810.8201 609.8357 797.2903 608.6449 787.1632 607.7534 777.9866 605.9276 775.9579 594.906 778.3812 593.1955 793.1585 597.2953 798.8304 597.5714 808.2746 598.0303 819.6239 597.9892 829.0672 597.4121 827.2942 592.1079 829.8198 594.8955 824.9142 593.1386 803.3703 595.6186 765.1664 570.634 756.4762 561.2545 745.0829 548.9578 743.8175 548.9541 732.8514 533.7825 727.1022 525.8288 717.5616 510.4052 715.1289 499.1508 749.3292 502.2281 739.5976 538.3868 808.7533 565.8398 853.2822 583.5169 905.2503 574.5365 955.9301 577.9704 1001.984 581.0907 1037.6399 602.0887 1074.58 617.3552 1118.7799 635.6222 1149.573 645.9012 1204.4585 646.4934 1204.9197 671.1636 1196.5249 674.8872 1209.6351 712.9474 1215.3526 729.5462 1227.1586 746.0728 1227.6109 752.381 1227.9467 757.0661 1227.8673 767.8077 1227.4926 772.4594L1218.9495 772.0393C1225.4043 772.797 1225.3516 772.2774 1227.9234 770.3535 1224.6007 766.4624 1227.259 768.4126 1220.3555 766.9222 1199.779 762.4791 1197.2616 762.4193 1174.9989 754.4458 1157.0176 748.0052 1144.3363 742.2715 1127.8633 733.926 1097.6698 718.6297 1071.5278 700.6694 1046.0021 681.891 1002.7386 650.0633 973.6189 624.7443 914.2172 611.0833 904.8393 608.9264 895.9243 606.9713 886.3608 605.6827L863.5898 602.7639C861.194 602.8313 861.8712 602.6973 859.6466 603.2908 855.9649 604.2736 858.5895 603.0969 856.266 605.0761" fill="#e5e00d" fill-rule="evenodd"/>
<path transform="matrix(1,0,0,-1,0,907.0866)" d="M828.8019 559.931C829.4238 560.8987 827.9368 562.5978 836.5028 561.2434L877.8521 554.1596C887.8122 552.905 885.9016 551.9778 893.2065 549.9595 916.8591 543.4248 971.5623 540.2398 998.862 539.6L1109.5252 545.0352 1099.6659 544.8872C1103.2785 549.4249 1192.184 555.2368 1203.2105 560.4644 1207.5231 584.2732 1183.2922 595.328 1191.981 639.6049 1140.2039 642.5759 1063.8751 603.6151 1023.4417 586.9962 967.7171 564.0922 931.5003 572.6137 874.5951 569.8573 855.2475 568.9205 842.7674 566.0195 825.5154 563.6563Z" fill="#096a31" fill-rule="evenodd"/>
<path transform="matrix(1,0,0,-1,0,907.0866)" d="M928.262 416.9373C935.4677 415.6503 939.0628 410.9292 945.0584 407.5537 946.6166 407.7298 985.2316 384.8822 991.2141 381.5082 1005.3346 373.5442 1026.6585 362.0285 1041.9993 356.358 1088.2006 339.2807 1131.9548 363.1229 1142.3999 398.4661 1130.8079 397.381 1069.0432 423.1244 1056.2766 428.7977 1035.0935 438.2113 992.9996 455.6648 982.8706 472.0014L982.3275 472.1703 946.6761 483.683C955.8643 455.6426 941.239 433.7535 928.262 416.9373" fill="#096a31" fill-rule="evenodd"/>
<path transform="matrix(1,0,0,-1,0,907.0866)" d="M946.6761 483.683 982.3275 472.1703C974.4999 486.373 1002.7261 498.4347 1013.0312 502.232 1028.8834 508.0728 1045.6472 510.798 1063.6824 513.3699 1082.4004 516.0385 1102.2673 517.4371 1121.6895 518.3802L1166.082 519.9126C1182.7929 520.6107 1177.1416 520.1614 1177.581 517.8889 1189.71 525.7125 1200.2608 541.2917 1202.7421 555.6266 1173.6862 553.0819 1138.3126 544.7959 1109.5252 545.0352L998.862 539.6C971.5623 540.2398 916.8591 543.4248 893.2065 549.9595 885.9016 551.9778 887.8122 552.905 877.8521 554.1596L836.5028 561.2434C827.9368 562.5978 829.4238 560.8987 828.8019 559.931 836.4059 557.1116 836.206 553.7852 841.3985 549.3169 845.4104 545.8646 853.0571 544.9269 859.3574 542.4568 888.0996 531.1874 929.8117 506.6124 946.6761 483.683" fill="#c7ab03" fill-rule="evenodd"/>
<path transform="matrix(1,0,0,-1,0,907.0866)" d="M982.3275 472.1703 982.8706 472.0014 995.0264 468.4725C995.4516 468.3441 995.7971 468.246 996.2121 468.1057L999.8328 466.5702 1071.054 447.6161C1091.8225 442.874 1125.9281 434.6898 1147.2387 434.2986 1150.2734 455.2336 1144.768 462.5328 1153.9583 484.183 1156.9686 491.2756 1160.3098 497.2011 1164.613 502.4563 1169.636 508.5904 1174.9088 512.3438 1177.581 517.8889 1177.1416 520.1614 1182.7929 520.6107 1166.082 519.9126L1121.6895 518.3802C1102.2673 517.4371 1082.4004 516.0385 1063.6824 513.3699 1045.6472 510.798 1028.8834 508.0728 1013.0312 502.232 1002.7261 498.4347 974.4999 486.373 982.3275 472.1703" fill="#e5e00d" fill-rule="evenodd"/>
<path transform="matrix(1,0,0,-1,0,907.0866)" d="M665.1865 655.3902C662.976 652.3583 664.0747 654.717 661.9915 654.3967 659.1954 659.4276 661.1791 659.9577 665.0456 658.8774 665.0892 658.7657 668.344 659.7215 665.1865 655.3902ZM670.5043 683.2624 669.5855 678.5291C664.0044 678.7474 662.8331 682.8284 670.5043 683.2624ZM639.2225 678.4455C638.9002 670.7999 643.8677 635.616 621.2684 627.395 598.1162 618.9727 589.6582 645.3315 586.1622 659.8857 579.2649 662.9621 576.3112 660.0932 572.4247 668.4956L570.46 672.3873C570.3151 672.8253 570.2139 673.1926 570.1076 673.617 569.8514 674.6417 570.1 676.7966 570.1184 677.7524L561.1895 677.7184C559.995 676.2591 559.3085 679.322 560.391 675.0805 558.2945 662.6477 560.6138 666.8235 553.1105 659.8857 552.9461 649.8488 552.6281 640.5452 547.7984 633.2306 539.2619 620.3018 510.8301 620.7063 514.8499 679.4237L505.2688 681.8094C499.2902 682.1286 492.2297 682.5815 487.4732 683.5045 489.4024 673.2028 490.157 663.1662 492.4063 653.0462 493.287 649.0828 495.0519 642.276 496.1497 638.9719 497.9129 633.6649 499.8266 632.5534 501.7204 627.8125 510.0335 620.2619 531.142 615.8514 545.2948 613.4805 562.8969 610.5319 582.2963 610.2751 600.0863 612.3263 627.8066 615.5218 670.8858 626.5678 687.9112 640.0052 690.4375 651.0438 706.3228 682.471 690.1767 693.5346 676.8051 702.697 650.3417 686.0835 638.672 683.0167Z" fill="#e5e00d" fill-rule="evenodd"/>
<path transform="matrix(1,0,0,-1,0,907.0866)" d="M497.8392 805.4107 498.5702 799.969 501.9871 803.2924C523.0043 826.6847 538.3545 804.4075 548.5275 805.0462 555.5047 805.4844 563.358 807.4752 571.3285 808.0075 570.8764 801.4808 567.167 794.0466 569.4749 788.5675 579.3262 786.837 580.0975 797.7546 601.6411 793.7819L604.6872 811.1259C609.336 812.3391 613.0865 812.5971 617.7523 813.0779 622.4114 813.5578 625.841 814.2917 631.6129 814.6531L633.0413 809.1652C633.1646 808.7746 633.3103 808.3658 633.4316 808.0081 633.5549 807.645 633.7803 807.1515 633.8871 806.8558 633.9957 806.5568 634.1193 806.0315 634.3744 805.7007 644.2889 815.2906 642.9178 825.412 674.6956 852.8905 679.0122 856.6231 688.9898 862.0257 692.153 866.2207 641.8417 883.8944 574.9841 865.2716 534.1654 836.0558L503.6865 808.4404C499.7435 804.0983 503.9512 804.9413 497.8392 805.4107" fill="#70b849" fill-rule="evenodd"/>
<path transform="matrix(1,0,0,-1,0,907.0866)" d="M508.7106 514.7657C507.1201 518.8181 508.6811 517.608 504.8379 520.9733 501.4278 523.9585 499.917 522.4944 499.7784 522.464 497.5483 521.981 500.385 518.502 486.6338 521.5207 477.4351 523.5401 468.7495 525.6533 460.4647 528.6934 451.5355 531.9706 434.5498 539.5003 427.6633 545.7087 422.0016 550.8119 424.1772 552.0078 424.1993 559.3258 411.3879 558.6976 411.3652 552.56 381.0189 557.0254 355.9198 560.719 332.386 569.2289 310.4351 580.2973 301.3886 584.8586 285.2538 591.1673 278.814 597.7474 280.5656 604.7124 283.5096 604.9471 285.5982 612.9771 280.7739 608.3141 277.1651 593.14 254.3335 591.6824 233.119 590.3283 229.6301 579.9915 215.2159 577.9548 248.5466 570.4509 253.6716 588.3528 264.3072 590.7186L266.0043 586.7915C269.5606 579.0736 284.2268 573.1492 291.5178 568.3462 341.4634 535.4425 342.9771 531.0794 404.3018 533.3066L397.2263 527.8377C419.3048 518.6455 439.5685 508.6199 462.7593 500.6452 500.9698 487.5046 513.1786 475.4013 525.5901 470.1192 523.0176 487.6948 511.5302 502.7094 508.1026 510.3836 504.3078 518.881 505.8692 513.055 508.7106 514.7657" fill="#4e9a41" fill-rule="evenodd"/>
<path transform="matrix(1,0,0,-1,0,907.0866)" d="M535.0711 360.2891 532.7164 364.682C532.4885 365.1525 531.7418 366.8956 531.4212 367.6161 522.2001 388.3294 522.0334 386.121 514.389 411.4449 511.6059 420.6648 509.0244 430.3466 507.5405 440.5133 506.1407 450.1015 506.1662 463.7435 504.2897 472.2608L499.574 474.385C496.5225 437.1182 502.1232 356.9318 509.9278 321.6268 513.8192 304.0231 519.9491 272.6235 533.9886 262.6234 549.3773 251.6621 571.2987 242.2794 594.7948 241.3244 586.7167 256.5805 573.3777 275.8533 561.5254 298.4417 546.2773 327.5033 542.5274 345.2111 535.0711 360.2891" fill="#e5e00d" fill-rule="evenodd"/>
<path transform="matrix(1,0,0,-1,0,907.0866)" d="M592.9829 336.5416C591.8318 341.1573 590.4726 345.073 589.3603 349.9764 588.5702 353.4585 588.6556 361.065 587.0798 363.8639L586.7325 360.544C583.7312 374.3853 582.8825 383.7345 576.2112 389.0843 540.2733 417.9044 538.1328 442.8317 530.263 453.3157 528.4735 442.2665 532.855 414.5939 534.0489 401.8558 535.7307 383.9049 539.0039 371.6991 544.0207 355.5232 553.0105 326.5373 566.1646 301.5485 579.1 278.5031L606.8404 281.0222C605.317 289.5542 586.8723 328.9844 592.9829 336.5416" fill="#096a31" fill-rule="evenodd"/>
<path transform="matrix(1,0,0,-1,0,907.0866)" d="M868.3546 366.0429C873.7472 364.8101 872.456 364.9431 876.0929 360.2735 878.4295 357.2739 879.4346 355.8679 882.1196 352.5338 886.1828 347.4893 890.0184 342.1009 893.952 336.7012L896.5755 338.0751C901.7617 329.0542 922.5445 311.6151 928.0687 304.9019 940.5354 311.4054 945.2024 329.1066 958.1071 341.672 960.9797 344.4687 967.2993 349.098 969.3434 351.9561 965.8616 356.2234 950.1222 366.1041 945.0043 369.8135L924.9321 386.9476C922.9453 389.9605 922.6009 386.8041 924.5599 389.3593 920.0307 391.9893 915.0222 394.8644 912.1946 399.1249Z" fill="#096a31" fill-rule="evenodd"/>
<path transform="matrix(1,0,0,-1,0,907.0866)" d="M489.7052 691.2326 484.9441 687.5025 487.4732 683.5045C492.2297 682.5815 499.2902 682.1286 505.2688 681.8094 503.7324 683.0124 507.1836 682.878 501.086 683.9416 502.1969 684.832 498.8874 689.7348 515.3057 683.0841 527.521 678.136 546.1869 666.2591 556.1617 666.0071 556.8987 671.4388 555.8842 673.0917 560.391 675.0805 559.3085 679.322 559.995 676.2591 561.1895 677.7184L570.1184 677.7524C570.1 676.7966 569.8514 674.6417 570.1076 673.617 570.2139 673.1926 570.3151 672.8253 570.46 672.3873L572.4247 668.4956 572.1636 674.9844C576.3025 669.1924 572.904 670.2715 579.1405 665.0393 595.1424 663.0741 636.2708 703.1268 653.2719 696.0078 647.5039 692.5224 640.7997 692.0671 635.7461 687.5025 636.7272 683.2723 636.429 681.2589 639.2225 678.4455L638.672 683.0167C650.3417 686.0835 676.8051 702.697 690.1767 693.5346 706.3228 682.471 690.4375 651.0438 687.9112 640.0052 692.8489 641.8709 703.6724 648.1517 706.7259 651.0501 711.144 655.2437 713.7584 664.6949 715.5938 672.6753 721.2606 697.3135 717.7966 705.3664 706.3812 719.1836 699.2515 718.4424 673.054 707.819 659.0642 704.1053 586.273 684.7809 562.9399 684.3917 489.7052 691.2326" fill="#c7ab03" fill-rule="evenodd"/>
<path transform="matrix(1,0,0,-1,0,907.0866)" d="M893.952 336.7012C890.0184 342.1009 886.1828 347.4893 882.1196 352.5338 879.4346 355.8679 878.4295 357.2739 876.0929 360.2735 872.456 364.9431 873.7472 364.8101 868.3546 366.0429 860.2483 360.1658 861.0718 363.5532 857.8809 352.1699 855.8405 344.8899 850.447 338.7682 850.0192 335.1841 848.8817 325.6506 853.1478 324.5805 846.9133 313.3417 843.9423 307.9865 840.833 305.0459 834.1458 302.4099L840.204 287.0779C860.7203 285.8987 909.2066 282.2893 924.8621 302.2455 916.9705 312.9066 900.9068 322.4018 893.952 336.7012" fill="#c7ab03" fill-rule="evenodd"/>
<path transform="matrix(1,0,0,-1,0,907.0866)" d="M856.266 605.0761C858.5895 603.0969 855.9649 604.2736 859.6466 603.2908 861.8712 602.6973 861.194 602.8313 863.5898 602.7639L886.3608 605.6827C895.9243 606.9713 904.8393 608.9264 914.2172 611.0833 973.6189 624.7443 1002.7386 650.0633 1046.0021 681.891 1071.5278 700.6694 1097.6698 718.6297 1127.8633 733.926 1144.3363 742.2715 1157.0176 748.0052 1174.9989 754.4458 1197.2616 762.4193 1199.779 762.4791 1220.3555 766.9222 1227.259 768.4126 1224.6007 766.4624 1227.9234 770.3535 1225.3516 772.2774 1225.4043 772.797 1218.9495 772.0393 1148.2047 765.798 1080.4241 720.383 1036.622 689.8516 990.1471 657.4572 933.6197 610.7848 856.266 605.0761" fill="#f9f7cc" fill-rule="evenodd"/>
<path transform="matrix(1,0,0,-1,0,907.0866)" d="M586.4244 522.4533C595.9718 515.2003 641.3031 521.6156 653.8723 524.5696 686.969 532.3479 727.7488 554.1299 749.7108 577.7124 761.0102 589.8461 776.4131 606.6249 781.4996 621.5873 767.7198 621.6293 761.9587 625.8334 754.4055 638.9952 752.1939 642.8489 754.1181 640.614 751.375 643.3997 752.7912 631.472 735.9046 601.3159 730.2934 592.9787 704.8891 555.2308 666.2829 530.5861 619.8982 524.1008 609.9174 522.705 592.0625 523.6231 586.4244 522.4533" fill="#4e9a41" fill-rule="evenodd"/>
<path transform="matrix(1,0,0,-1,0,907.0866)" d="M1142.3999 398.4661C1146.1646 406.6563 1147.851 418.7319 1147.5122 428.7492 1097.2404 439.4452 1055.2561 443.6529 1004.8331 463.0467 998.3384 465.5446 995.8864 464.3986 999.8328 466.5702L996.2121 468.1057C995.7971 468.246 995.4516 468.3441 995.0264 468.4725L982.8706 472.0014C992.9996 455.6648 1035.0935 438.2113 1056.2766 428.7977 1069.0432 423.1244 1130.8079 397.381 1142.3999 398.4661" fill="#4e9a41" fill-rule="evenodd"/>
<path transform="matrix(1,0,0,-1,0,907.0866)" d="M619.2295 214.2635C626.4227 204.4888 645.1075 201.4109 660.6071 201.1382 689.963 200.6215 683.699 200.9123 694.9913 208.5126 698.5664 210.9192 699.5381 210.3769 703.4652 212.4907 706.5981 219.0441 706.7911 230.1797 702.5258 236.3825 700.0464 239.9879 685.205 243.3455 679.9425 244.4519 675.3594 240.1869 675.212 236.6124 669.7916 233.1573 671.9306 251.4141 698.3731 288.4827 700.1303 293.4726L677.9852 302.4746C678.8886 293.7396 681.7569 294.4735 678.6978 284.1744L662.36 242.5581C650.0557 210.3452 643.682 211.1958 619.2295 214.2635" fill="#4e9a41" fill-rule="evenodd"/>
<path transform="matrix(1,0,0,-1,0,907.0866)" d="M497.8392 805.4107C503.9512 804.9413 499.7435 804.0983 503.6865 808.4404L534.1654 836.0558C574.9841 865.2716 641.8417 883.8944 692.153 866.2207 697.3719 866.8772 697.2763 867.6102 701.9413 870.0058 693.9975 878.0542 657.4218 884.2371 642.7128 885.0353 600.6824 887.3161 560.6538 873.0147 529.0401 849.4551 525.5796 846.8759 522.3064 844.0135 519.1038 841.4181 515.183 838.2404 513.1508 834.9908 509.4541 831.7488 502.2646 825.4417 495.7807 819.2874 497.8392 805.4107" fill="#d5e5b2" fill-rule="evenodd"/>
<path transform="matrix(1,0,0,-1,0,907.0866)" d="M775.4683 701.0629C766.1829 687.3673 777.3202 630.864 796.9581 640.9196 808.5161 646.8381 821.3176 696.2715 813.693 712.3428L813.1153 704.1186C808.2312 741.217 786.6774 731.2363 778.2602 703.7957Z" fill="#70b849" fill-rule="evenodd"/>
<path transform="matrix(1,0,0,-1,0,907.0866)" d="M138.3077 635.1137C140.847 636.9284 144.2523 644.7614 149.8949 652.8169 154.3745 659.2116 157.6378 663.9678 162.0405 671.0326 167.4198 679.6644 169.1963 679.5527 180.5703 682.8812 203.7305 689.6602 188.3081 715.1406 239.8791 686.5294 287.4294 660.1487 271.0205 667.4255 322.0798 648.6894 337.9062 642.8818 351.627 638.3585 366.5285 632.3426 395.2837 620.7324 401.3294 613.7116 423.1176 599.1449 427.5774 596.1628 437.83 590.4383 441.0275 586.9786 445.2897 586.9998 441.6157 586.6724 443.1708 588.5558 441.902 591.3323 416.893 614.3496 412.6873 617.6911 401.6687 626.4459 390.6496 634.9533 374.4306 641.6215 345.4693 653.529 306.29 658.7677 279.483 670.917 265.9241 677.0619 252.1531 685.9208 239.3399 692.8999 180.3144 725.053 199.2495 692.2828 180.2225 687.259 168.6875 684.2132 164.5707 687.6788 158.4961 677.3241 153.5196 668.8409 156.8667 661.5805 149.1012 656.3577 140.3351 650.4616 139.7968 648.8819 138.3077 635.1137" fill="#d5e5b2" fill-rule="evenodd"/>
<path transform="matrix(1,0,0,-1,0,907.0866)" d="M912.1946 399.1249C915.0222 394.8644 920.0307 391.9893 924.5599 389.3593 929.7992 386.8699 938.1577 379.6183 943.7513 375.4942 994.8166 337.8467 956.3343 363.6907 1017.5431 361.22L1015.9401 362.9648C1014.6543 364.0938 1015.9274 363.344 1013.3833 365.0346L979.808 383.9366C973.0103 387.9388 947.5464 401.79 945.0584 407.5537 939.0628 410.9292 935.4677 415.6503 928.262 416.9373 921.9883 409.2987 918.9122 405.8464 912.1946 399.1249" fill="#c7ab03" fill-rule="evenodd"/>
<path transform="matrix(1,0,0,-1,0,907.0866)" d="M922.4949 81.8872C920.6498 98.0546 916.8287 136.2013 911.9849 147.81 910.2195 144.8439 911.429 141.8394 912.1011 138.1201 912.7587 134.481 913.1936 131.0417 913.6366 127.1078 915.9812 106.2944 920.6195 76.0411 919.1534 57.5541 908.1071 61.0002 905.6177 67.163 888.5086 65.6671 878.6143 64.8026 866.4143 58.8223 862.7131 53.1723 855.3572 41.9434 871.8797 13.2273 901.7461 26.6236 923.2483 36.2687 925.5883 54.7841 922.4949 81.8872" fill="#fffffe" fill-rule="evenodd"/>
<path transform="matrix(1,0,0,-1,0,907.0866)" d="M795.8387 330.696C802.0763 310.8691 804.1283 304.9002 822.2142 305.833 843.268 306.9193 846.9082 324.049 844.2635 331.2797 836.3665 328.9005 836.6406 325.4306 833.0289 319.235 832.3974 320.1358 831.799 321.88 831.7721 321.9168 829.8405 324.5669 830.5362 323.6391 827.4694 324.1108 818.5839 325.4766 831.6235 321.1231 824.8751 324.3393 829.4987 330.5803 844.2414 332.7165 852.4868 353.397 858.7199 369.0289 857.2694 364.686 879.402 381.7395 885.6003 386.5147 889.6096 389.6994 895.4124 394.6842 901.3671 399.7993 903.6879 402.2915 909.5771 408.1558 915.5358 414.0887 917.267 415.3558 922.8492 422.513 926.8401 427.6304 931.8447 433.3229 933.9752 439.5356L933.9333 447.4123 933.1478 449.2573C923.5321 431.185 910.1251 420.8749 897.2498 408.0444 894.2941 405.0989 893.0761 402.8794 889.8729 400.2514 884.8298 396.1137 877.8645 390.4506 872.4739 385.8866 855.1536 371.2226 854.5544 372.0713 842.7773 353.3692 835.8693 342.3991 815.3405 322.9067 809.7423 322.5824 802.7354 324.4175 802.0534 327.3131 795.8387 330.696" fill="#4e9a41" fill-rule="evenodd"/>
<path transform="matrix(1,0,0,-1,0,907.0866)" d="M506.408 757.1472 505.8221 768.3086C467.5082 773.1173 473.1049 702.6826 515.6603 716.5216 528.8542 720.8127 539.7746 736.1569 533.3329 753.7003 528.404 767.1234 512.051 779.243 516.9487 794.0324 529.4673 800.5453 533.0784 790.5523 529.8766 777.6187L539.8586 778.8078C545.8365 805.574 519.2836 812.0375 509.5913 799.8466 498.2125 785.5356 515.4364 766.4349 521.2962 756.6406 532.0556 738.6585 519.0058 719.9759 499.9255 725.637 482.2356 730.8856 486.9017 766.2569 506.408 757.1472" fill="#fffffe" fill-rule="evenodd"/>
<path transform="matrix(1,0,0,-1,0,907.0866)" d="M587.0798 363.8639C588.6556 361.065 588.5702 353.4585 589.3603 349.9764 590.4726 345.073 591.8318 341.1573 592.9829 336.5416 597.7942 319.6097 603.7551 296.9957 610.9174 282.9694 615.4914 290.0971 618.9148 301.9989 623.0906 310.7965 630.377 326.1472 627.4689 323.7766 620.3721 337.9793 607.8756 362.9891 606.2683 366.3777 586.1988 380.2Z" fill="#c7ab03" fill-rule="evenodd"/>
<path transform="matrix(1,0,0,-1,0,907.0866)" d="M618.0276 215.8486C618.0593 215.9254 615.5583 233.4883 615.9382 238.7823 617.5179 260.805 625.7021 280.2464 634.0589 299.8483 643.324 321.5784 643.955 318.0844 633.9325 339.0792 627.9199 351.6738 622.9284 361.222 613.7768 371.4157 596.986 390.1187 580.8864 402.3428 563.0757 427.0215L524.5424 490.2647C524.8434 485.4943 536.3518 457.844 539.3591 451.6614 571.6253 385.3298 595.2112 393.8394 613.031 367.8956 620.1867 357.478 625.519 345.6252 631.4136 333.7778 636.9163 322.7193 637.6717 326.0103 632.6816 314.9651 622.6194 292.6933 596.9577 231.6044 618.0276 215.8486" fill="#d5e5b2" fill-rule="evenodd"/>
<path transform="matrix(1,0,0,-1,0,907.0866)" d="M738.8257 245.6385C747.8436 230.1276 756.3912 171.6596 757.1211 152.9762 747.2854 153.5372 744.5985 157.3271 732.0858 154.8077 722.7167 152.9206 719.0796 149.4442 712.7442 146.5279 713.9279 116.8143 763.3616 112.498 759.8767 157.1856L749.5739 224.0368C747.6973 232.3511 745.1019 236.3244 742.9102 243.2767 751.1811 237.8985 752.7759 222.0673 753.9582 213.4692 755.7066 200.7499 756.3654 190.3859 758.8704 178.2133 761.2773 166.5167 763.8664 155.9818 761.6256 143.3132 759.0285 128.6325 752.826 128.1869 743.3311 121.3098 773.7276 123.9174 765.284 165.9617 762.1186 182.7714 756.6111 212.019 758.8525 241.6229 738.8257 245.6385" fill="#fffffe" fill-rule="evenodd"/>
<path transform="matrix(1,0,0,-1,0,907.0866)" d="M775.9579 594.906 753.099 571.5334C742.0589 560.0276 727.6598 551.0633 714.3001 542.6603 710.121 540.0315 702.3566 537.0293 699.0746 534.4075 694.6441 530.8676 694.6804 524.518 693.7478 517.593 692.3511 507.2284 691.6516 504.0646 700.655 500.1293 703.9349 503.8574 705.8934 518.1276 710.1683 528.7927 712.478 534.5558 713.022 535.0569 716.2447 537.3071 715.0034 525.407 705.9098 514.3136 706.9158 499.0782 716.7626 498.037 713.8528 508.6562 727.1722 531.2727 745.6606 562.665 775.8422 588.8041 812.7289 594.7455 823.3716 596.4599 823.0569 595.226 824.9142 593.1386 829.8198 594.8955 827.2942 592.1079 829.0672 597.4121 819.6239 597.9892 808.2746 598.0303 798.8304 597.5714 793.1585 597.2953 778.3812 593.1955 775.9579 594.906" fill="#c7ab03" fill-rule="evenodd"/>
<path transform="matrix(1,0,0,-1,0,907.0866)" d="M883.6166 76.5989C876.4679 75.047 869.3804 70.1076 863.5275 74.4058 861.0007 79.1359 862.8367 76.2494 862.7924 80.6301L859.2287 102.4398C856.7623 111.0129 858.4223 107.9634 860.3946 114.3578L850.8807 116.6528C853.9778 105.8803 856.8972 102.4914 858.7355 88.9705 860.3297 77.2438 859.7098 68.1273 860.7274 56.5608 877.4629 70.401 889.7669 73.5486 915.4772 64.2813 915.2977 82.1313 913.5235 95.669 911.3304 112.1579 909.6211 125.0065 911.2904 147.3613 902.2592 154.1265 899.5028 149.2705 899.0382 141.8839 896.478 136.7481 893.4506 130.676 890.5343 128.5072 890.2984 121.3815L896.682 117.4105 900.5698 90.3776C903.4021 78.0959 904.8824 81.2166 883.6166 76.5989" fill="#e5e00d" fill-rule="evenodd"/>
<path transform="matrix(1,0,0,-1,0,907.0866)" d="M715.5397 654.2436C703.6999 632.8372 635.3178 611.0745 603.8578 607.6848 565.9744 603.6026 522.2472 607.4546 491.1636 629.8668L479.0775 635.6081C473.0856 634.5298 483.9707 626.135 485.8994 624.7057 519.7272 599.6392 567.1358 596.2034 608.0698 602.0694 630.8286 605.3312 655.4242 612.3268 674.6468 621.0139 689.8912 627.9032 722.7023 643.7367 725.3005 656.4728 720.3146 656.4478 718.583 655.776 715.5397 654.2436" fill="#d5e5b2" fill-rule="evenodd"/>
<path transform="matrix(1,0,0,-1,0,907.0866)" d="M569.1844 501.8491C587.2564 499.9167 605.2609 476.1128 663.9483 495.0995 681.5271 500.7869 685.3541 506.7388 689.6486 504.2682 688.4059 513.2653 689.2792 517 689.6854 525.659 681.5733 522.7926 672.4213 516.6998 664.0982 512.7282 643.6542 502.9733 621.6208 496.6517 598.714 501.0809 585.6165 503.6134 579.5257 509.5851 569.4146 512.8761Z" fill="#4e9a41" fill-rule="evenodd"/>
<path transform="matrix(1,0,0,-1,0,907.0866)" d="M630.1587 788.3317 645.5149 789.317 617.2702 733.7679C624.7185 732.9268 641.2141 736.1952 649.5248 737.2689 661.8609 738.8623 671.7107 738.7379 675.6627 748.3893 685.6903 772.8752 643.5782 778.3166 646.5603 752.1103 657.7648 749.0645 653.6778 755.2043 657.1168 758.7952 660.7329 762.5713 669.2423 760.4861 667.5134 752.7387 665.8815 745.4276 639.8776 745.0356 632.5452 744.6214 636.0928 757.1327 657.6684 788.9216 661.5952 800.5011 655.202 800.3676 648.8946 798.9335 642.5408 798.1517 632.5594 796.9235 631.2872 798.5154 630.1587 788.3317" fill="#fffffe" fill-rule="evenodd"/>
<path transform="matrix(1,0,0,-1,0,907.0866)" d="M593.4963 649.7932C599.5826 640.7657 609.8383 643.8438 614.6957 650.5756 620.259 658.2844 619.6836 669.0866 619.9557 679.7999 624.4821 682.4483 626.0939 684.1083 631.6129 684.8606 639.6823 669.7582 636.3558 648.5083 628.0929 637.1629 616.57 621.3399 596.1937 634.5051 593.4963 649.7932ZM572.4247 668.4956C576.3112 660.0932 579.2649 662.9621 586.1622 659.8857 589.6582 645.3315 598.1162 618.9727 621.2684 627.395 643.8677 635.616 638.9002 670.7999 639.2225 678.4455 636.429 681.2589 636.7272 683.2723 635.7461 687.5025 640.7997 692.0671 647.5039 692.5224 653.2719 696.0078 636.2708 703.1268 595.1424 663.0741 579.1405 665.0393 572.904 670.2715 576.3025 669.1924 572.1636 674.9844Z" fill="#010003" fill-rule="evenodd"/>
<path transform="matrix(1,0,0,-1,0,907.0866)" d="M756.6021 717.7085C753.5894 714.6099 753.8445 713.9146 752.4675 706.1774 751.6389 701.5192 751.0609 697.5944 750.7653 692.9393 750.1241 682.848 750.793 674.6199 751.5794 664.9781 758.0755 658.9349 754.9401 654.124 769.6976 653.0366 771.2507 655.0875 770.9845 653.4065 770.8351 657.5457 771.09 671.0029 767.8803 680.1049 770.1069 696.7329 772.1147 711.7231 775.4786 717.9823 781.1317 729.0961 780.8692 729.311 780.5792 729.6778 780.4298 729.8331L777.5586 732.786C767.1053 740.8517 758.9276 723.8812 756.6021 717.7085" fill="#70b849" fill-rule="evenodd"/>
<path transform="matrix(1,0,0,-1,0,907.0866)" d="M535.0711 360.2891C532.2847 377.1065 527.7376 389.8823 526.0504 408.4231 524.4718 425.7737 524.3675 443.1793 523.2569 460.5409 518.0916 464.8266 510.6974 469.2691 504.2897 472.2608 506.1662 463.7435 506.1407 450.1015 507.5405 440.5133 509.0244 430.3466 511.6059 420.6648 514.389 411.4449 522.0334 386.121 522.2001 388.3294 531.4212 367.6161 531.7418 366.8956 532.4885 365.1525 532.7164 364.682Z" fill="#c7ab03" fill-rule="evenodd"/>
<path transform="matrix(1,0,0,-1,0,907.0866)" d="M722.4897 217.851C739.6152 215.6409 743.3694 179.3704 745.3539 160.8449L736.024 158.5511 753.0265 157.6395 745.1969 214.494C744.0911 223.4931 742.714 231.8281 738.3546 239.0975 732.9784 248.0615 728.5728 247.661 716.1409 245.4032 720.0465 234.2534 722.1665 232.0098 722.4897 217.851" fill="#c7ab03" fill-rule="evenodd"/>
<path transform="matrix(1,0,0,-1,0,907.0866)" d="M540.8974 630.9156C518.7231 628.1116 515.2853 657.3379 518.7404 676.6311L527.383 673.0384C527.2546 657.51 532.4179 634.2423 548.2335 647.0093 547.88 638.4345 545.1401 636.3714 540.8974 630.9156ZM505.2688 681.8094 514.8499 679.4237C510.8301 620.7063 539.2619 620.3018 547.7984 633.2306 552.6281 640.5452 552.9461 649.8488 553.1105 659.8857 560.6138 666.8235 558.2945 662.6477 560.391 675.0805 555.8842 673.0917 556.8987 671.4388 556.1617 666.0071 546.1869 666.2591 527.521 678.136 515.3057 683.0841 498.8874 689.7348 502.1969 684.832 501.086 683.9416 507.1836 682.878 503.7324 683.0124 505.2688 681.8094" fill="#010003" fill-rule="evenodd"/>
<path transform="matrix(1,0,0,-1,0,907.0866)" d="M203.5429 611.4464C189.1066 602.725 193.4983 568.9672 234.9099 592.6207 248.3172 600.2787 254.8443 595.6322 266.3277 601.223 275.8263 605.8474 279.7997 613.6223 281.4633 627.0806 281.1677 626.8309 280.7595 626.8008 280.6359 626.2659L277.9342 622.7977C266.9136 605.0602 263.4863 612.5233 239.8218 606.9359 230.4332 604.7189 196.9444 586.3677 203.5429 611.4464" fill="#4e9a41" fill-rule="evenodd"/>
<path transform="matrix(1,0,0,-1,0,907.0866)" d="M802.4094 455.5443C808.1705 452.1002 811.7566 445.2571 816.5469 438.8389 820.9562 432.9312 827.4946 426.6927 830.461 420.4151L849.5107 447.5324C852.349 451.7683 850.5751 445.693 852.5415 454.1321 830.9492 453.227 822.9376 462.9294 805.6001 466.0574Z" fill="#096a31" fill-rule="evenodd"/>
<path transform="matrix(1,0,0,-1,0,907.0866)" d="M593.4963 649.7932C596.1937 634.5051 616.57 621.3399 628.0929 637.1629 636.3558 648.5083 639.6823 669.7582 631.6129 684.8606 626.0939 684.1083 624.4821 682.4483 619.9557 679.7999 619.6836 669.0866 620.259 658.2844 614.6957 650.5756 609.8383 643.8438 599.5826 640.7657 593.4963 649.7932" fill="#fffffe" fill-rule="evenodd"/>
<path transform="matrix(1,0,0,-1,0,907.0866)" d="M545.946 502.8024 538.7122 517.0473C545.5159 512.0816 545.8365 505.7989 552.9447 501.713 551.4454 509.7288 548.8418 514.8573 548.8943 523.074 554.1248 516.2304 554.2398 496.6855 563.7472 502.4582 563.9839 502.7533 564.2405 503.6454 564.3003 503.4504 564.3017 503.445 566.7403 505.3734 564.3507 515.2518 561.7188 526.1309 555.3706 521.335 536.7886 534.8548 537.0846 531.0136 537.3907 532.2583 538.0968 528.7669 539.2066 523.2796 538.7522 523.427 537.421 521.5654 532.1205 531.4802 534.1326 536.2824 525.1842 543.7528 518.4635 549.3637 512.3931 555.2433 506.0852 560.1396 510.8627 538.4239 532.6722 509.1171 545.946 502.8024" fill="#e5e00d" fill-rule="evenodd"/>
<path transform="matrix(1,0,0,-1,0,907.0866)" d="M775.5423 468.5207C778.2415 463.5893 782.2633 401.5182 783.3424 390.183 786.2406 392.682 792.3492 401.5344 792.3379 405.3124 792.267 428.8791 786.1467 422.9867 795.4078 460.3411 795.5663 460.9809 796.6267 465.4868 796.6576 465.8664 796.773 467.2718 796.8489 465.8992 796.695 468.0652 796.5085 470.6861 796.7322 469.5608 795.9336 471.3191 788.953 473.6316 779.4797 474.8445 775.5423 468.5207" fill="#4e9a41" fill-rule="evenodd"/>
<path transform="matrix(1,0,0,-1,0,907.0866)" d="M848.2 533.2966C856.942 528.4854 867.7664 523.8181 877.1253 518.7937 892.6098 510.482 916.4874 494.5465 927.2081 481.845 933.1866 474.7623 938.7981 458.7803 933.9333 447.4123L933.9752 439.5356C954.8969 474.9514 934.3993 487.1801 913.873 503.0518 902.5608 511.799 864.3699 535.2922 846.8198 539.2191Z" fill="#d5e5b2" fill-rule="evenodd"/>
<path transform="matrix(1,0,0,-1,0,907.0866)" d="M538.9838 738.6568C551.2816 739.7467 546.8204 745.5458 552.8911 764.7154 554.8283 770.8326 554.3765 771.0443 559.8088 771.7569 564.4162 764.5365 555.7385 749.4894 556.1277 740.6331 567.7325 741.4872 565.5294 745.0021 568.1115 756.6032 570.3687 766.745 571.7866 771.3833 568.5242 780.321 562.7874 781.7618 562.261 781.3573 556.5574 779.4422L560.2079 797.87C551.0877 797.3561 551.3315 797.648 549.4691 789.099 548.153 783.0573 546.8984 778.0958 545.5264 772.35 543.1113 762.2334 539.7304 749.035 538.9838 738.6568" fill="#fffffe" fill-rule="evenodd"/>
<path transform="matrix(1,0,0,-1,0,907.0866)" d="M830.461 420.4151C827.4946 426.6927 820.9562 432.9312 816.5469 438.8389 811.7566 445.2571 808.1705 452.1002 802.4094 455.5443 799.1926 438.3456 797.451 429.2419 799.1371 410.0964 802.7765 410.1344 804.7534 410.7472 808.4171 410.7841 813.3758 410.8337 815.1681 409.5703 818.7831 409.4725 823.6928 409.3393 828.2812 416.1212 830.461 420.4151" fill="#c7ab03" fill-rule="evenodd"/>
<path transform="matrix(1,0,0,-1,0,907.0866)" d="M848.802 135.0323C849.8863 127.4683 857.4849 119.1648 863.5952 115.0676 869.9386 117.0207 880.71 119.1909 887.1347 121.3543 887.5312 130.1479 884.6762 140.8516 879.7144 145.6126 875.5078 145.9704 852.169 137.1393 848.802 135.0323" fill="#e5e00d" fill-rule="evenodd"/>
<path transform="matrix(1,0,0,-1,0,907.0866)" d="M715.5397 654.2436C718.583 655.776 720.3146 656.4478 725.3005 656.4728 733.8325 668.5676 741.691 714.2717 721.368 726.5599L712.3876 722.5041C717.2603 713.4497 723.583 709.7618 722.9163 690.2379 722.5257 678.8066 718.7377 664.5858 715.5397 654.2436" fill="#4e9a41" fill-rule="evenodd"/>
<path transform="matrix(1,0,0,-1,0,907.0866)" d="M592.8035 777.0546C593.5938 771.0015 588.6454 746.9374 581.7614 753.5911 578.6212 756.6267 581.9355 764.7883 583.2094 768.9305 585.2554 775.5831 585.0383 777.9107 592.8035 777.0546ZM587.8352 785.7085C577.2722 782.2273 575.9133 774.4371 572.79 762.8295 569.7632 751.5819 571.8844 739.624 586.1273 744.1191 595.6665 747.1301 598.0686 756.5426 600.679 766.7671 603.6517 778.4116 601.8857 790.3389 587.8352 785.7085" fill="#fffffe" fill-rule="evenodd"/>
<path transform="matrix(1,0,0,-1,0,907.0866)" d="M466.5305 710.7735C466.4894 717.3102 467.2565 723.4342 467.9527 729.9317L469.6325 742.8399C472.4073 752.1622 466.8171 736.1357 470.4707 745.0665L471.5853 747.2021C472.2049 755.5048 476.4044 761.7073 479.4333 767.069 483.4556 781.7241 496.0151 789.6719 494.9172 805.1681L494.2327 811.3419C487.8351 807.5395 474.4692 779.0726 471.1156 769.2636 466.6422 756.1817 459.0198 727.4614 461.5682 712.3575Z" fill="#d5e5b2" fill-rule="evenodd"/>
<path transform="matrix(1,0,0,-1,0,907.0866)" d="M736.024 158.5511 745.3539 160.8449C743.3694 179.3704 739.6152 215.6409 722.4897 217.851 721.3691 191.2603 719.0382 208.4967 727.4316 193.8266 731.5512 186.6263 732.7318 181.0329 735.2252 173.8426 740.2521 159.3434 722.3562 157.6477 708.9806 156.7718L710.5252 148.9499C719.9507 154.4272 721.2523 157.5717 736.024 158.5511" fill="#e5e00d" fill-rule="evenodd"/>
<path transform="matrix(1,0,0,-1,0,907.0866)" d="M791.7596 620.6839C791.4906 616.5896 791.3237 619.8052 793.1724 618.6688 808.5317 623.8545 848.8709 616.5113 864.1074 613.3615L861.5874 610.808C861.4519 610.6677 861.0829 610.327 860.9576 610.1923 858.64 607.7083 858.49 611.096 859.9975 608.8351 868.1003 608.2138 887.2081 614.5237 893.5688 617.7756 874.5644 619.9498 859.034 620.3767 840.1065 624.0696 831.937 625.6636 823.7557 627.3717 815.2549 627.5925 799.708 627.9965 794.2694 627.9766 791.7596 620.6839" fill="#d5e5b2" fill-rule="evenodd"/>
<path transform="matrix(1,0,0,-1,0,907.0866)" d="M535.1468 723.5456C549.1698 723.7602 582.5421 729.3716 600.3916 731.2944 611.6142 732.5033 612.4689 731.3556 615.441 741.4376 601.2386 740.5067 585.9811 738.0992 571.9241 736.4441 564.1577 735.5299 557.1009 734.4726 549.8555 733.5258 537.8468 731.9563 536.2628 734.6801 535.1468 723.5456" fill="#fffffe" fill-rule="evenodd"/>
<path transform="matrix(1,0,0,-1,0,907.0866)" d="M602.9872 747.1264C610.2839 742.4759 614.3278 744.8927 618.0454 752.4026L615.9433 753.3371C610.0869 756.9652 611.2043 756.6976 614.8307 771.8729 619.9526 793.3065 616.7789 784.5968 625.8121 788.0641 626.9579 797.2523 626.0049 795.6828 621.7347 797.6109 621.5111 797.7118 620.9952 797.7679 620.6862 797.97L622.2467 804.8123C611.8214 804.5317 612.5443 805.9637 610.7428 796.6329 609.6946 791.2009 608.6197 786.02 607.4283 780.8726 605.1869 771.1883 600.6195 757.1171 602.9872 747.1264" fill="#fffffe" fill-rule="evenodd"/>
<path transform="matrix(1,0,0,-1,0,907.0866)" d="M828.9215 292.9051 825.4843 299.9696C793.3535 302.0709 806.9253 308.0707 795.6986 311.6265 784.4871 315.1774 786.6094 310.7237 779.7141 323.3546 776.1387 329.9034 778.8053 325.1582 771.5767 328.9796 765.7291 332.0717 765.0615 336.2156 762.9032 341.0609 762.7635 341.3741 762.5792 341.7883 762.448 342.0689L760.8427 344.9475C759.5558 332.6783 768.2837 324.7571 777.9197 314.6511 787.1627 304.9566 790.2479 304.9946 795.0665 299.9894 802.2438 292.5343 808.9157 285.9605 822.867 291.8237 827.5496 293.7912 822.7828 294.8139 828.9215 292.9051" fill="#4e9a41" fill-rule="evenodd"/>
<path transform="matrix(1,0,0,-1,0,907.0866)" d="M705.8322 291.1725C702.8646 285.3726 698.1129 279.7118 695.719 271.459 707.7787 269.4368 719.835 261.3076 734.5979 261.4893 732.2343 267.0199 726.8644 272.5461 723.8015 279.7744 719.6715 289.5208 723.5674 290.3204 705.8322 291.1725" fill="#096a31" fill-rule="evenodd"/>
<path transform="matrix(1,0,0,-1,0,907.0866)" d="M770.8351 657.5457C770.9845 653.4065 771.2507 655.0875 769.6976 653.0366 754.9401 654.124 758.0755 658.9349 751.5794 664.9781 752.972 652.3736 757.1806 641.5761 764.1181 633.5915 775.1435 620.9028 782.7287 626.9267 793.0834 633.7188 792.8518 633.9728 792.4164 634.6335 792.2857 634.3727L790.6277 635.5344C781.4696 640.5185 780.476 638.9376 773.6803 652.7438 773.528 653.0533 773.3767 653.4139 773.2157 653.7212Z" fill="#4e9a41" fill-rule="evenodd"/>
<path transform="matrix(1,0,0,-1,0,907.0866)" d="M540.8974 630.9156C545.1401 636.3714 547.88 638.4345 548.2335 647.0093 532.4179 634.2423 527.2546 657.51 527.383 673.0384L518.7404 676.6311C515.2853 657.3379 518.7231 628.1116 540.8974 630.9156" fill="#fffffe" fill-rule="evenodd"/>
<path transform="matrix(1,0,0,-1,0,907.0866)" d="M160.469 607.9181C165.3919 597.9662 175.8997 593.9909 189.9751 593.78 190.8944 607.3696 192.7165 605.1379 195.3856 614.3176 179.6389 623.391 186.6246 622.6869 179.5309 629.6652 180.7696 621.2633 181.2711 618.7997 174.5277 614.3632 171.0471 612.0734 163.6982 608.4802 160.469 607.9181" fill="#4e9a41" fill-rule="evenodd"/>
<path transform="matrix(1,0,0,-1,0,907.0866)" d="M186.2904 630.6809C196.634 609.4599 203.1863 621.921 216.8606 628.6884 223.5305 631.9894 230.4601 633.2834 235.5471 637.7919 233.9623 640.3028 233.475 640.938 230.8864 642.9266 224.5618 647.7857 227.3309 643.7497 225.3988 648.832L224.7333 646.3653C224.5028 641.0934 225.0238 644.5817 226.0956 638.7471 218.2442 637.6088 212.8499 638.6244 204.8922 636.5917 197.6298 634.7364 193.4603 631.2135 186.2904 630.6809" fill="#4e9a41" fill-rule="evenodd"/>
<path transform="matrix(1,0,0,-1,0,907.0866)" d="M756.6021 717.7085C758.9276 723.8812 767.1053 740.8517 777.5586 732.786L780.4298 729.8331C780.5792 729.6778 780.8692 729.311 781.1317 729.0961 787.5643 737.7021 788.6424 741.9149 803.6016 741.8296 797.8827 750.3985 785.5804 758.8559 773.119 747.6075 767.7244 742.7381 756.6174 728.0467 756.6021 717.7085" fill="#d5e5b2" fill-rule="evenodd"/>
<path transform="matrix(1,0,0,-1,0,907.0866)" d="M472.0745 637.2298C474.9171 646.4305 466.0155 663.9987 465.1923 683.3999 464.7285 694.3303 467.5294 696.2922 459.0136 699.8743 456.9435 685.7711 456.33 679.3577 459.3506 664.3823L466.1853 642.3228C468.8666 637.4373 467.9989 638.8095 472.0745 637.2298" fill="#70b849" fill-rule="evenodd"/>
<path transform="matrix(1,0,0,-1,0,907.0866)" d="M445.1627 588.617C451.8014 585.3855 492.0188 568.2169 497.2105 568.6968 493.2235 580.3733 485.8852 581.0233 472.2707 586.2025 463.5672 589.5136 448.6581 595.8164 440.699 597.4557Z" fill="#d5e5b2" fill-rule="evenodd"/>
<path transform="matrix(1,0,0,-1,0,907.0866)" d="M608.3368 275.0003C597.8917 275.6991 592.4004 274.8603 583.2901 271.8802 586.4766 262.4916 595.5585 249.1883 600.8037 243.1565Z" fill="#d3d801" fill-rule="evenodd"/>
<path transform="matrix(1,0,0,-1,0,907.0866)" d="M674.9328 194.5397C683.0592 179.5303 717.8811 199.0386 719.0507 200.0631 708.3 218.9463 692.7613 199.2626 687.7386 197.5363 682.2488 195.6492 679.1581 197.4886 674.9328 194.5397" fill="#e5e00d" fill-rule="evenodd"/>
<path transform="matrix(1,0,0,-1,0,907.0866)" d="M691.4183 245.6308C703.673 239.7688 710.6743 246.549 707.7934 211.5955L718.4645 207.9079C723.3171 247.5703 699.3567 255.0101 691.4183 245.6308" fill="#f9f7cc" fill-rule="evenodd"/>
<path transform="matrix(1,0,0,-1,0,907.0866)" d="M483.8618 637.1087C486.1987 641.2348 483.4383 645.4346 482.0199 651.083L476.8571 683.3608C476.1938 694.3465 479.3581 694.4516 469.6121 695.9375 469.4686 676.3544 470.9506 666.2208 476.0654 648.1757 478.1942 640.6676 477.6962 639.4501 483.8618 637.1087" fill="#70b849" fill-rule="evenodd"/>
<path transform="matrix(1,0,0,-1,0,907.0866)" d="M501.7204 627.8125C499.8266 632.5534 497.9129 633.6649 496.1497 638.9719 495.0519 642.276 493.287 649.0828 492.4063 653.0462 490.157 663.1662 489.4024 673.2028 487.4732 683.5045L484.9441 687.5025 489.7052 691.2326 481.1494 692.9297C480.3571 677.8491 481.8481 668.0259 485.4073 654.4613 488.6677 642.0353 490.8986 632.0883 501.7204 627.8125" fill="#f9f7cc" fill-rule="evenodd"/>
<path transform="matrix(1,0,0,-1,0,907.0866)" d="M775.4683 701.0629 778.2602 703.7957C786.6774 731.2363 808.2312 741.217 813.1153 704.1186L813.693 712.3428C813.9929 724.6766 806.7402 747.3234 791.7585 735.9154 784.1169 730.097 776.2762 714.5753 775.4683 701.0629" fill="#d5e5b2" fill-rule="evenodd"/>
<path transform="matrix(1,0,0,-1,0,907.0866)" d="M889.4854 133.3689C896.7515 139.8552 905.9343 175.7871 885.4379 179.2273 887.7124 168.8162 891.7194 167.6568 886.7883 154.7396 882.2322 142.8043 886.5686 145.491 889.4854 133.3689" fill="#fffffe" fill-rule="evenodd"/>
<path transform="matrix(1,0,0,-1,0,907.0866)" d="M146.9713 589.4552C153.5647 574.0432 168.5322 577.9559 180.9584 588.0813 178.0603 590.4967 172.3031 591.391 168.5639 593.0606 163.1251 595.4882 160.977 597.8293 157.0252 600.0517 159.0814 592.3446 154.1486 587.3085 146.9713 589.4552" fill="#4e9a41" fill-rule="evenodd"/>
<path transform="matrix(1,0,0,-1,0,907.0866)" d="M721.4995 288.2259C725.2756 282.2063 734.7118 265.5981 739.3479 261.6415L747.3056 262.7887C746.7979 268.1484 740.6246 274.0589 737.4115 278.242 731.948 285.355 733.3197 287.8846 721.4995 288.2259" fill="#c7ab03" fill-rule="evenodd"/>
<path transform="matrix(1,0,0,-1,0,907.0866)" d="M479.4333 767.069C503.267 781.1759 498.7108 775.4678 497.791 791.0671 497.3786 798.0642 498.2536 799.7176 494.9172 805.1681 496.0151 789.6719 483.4556 781.7241 479.4333 767.069" fill="#70b849" fill-rule="evenodd"/>
<path transform="matrix(1,0,0,-1,0,907.0866)" d="M893.9151 81.2798C900.7773 82.9015 897.7966 81.2908 899.3928 85.4524 894.8248 90.2333 885.4931 88.0586 878.9601 86.5437 870.6586 84.619 865.3671 84.6774 866.7247 76.1683Z" fill="#70b849" fill-rule="evenodd"/>
<path transform="matrix(1,0,0,-1,0,907.0866)" d="M494.9498 742.5876C495.2021 742.3741 495.6171 742.3965 495.7458 741.9957L498.3778 740.5931C504.8056 737.7202 502.2082 739.8782 505.6183 734.1202 505.7725 733.8597 505.9278 733.4819 506.0911 733.231L508.8495 730.2081C511.1827 740.1892 512.4212 739.8354 519.3604 745.1223 511.1464 747.8439 513.3708 746.5674 508.9331 751.2381L505.3541 754.4163C503.4129 747.03 502.2751 745.31 494.9498 742.5876" fill="#fffffe" fill-rule="evenodd"/>
<path transform="matrix(1,0,0,-1,0,907.0866)" d="M861.0194 104.8255C866.7595 104.9797 870.8743 107.7188 876.9509 109.3765 881.8682 110.7179 890.1482 110.7448 893.8823 112.6959 892.5109 117.8722 892.9548 117.5479 885.7372 117.3076 879.5347 117.1009 871.2828 115.2181 865.9267 112.1669 862.151 110.0166 861.2249 109.5174 861.0194 104.8255" fill="#70b849" fill-rule="evenodd"/>
<path transform="matrix(1,0,0,-1,0,907.0866)" d="M592.8035 777.0546C585.0383 777.9107 585.2554 775.5831 583.2094 768.9305 581.9355 764.7883 578.6212 756.6267 581.7614 753.5911 588.6454 746.9374 593.5938 771.0015 592.8035 777.0546" fill="#010003" fill-rule="evenodd"/>
<path transform="matrix(1,0,0,-1,0,907.0866)" d="M863.2497 95.9746C870.8406 96.2518 873.0711 98.9518 880.2819 100.546 885.1808 101.6294 892.4706 100.65 896.1968 103.4033 893.9081 109.6226 882.9692 107.3676 877.5856 105.9551 866.6864 103.0958 864.1335 102.1476 863.2497 95.9746" fill="#70b849" fill-rule="evenodd"/>
<path transform="matrix(1,0,0,-1,0,907.0866)" d="M864.6576 86.4998C870.7329 87.2099 874.5004 89.6828 880.3899 90.8566 888.5529 92.4834 892.9089 90.957 897.4392 93.7375 895.6366 98.1893 899.7693 95.9026 893.7729 97.6028 889.6402 98.7744 874.8539 95.7424 869.5006 93.4472 864.9935 91.5148 865.2311 91.5335 864.6576 86.4998" fill="#70b849" fill-rule="evenodd"/>
<path transform="matrix(1,0,0,-1,0,907.0866)" d="M701.049 176.8731C705.6763 173.1203 708.709 176.1619 715.1709 178.5529 717.9542 179.583 719.5935 180.144 722.4307 181.0477 728.7389 183.0572 726.533 180.8592 728.6332 184.8736 726.2178 188.8659 727.3466 188.6661 720.7169 187.1351 715.0272 185.8212 702.5406 182.2657 701.049 176.8731" fill="#70b849" fill-rule="evenodd"/>
<path transform="matrix(1,0,0,-1,0,907.0866)" d="M698.531 184.2426C701.1091 181.5874 700.403 182.0497 705.3919 184.1187 709.6116 185.8686 723.1198 190.3323 725.3864 193.1587 721.1438 197.4251 715.9742 194.6871 709.8058 192.2502 697.7945 187.5047 698.3413 188.0198 698.531 184.2426" fill="#70b849" fill-rule="evenodd"/>
<path transform="matrix(1,0,0,-1,0,907.0866)" d="M707.819 161.3991C712.2481 158.4819 718.5254 161.113 723.2318 162.3158 730.4876 164.1699 732.2777 163.046 733.756 169.926 727.5297 170.3784 723.1068 169.4007 717.8672 167.665 713.2799 166.1462 709.3752 165.2289 707.819 161.3991" fill="#70b849" fill-rule="evenodd"/>
<path transform="matrix(1,0,0,-1,0,907.0866)" d="M704.7493 169.6844C707.2685 166.068 703.8417 166.0734 710.4288 167.9771L731.1266 175.2077C728.4093 181.0862 724.2182 178.4194 717.5574 176.3093 711.3155 174.3313 706.6341 173.1461 704.7493 169.6844" fill="#70b849" fill-rule="evenodd"/>
<path transform="matrix(1,0,0,-1,0,907.0866)" d="M849.894 122.9227C845.6448 130.2979 841.5629 131.2288 846.392 140.114L839.1487 145.8714C835.8163 131.8088 841.1905 127.0828 849.894 122.9227" fill="#f9f7cc" fill-rule="evenodd"/>
<path transform="matrix(1,0,0,-1,0,907.0866)" d="M661.9915 654.3967C664.0747 654.717 662.976 652.3583 665.1865 655.3902 668.344 659.7215 665.0892 658.7657 665.0456 658.8774 661.1791 659.9577 659.1954 659.4276 661.9915 654.3967" fill="#010003" fill-rule="evenodd"/>
<path transform="matrix(1,0,0,-1,0,907.0866)" d="M669.5855 678.5291 670.5043 683.2624C662.8331 682.8284 664.0044 678.7474 669.5855 678.5291" fill="#010003" fill-rule="evenodd"/>
</g>
</svg>
