<svg xmlns="http://www.w3.org/2000/svg" xmlns:xlink="http://www.w3.org/1999/xlink" xmlns:inkscape="http://www.inkscape.org/namespaces/inkscape" version="1.1" width="1360.6299" height="907.0866" viewBox="0 0 1360.6299 907.0866">
<g inkscape:groupmode="layer" inkscape:label="Layer 1">
<path transform="matrix(1,0,0,-1,0,907.0866)" d="M664.177 317.0928C684.6026 334.6659 697.0144 348.211 714.5921 369.0524L761.3527 425.23C755.4458 388.4017 703.0729 324.1596 664.177 317.0928ZM564.4791 442.3859C580.1071 443.6603 598.8515 439.8922 615.4333 439.5824 633.2703 439.2496 651.1861 438.8936 669.0214 439.8625 685.8822 440.7783 702.0609 442.2849 718.7176 443.9795L764.8651 449.6414C763.4489 441.1057 734.6415 427.5918 724.5723 424.6999 674.608 410.3504 609.9026 421.4095 564.4791 442.3859ZM362.4888 660.8631C365.309 666.2673 368.5246 669.685 367.3233 679.5814L381.7647 671.8538C387.4516 669.3599 381.2054 673.5067 386.0444 668.6674 377.2352 662.7203 380.5243 662.0678 379.6608 650.7921 374.8555 654.078 377.1624 654.5186 372.7613 657.1437 368.206 659.8613 366.2946 658.734 362.4888 660.8631ZM718.9948 758.9945C721.2662 763.4923 721.5579 763.825 726.0673 765.2149 734.9499 762.0562 736.3811 752.1273 724.2829 750.4087 720.3557 753.3496 720.2384 752.7889 718.9948 758.9945ZM689.9587 756.756C689.5945 774.3325 707.6466 758.177 689.9587 756.756ZM478.8536 784.7269C479.2754 779.4145 479.416 773.3707 483.0766 769.3271 485.8149 766.3025 486.2103 767.2028 489.424 765.186 495.5939 761.3133 491.9321 764.1839 494.2162 760.5173 473.3592 756.553 482.6798 751.0961 472.7103 741.4194 467.9921 748.0933 474.0829 752.7969 463.3466 760.1992 453.3902 767.0633 467.8934 756.2832 460.131 762.3011L458.3801 764.3469C462.5714 767.751 467.0575 769.1219 470.0373 772.3267 475.4874 778.1896 470.9007 779.9587 478.8536 784.7269ZM336.2678 635.4904C337.441 626.9871 335.7853 610.2442 335.9132 600.1889 336.0589 588.786 337.0209 578.3321 338.5457 567.6667 340.3857 554.7932 345.8792 518.7061 352.853 511.808 359.5771 511.7706 359.4175 512.8333 366.3842 515.6711 378.2968 520.5237 378.7713 516.3565 378.7946 516.3426L348.1894 499.9779C328.2146 489.6771 274.4753 459.8464 270.4331 442.802 262.421 412.0716 301.1893 387.0921 326.1702 369.7367 360.1587 346.1227 333.4836 333.184 395.799 307.5846 406.5276 303.1767 420.1909 295.4837 429.5883 304.3879L447.9528 331.9914C452.0018 337.4762 466.9072 333.7413 465.8607 353.9256 465.2215 366.264 456.7691 372.6726 445.9476 375.0075 445.7594 374.7314 445.7336 374.1843 445.7143 374.0329L445.9476 367.9336C436.1298 370.1305 427.4388 376.3621 423.5905 382.9056L438.5115 378.6846C434.9942 393.6509 421.2482 401.2449 402.2283 397.5831 384.5546 394.1804 396.6219 393.15 380.2941 398.92 365.476 404.1564 362.2955 395.0745 358.5223 395.7406 341.6692 405.5139 315.7189 415.048 314.1899 434.2391 319.4841 432.4405 316.9667 432.2426 322.6524 430.8403 329.8073 441.9615 372.4296 468.7707 390.3894 473.3833 387.9442 467.3747 385.0336 466.2723 380.0801 461.7193 381.7698 445.5295 403.7522 417.026 413.8228 405.8158 445.5329 401.7912 436.2537 388.5948 449.2814 382.2517 464.0638 375.0545 476.4155 370.7861 473.7557 347.0054 479.6436 345.0753 486.258 338.3887 493.465 333.798 530.337 310.3089 577.8476 297.7288 622.6064 299.3502 649.6274 300.3293 656.261 304.7372 678.1544 309.9728 698.061 313.7031 738.7002 358.3023 749.9132 374.7583 765.93 398.2643 785.3579 436.1153 789.9608 470.2226 781.0169 469.0851 766.6574 463.6406 756.0425 461.4375 678.6465 445.3741 564.2195 447.1733 496.3808 479.3839 464.3419 494.5961 426.9654 534.342 439.4353 587.0418 446.779 618.0749 469.3266 644.8762 492.0389 662.9352 497.9203 667.6115 512.4268 676.0233 515.9151 680.5913 514.3037 682.4645 510.946 678.8126 518.2248 684.5494L535.6585 696.0008C579.2868 723.562 642.7857 738.2812 694.6041 731.2671 719.1618 727.943 731.7116 718.3562 746.816 707.3464 759.5025 697.0127 788.7302 686.1249 798.7088 663.7598 804.7213 672.9593 795.1371 694.6929 792.0451 703.5942 778.3373 743.0559 773.8883 740.8823 754.5436 730.9607 758.3372 752.9658 750.7154 755.7758 739.1452 765.8408L757.2878 761.7626C753.9457 768.39 752.1548 770.4904 746.7891 773.3523 744.6393 772.818 730.3272 784.7076 726.09 787.6142 717.8255 793.2844 709.8194 796.9187 700.8724 801.5944 683.7817 810.5255 664.8928 816.8153 644.3838 821.9704 649.4822 810.1964 651.6975 814.47 660.3633 807.1679 659.0968 806.0168 659.3411 805.9221 656.7228 804.5501 656.2443 804.2992 654.6906 803.8431 654.2056 803.6232 651.1861 802.2521 651.5963 803.2595 649.0874 800.3775 647.2984 798.3238 645.0806 792.7053 643.7931 790.0767 638.0952 796.2576 644.0202 795.5184 637.5368 800.7301 633.2434 804.1819 632.6138 802.0097 628.3695 807.2118 635.7249 810.4133 638.5297 811.9378 641.281 821.7357L616.1312 826.7944C617.1466 829.9791 634.7254 845.4407 609.5602 854.7026L597.9662 859.4957C580.8546 854.115 574.9183 839.4384 559.728 836.5742 540.9244 833.0289 527.0443 831.278 509.762 825.4783 451.8493 806.0445 405.7174 770.2713 372.4523 720.0471 362.4979 705.0175 335.6977 655.5081 336.2678 635.4904" fill="#6bb63f" fill-rule="evenodd"/>
<path transform="matrix(1,0,0,-1,0,907.0866)" d="M437.0264 56.9979C416.643 57.0081 413.8583 59.4414 398.7113 64.2708 410.3467 99.9635 489.1414 99.9924 495.9088 68.508 485.5955 59.0196 453.6694 56.99 437.0264 56.9979ZM1088.8648 771.7476 1089.1098 760.7373 1087.331 745.5711C1086.067 735.319 1085.2968 725.2815 1084.3167 714.9288 1081.805 688.3906 1085.707 689.3501 1075.7708 688.8118L1074.479 691.7326C1071.6043 701.8948 1075.3328 682.7074 1073.7326 694.8697 1073.5172 696.5065 1073.8191 699.618 1073.982 701.3492 1075.0603 712.8031 1076.8775 730.0695 1075.2586 740.8012 1069.3922 744.6047 1048.4345 750.7213 1039.2905 746.5499L1046.0075 744.7119C1057.7744 744.0999 1063.6741 743.7064 1072.7904 739.9976 1070.0354 735.7745 1074.7426 738.8719 1067.1338 735.2212L1047.1382 730.2402C1051.2748 728.3854 1055.368 729.9062 1060.6958 731.3006 1065.6414 732.5955 1069.1631 733.6534 1073.9024 734.3629L1070.8842 691.4154 1061.5929 688.83C1048.0895 686.9809 1054.0117 686.6518 1041.049 679.0099 1035.648 666.9388 1032.2938 656.2885 1040.4865 643.0215 1038.3742 640.6282 1040.6812 643.153 1037.5143 640.3167L1031.3889 633.8568C1023.0854 620.8571 1027.6408 606.4265 1037.7944 596.7751 1029.509 589.784 1030.6395 585.053 1030.8821 571.7288 1033.812 567.5255 1032.2422 568.1169 1036.1531 563.2007 1038.8591 558.6327 1042.3179 556.9449 1047.2323 553.441L1070.0785 549.563C1073.5829 539.1828 1069.1753 512.8577 1068.4605 500.2886 1067.1653 477.502 1070.4246 474.8448 1049.4496 467.6454 1015.1649 455.8774 929.5603 456.5049 922.2185 480.4926L905.4031 619.1402 913.5791 616.3812C921.5357 614.084 924.6609 615.3364 932.834 616.146L940.7585 618.6249 945.5153 623.4602C946.7266 629.4368 952.6813 631.4868 951.7757 644.5763 951.1894 653.0443 946.2325 658.5837 944.2783 664.5127L938.9679 671.1049C929.209 675.3866 919.8142 684.4215 904.1856 686.4347L895.9054 686.2629 885.6941 775.0522C890.4285 780.1628 895.4073 782.6397 902.7034 784.1548 906.4681 781.3372 913.6828 773.9198 916.9758 769.9983 906.5764 770.6801 903.1986 773.4566 898.8231 773.7996 898.5986 773.8172 897.9769 773.7364 897.802 773.7384 897.6376 773.7409 896.974 773.2264 896.8598 773.5416 896.747 773.8532 896.22 773.4342 895.9499 773.2678 919.6917 757.995 1027.6362 758.9889 1057.248 768.3063 1047.7534 774.9697 997.5214 761.2486 983.687 766.1313 985.5283 771.7521 983.92 769.8696 989.4555 772.9838 991.5333 781.5067 998.2786 787.8368 1001.4627 795.9543 1007.187 810.5454 1002.3554 807.8865 1013.1174 818.113 1021.1499 825.7459 1030.0757 824.2393 1038.638 826.5158 1042.3213 827.4949 1048.7548 830.8145 1051.8095 831.2902 1063.902 833.1729 1053.959 832.0365 1057.555 830.0217L1087.4078 829.427C1086.2113 821.3049 1080.6012 813.547 1077.247 807.1679 1079.951 799.5268 1078.3284 806.7971 1080.6514 798.8496 1081.5126 795.0569 1081.5576 790.3763 1082.6399 787.2942 1085.0803 780.3471 1084.9711 784.4947 1087.5039 779.7762 1088.9555 777.0716 1088.9209 775.1262 1088.8209 773.718V773.7177C1088.7622 772.8902 1088.6808 772.2479 1088.8648 771.7476ZM1097.8937 764.519 1098.2415 769.9836 1098.5407 769.9754C1100.5381 788.1449 1093.0966 786.9923 1086.722 796.4626 1087.562 806.2503 1090.5111 808.327 1094.1571 817.2431 1095.7205 821.0648 1097.303 824.4411 1098.3776 827.475 1104.7235 845.3891 1083.481 837.7617 1072.132 838.9094 1059.3615 840.2006 1071.6083 840.7604 1061.1038 842.1877L1025.2638 836.3174C1019.0744 834.2989 1013.775 829.0001 1007.0535 825.7116 1007.4753 839.0548 1006.5331 835.0954 1002.8475 842.8946 1000.1676 848.5656 1001.2317 851.9992 997.5027 857.4151 994.5283 861.7351 996.2141 857.7456 992.9656 863.4195 988.8248 870.6518 989.8841 874.9284 981.2081 880.342 973.8975 878.2724 973.7189 874.8986 969.378 868.9513 963.9887 861.5679 963.1389 865.3226 958.5913 858.3435 946.2455 839.3973 949.3934 849.2414 945.5346 828.8898L931.6661 836.1281C910.9477 848.95 913.335 840.5025 902.3287 845.8058 895.0584 849.3083 895.0765 851.629 885.2187 849.8412 884.304 842.3819 885.2956 839.9557 886.2157 833.358 888.304 818.3789 880.5869 822.7327 893.0373 792.8943 887.0805 787.5502 880.7414 785.0962 876.2593 780.5322 873.5615 753.3655 886.0431 713.2411 885.8157 684.0578 874.8907 672.2938 866.4168 666.3093 866.8962 641.1892 867.2593 622.19 876.1431 610.251 880.8055 596.632 870.8233 580.8416 857.3284 571.9442 843.9585 558.9833 838.0913 553.2959 830.393 548.2871 822.9325 542.5551 815.0505 536.5003 810.373 532.4431 801.5148 527.872 799.9951 543.4883 808.0569 552.4549 802.0551 601.5645 800.3242 615.7287 806.722 614.7113 811.6517 628.7769 815.4609 639.6466 816.6798 650.4335 816.3077 662.6778 813.8356 744.0928 748.8422 807.8528 675.2696 838.4769 655.6037 846.6622 652.0765 841.0071 647.5184 851.9964 642.8772 863.1867 640.8434 868.8708 630.7537 874.2127 609.7317 885.3415 585.6007 874.2866 572.9545 862.1447 558.5 848.2677 544.0754 849.9623 513.3974 841.4881 392.368 808.0566 317.8103 694.2917 310.6936 569.9254 308.7145 535.3364 314.7316 510.171 314.1459 494.9325 295.49 481.3342 268.6232 466.6657 255.1192 445.0258 252.3098 440.5241 252.6934 439.5529 249.3306 435.7723 247.9371 412.7179 247.7829 405.7543 259.7703 389.0319 290.1461 346.6568 320.0729 348.3249 325.7651 330.0917 333.1239 306.5224 344.577 304.3335 353.1574 295.0767 362.9537 284.5077 356.4859 268.5509 382.3574 263.6739 403.1878 259.7474 419.4782 266.9244 429.5214 277.6303 429.6481 277.7655 451.8882 314.0056 457.7125 278.3764 460.6316 260.5161 462.9538 238.9669 456.6523 222.378 434.6821 218.3156 436.4807 219.5991 425.031 203.6356 413.4611 187.5059 373.9757 204.6759 372.1802 104.1831 372.2111 47.7255 376.8863 27.284 437.0258 26.6604 465.4536 26.3653 511.2969 27.6477 509.4454 59.6259 508.7259 72.0519 501.5951 77.0355 497.1515 85.0983 492.7723 92.3474 498.7006 124.1677 501.59 132.5526 504.4765 140.9301 509.9502 140.3257 513.9179 148.6661 517.8427 156.9166 515.5605 166.4909 515.2657 175.845 539.9583 195.8448 541.8995 228.0742 533.7037 266.847 553.1383 267.5364 570.9983 263.6022 592.9376 265.9241 617.0805 268.4792 623.8054 275.2362 647.1737 267.9437 696.606 252.517 698.6597 234.3498 694.4151 189.2407 686.8108 184.7798 678.5433 182.8023 674.5037 175.352 667.5072 162.4465 677.4211 154.8266 677.6946 148.8583 677.8366 145.7677 671.8859 126.5726 670.7333 121.9348 669.3171 116.2383 667.5378 98.0002 665.2854 95.2622 661.6913 64.514 667.0409 66.6519 694.4068 60.1659 713.4917 55.6424 732.1294 54.1111 752.0814 52.1481 792.5502 48.1669 836.7165 48.5082 870.268 64.0162 887.658 71.9796 876.9872 133.774 827.746 134.1388 802.7626 134.3239 830.0103 136.7827 794.4321 143.9084 785.2011 165.8911 794.2734 158.5239 789.7978 173.2056 787.2083 181.7002 779.2123 185.8005 773.6587 191.6181 769.4016 201.966 787.7237 264.2573 740.67 295.4214 730.8731 301.9099 719.7205 305.574 711.4181 312.944 719.5198 321.8414 730.1755 327.8789 737.9334 336.7449 745.3009 345.1649 753.0849 354.8937 760.1488 364.513 785.9446 399.6386 787.7214 415.6064 799.6793 450.0408 802.6013 458.4538 830.1934 469.7518 845.7656 478.6951L907.2541 516.054C908.7698 484.3865 906.9871 467.7182 933.9157 458.098 969.499 445.3863 1059.8125 444.8117 1075.6301 471.956 1080.2348 479.8568 1081.5313 535.2333 1083.3112 549.8113L1094.8425 557.1261C1097.2747 562.5417 1101.0784 566.7066 1102.5142 573.5611 1104.2855 582.0174 1101.0353 589.8776 1102.1786 594.1253 1104.2328 601.7613 1116.1531 607.5057 1110.0526 627.4281 1107.7296 635.0139 1103.3833 636.5109 1105.388 643.6162 1107.4085 650.778 1110.4364 651.3579 1110.1867 662.6662 1109.8239 679.0847 1100.3391 682.7202 1092.9008 691.1935L1097.9345 764.5212ZM865.3 93.3934C869.9545 88.3545 868.9646 81.5233 868.0099 72.7279 838.9874 51.6399 731.4287 59.466 689.8833 69.692 679.0708 72.3532 673.1736 71.7667 673.0846 82.5103 705.2102 76.8129 728.7874 71.1729 765.3197 69.6455 805.7276 67.9561 826.863 71.2071 862.5971 78.5832 861.5897 79.4299 862.3273 82.3031 852.1489 80.0606 847.9956 79.1456 845.1057 78.0956 840.4132 77.1939 803.4018 70.0804 751.0751 72.8918 713.8851 77.8635L680.76 84.0733C674.2579 85.9056 674.799 84.7505 673.2505 89.6973 678.0643 91.8431 706.5831 83.6498 716.7447 82.2243 733.9808 79.8066 750.9158 78.8236 768.8877 78.5265 794.8134 78.0987 851.3005 77.7518 865.3 93.3934M865.3 93.3934C854.5547 92.5027 843.1781 88.5404 830.6878 86.7892 817.6147 84.9552 804.3866 84.0453 790.9855 83.5625 793.2067 146.9582 863.6128 130.0836 865.3 93.3934ZM476.2125 96.7516C470.1586 93.7752 462.7735 97.5841 453.1082 97.9092 443.1662 98.2446 433.2212 95.688 425.3607 97.8163 429.2768 112.807 453.1501 107.7877 465.7459 104.4992 472.4853 102.7397 474.1081 103.0221 476.2125 96.7516ZM476.6905 107.0736C468.2611 107.0802 461.0228 109.9947 452.9472 110.9001 442.8539 112.032 432.504 109.0828 426.0475 112.5207 427.1848 114.9574 424.3825 117.4289 436.902 118.6659 446.1123 119.5764 457.7298 118.7702 466.5172 116.0189 473.7728 113.7475 474.5835 112.9844 476.6905 107.0736ZM485.9065 88.7434 478.2433 91.8295C480.8245 97.0903 483.5687 97.2295 478.7833 104.1922 484.0214 111.3715 482.3342 112.9612 483.8272 123.0925L490.0071 125.3157ZM711.7846 88.3579 676.294 95.1849C676.3745 114.2246 683.0005 130.2106 687.083 146.9846 694.6095 147.3202 704.8749 147.3248 709.1512 141.9548 713.9069 138.3239 716.3609 138.1297 724.2829 137.9659 731.8678 126.343 727.8849 133.7573 733.2846 127.478 743.997 115.0194 735.3935 124.761 747.4927 118.4202 761.1837 111.2451 753.1608 116.0144 759.2995 114.0094L761.7263 112.9757C763.2825 112.1791 768.5697 102.8894 780.2501 114.2583 786.6652 120.5025 790.8403 122.8255 801.7126 124.2663 797.3923 115.3502 794.7108 118.2271 790.0832 107.9793 786.4415 99.9156 787.4977 92.5169 784.9457 84.2649 770.1953 81.5916 726.3408 85.0595 711.7846 88.3579ZM768.4277 114.304C768.3639 114.4848 763.8925 117.9833 771.4723 124.7564 776.2218 129.0002 800.263 143.2301 808.5569 130.9555L796.7727 127.6877C780.0701 123.7499 775.9451 112.864 768.4277 114.304ZM753.4536 119.1345C749.5597 134.3066 778.2012 140.345 781.3463 140.0516 790.2363 139.2216 784.1441 139.739 786.5631 137.7694 780.4327 134.5609 774.7622 133.6351 768.9991 129.0407 764.4067 125.3801 761.7926 119.2088 753.4536 119.1345ZM741.331 124.7372C733.3013 137.4191 756.4544 143.6757 769.2746 143.4977L762.3383 139.3911C746.8747 131.7039 750.3296 125.5652 741.331 124.7372ZM424.639 150.5163C430.2088 148.4274 432.0391 144.9094 437.0406 141.662 441.4595 138.7922 447.0778 135.7515 452.6042 134.21 470.3332 129.2658 477.7764 133.4205 492.7853 136.9335 491.6075 131.6282 491.2089 127.4941 477.8178 125.8362 470.2779 124.9027 460.4017 125.8302 453.2981 127.4363 441.7807 130.0411 422.3934 136.8459 424.639 150.5163ZM442.2413 143.4291C443.9007 148.8291 447.0678 153.4122 448.9492 159.7575 460.6523 160.1535 466.0226 156.7315 476.4064 156.1859 486.4791 155.6563 498.4234 156.6405 489.8548 144.3779 480.3174 130.7279 455.508 137.9171 442.2413 143.4291ZM713.3454 147.0132C716.6866 153.1814 719.7333 152.4229 727.7615 154.057 740.0642 156.562 779.1163 161.4217 783.8473 146.2541 777.2434 145.766 759.2202 152.0223 728.585 144.4212 719.6134 142.1955 717.4026 139.5507 713.3454 147.0132ZM428.6106 132.7394 424.3294 124.0761C422.7333 118.8062 422.9427 117.4901 423.3776 111.818L423.7138 108.9808C423.8666 98.2091 417.8248 105.1415 425.884 94.0635 426.1051 93.7596 426.5776 93.2618 426.8642 92.8182 421.0642 91.0956 417.6601 90.0315 412.9869 87.1461 406.5758 83.1875 406.601 80.8257 399.4875 78.5072 396.4025 99.2616 398.8826 180.0774 419.0641 189.6148 419.0545 183.0912 417.7783 178.573 418.5578 171.8875 419.2415 166.0161 422.1071 161.1887 422.2276 157.4274 422.4458 150.575 418.6749 152.4478 420.4488 144.4314 421.4738 139.7991 426.2726 135.6043 428.6106 132.7394ZM683.3857 172.2203 693.6877 178.1266C696.1229 172.7427 694.2677 173.4695 697.3614 168.6906 718.5745 165.1725 726.385 168.7311 727.4186 159.5024 721.5494 157.3642 718.0631 158.3904 712.7294 154.9916 704.4174 149.6954 711.7574 148.8396 700.6878 149.938 686.1008 151.3857 680.6117 156.1133 683.3857 172.2203ZM493.8483 159.5024 500.0409 164.3729C504.5306 167.4969 502.458 167.3887 507.562 167.8691 508.4603 154.5188 503.5079 146.1779 494.7199 142.3406 498.8336 153.2245 500.233 152.0963 493.8483 159.5024ZM763.0002 160.0892 734.5528 160.5849C734.2282 172.4261 736.8001 178.878 745.9571 182.5469 754.6623 186.035 767.5319 185.4201 772.2476 178.3704 774.1534 174.1056 774.2497 171.502 772.9138 166.3696 770.9301 158.7489 770.781 159.7275 763.0002 160.0892ZM501.1931 63.7594C501.3094 48.5969 498.6505 45.3331 485.591 41.5383 461.2623 34.4699 401.5511 30.2975 388.4485 50.2668 374.0443 72.2197 380.7683 160.4123 397.4681 176.7864 394.037 149.1267 373.0476 90.957 393.1994 65.7238 403.4458 52.8942 424.9111 51.3173 446.0187 52.4645 470.1254 53.7738 480.8387 58.0034 501.1931 63.7594ZM729.1346 170.4966 719.5031 171.8578C721.5367 178.562 722.2654 179.697 730.7385 178.5915ZM438.4664 149.2209C414.7923 154.597 419.908 208.7685 451.2059 211.8243 448.1178 205.223 445.0286 205.6105 442.8264 198.144 441.5763 193.9042 442.0103 192.0861 441.0751 188.9558 439.9194 185.0879 438.9367 185.7872 437.9899 181.9026 434.8431 168.9936 447.2252 165.2357 438.4664 149.2209ZM524.7893 244.1684C525.1127 228.0379 525.6388 212.4437 518.8246 199.101 514.6517 190.931 500.2098 172.7833 494.1564 171.9831 484.9228 154.3184 468.2823 168.4746 447.0466 165.8812 436.6568 201.2528 451.4851 199.7391 458.407 205.9089 460.9477 208.1735 464.7166 212.9258 466.9214 217.1458 477.7262 237.8273 469.5372 265.3396 467.1111 287.0101 469.9585 286.4154 520.7329 272.7312 521.0254 270.519L522.2767 267.8865C522.4122 267.4607 522.5947 266.923 522.7217 266.4374ZM713.4673 296.0444C723.8095 295.2595 737.7559 283.1326 744.1067 277.4849 751.6814 270.7481 760.2041 257.8173 759.3066 242.9708 764.5737 235.4037 763.8698 202.9011 760.9995 192.4724 729.9638 188.932 743.1489 186.1169 730.8139 185.4887 705.138 184.1811 725.7339 171.364 702.4878 173.2175 704.8179 197.2613 712.8726 229.3911 699.425 248.8266 686.9662 266.8326 668.8134 270.178 644.2432 279.2696L694.3192 303.9562C698.4139 304.4826 700.1218 303.5699 704.2144 301.8943ZM330.2563 425.3488 333.4402 428.7807C333.8388 428.4031 334.3226 428.3827 334.4258 427.824L339.0197 416.7156C336.2556 417.8837 336.8339 416.7159 333.4963 419.8901 330.8845 422.3738 330.2691 425.334 330.2563 425.3488ZM775.802 639.462C786.077 623.7207 790.649 577.5355 789.1016 555.5234 787.1998 528.4749 778.2038 496.7991 766.929 477.2713 762.762 470.0543 762.1699 470.173 752.8521 468.5295 703.554 459.8328 636.7983 457.3349 588.6746 463.1451 573.2566 464.2203 528.1438 472.6366 518.1214 479.6201 489.5753 499.5105 465.9727 565.1626 478.6639 606.5963 482.6605 619.6433 509.3099 637.8528 522.8243 646.4455 555.8545 667.4477 605.4866 683.8832 653.0474 687.0042 702.4867 690.2487 765.9666 679.7599 775.802 639.462ZM1088.4402 593.1553C1100.8894 553.6131 1056.0628 555.8632 1046.2102 563.5327 1037.7893 570.0872 1034.7953 588.1646 1046.0642 592.638 1050.315 594.3251 1081.1248 593.1522 1088.4402 593.1553ZM1092.4407 634.5805C1098.5391 623.4769 1103.243 606.3551 1088.2534 600.1174 1077.9942 595.8485 1053.8427 597.5872 1044.5584 602.8795 1032.894 609.5282 1030.8685 630.54 1044.2733 635.6687 1045.7885 636.2484 1087.1478 634.9192 1092.4407 634.5805ZM902.3494 575.6207 906.0015 556.9353C906.9599 549.3161 908.3163 543.3537 908.0291 535.9691 897.0429 523.6875 822.128 474.5013 801.9048 469.0664 801.3104 488.8604 797.927 480.3766 789.188 489.5802 797.0312 510.5143 790.8256 512.6199 812.0027 522.2095L854.619 555.5344C865.3212 564.9225 873.8342 571.8886 884.1538 584.9473 889.6802 591.9409 889.6689 587.7017 894.6043 589.4952 893.7306 607.8986 875.916 617.4357 879.9508 649.817 882.8589 673.1546 900.699 685.082 922.8421 672.101 964.815 647.4954 937.1222 608.3898 906.2331 628.8157 893.3811 637.3145 897.4123 642.3559 890.2137 650.355 889.9608 649.9474 889.7389 649.3484 889.6482 649.0321 889.5572 648.7157 889.2476 648.0751 889.158 647.6791L888.6444 644.8394C888.048 633.4739 897.1163 632.5291 898.8571 616.2452 900.0652 604.9466 903.6694 585.9244 902.3494 575.6207ZM1061.9192 681.0449C1104.7802 690.1455 1107.5253 642.9892 1080.748 640.0137 1032.827 634.6891 1032.6549 674.8313 1061.9192 681.0449ZM446.6254 564.8941C437.514 633.534 539.051 691.5677 604.3065 706.1357 645.6336 715.3617 694.7209 718.3865 733.8438 702.4796 752.3637 694.9494 768.651 685.4247 780.2603 674.0158 791.6363 662.8371 805.392 643.2684 791.6596 624.007 787.7917 628.617 785.5617 641.3369 781.7377 648.7549 744.7051 720.5837 582.6078 701.8702 503.53 642.5198 477.2197 622.7731 459.1641 602.9447 446.6254 564.8941ZM746.816 707.3464C703.8164 722.0489 671.0956 727.9257 620.0184 718.4188 599.8467 714.6643 582.575 710.0527 564.1047 703.2886 545.0831 696.3228 532.3311 688.4317 515.9151 680.5913 512.4268 676.0233 497.9203 667.6115 492.0389 662.9352 469.3266 644.8762 446.779 618.0749 439.4353 587.0418 426.9654 534.342 464.3419 494.5961 496.3808 479.3839 564.2195 447.1733 678.6465 445.3741 756.0425 461.4375 766.6574 463.6406 781.0169 469.0851 789.9608 470.2226 785.3579 436.1153 765.93 398.2643 749.9132 374.7583 738.7002 358.3023 698.061 313.7031 678.1544 309.9728 675.1692 305.5382 674.2902 305.2908 668.433 302.7146 633.4923 287.3449 610.3998 279.212 569.0591 279.0833 532.4978 278.9697 480.6884 289.1738 454.3072 305.2905L458.155 327.3724C468.1327 334.0012 470.2164 334.7872 473.7557 347.0054 476.4155 370.7861 464.0638 375.0545 449.2814 382.2517 436.2537 388.5948 445.5329 401.7912 413.8228 405.8158 402.4335 405.5037 393.6436 401.601 386.2437 404.7137 372.9657 410.3005 372.3228 407.3771 358.6547 405.8923L344.5937 437.6373C350.9575 444.96 370.8054 456.1166 380.0801 461.7193 385.0336 466.2723 387.9442 467.3747 390.3894 473.3833 372.4296 468.7707 329.8073 441.9615 322.6524 430.8403 316.9667 432.2426 319.4841 432.4405 314.1899 434.2391 315.7189 415.048 341.6692 405.5139 358.5223 395.7406 362.2955 395.0745 365.476 404.1564 380.2941 398.92 396.6219 393.15 384.5546 394.1804 402.2283 397.5831 421.2482 401.2449 434.9942 393.6509 438.5115 378.6846L423.5905 382.9056C427.4388 376.3621 436.1298 370.1305 445.9476 367.9336L445.7143 374.0329C445.7336 374.1843 445.7594 374.7314 445.9476 375.0075 456.7691 372.6726 465.2215 366.264 465.8607 353.9256 466.9072 333.7413 452.0018 337.4762 447.9528 331.9914 446.4802 309.1762 444.2638 299.9971 422.5229 297.0505 425.7729 289.0885 423.6123 286.9469 417.2068 282.8256 401.154 272.4959 373.4022 267.497 366.8 292.7132L389.2626 289.3654C381.7576 303.6243 365.9482 293.847 346.1927 318.4594 338.6959 327.7996 339.8703 332.7236 335.2289 343.1412 331.9308 350.5445 269.4623 378.1267 262.1075 413.0325 260.0201 422.9388 261.328 436.9402 270.4331 442.802 274.4753 459.8464 328.2146 489.6771 348.1894 499.9779L378.7946 516.3426C378.7713 516.3565 378.2968 520.5237 366.3842 515.6711 359.4175 512.8333 359.5771 511.7706 352.853 511.808L347.2515 508.0711C345.2638 507.0594 343.3788 506.4279 341.0382 505.3039 335.6597 502.7207 334.3561 501.1466 328.1899 500.3184 319.8943 523.266 323.2905 577.7904 328.3719 605.4948 329.8042 613.3048 331.1637 629.6709 336.2678 635.4904 335.6977 655.5081 362.4979 705.0175 372.4523 720.0471 405.7174 770.2713 451.8493 806.0445 509.762 825.4783 527.0443 831.278 540.9244 833.0289 559.728 836.5742 574.9183 839.4384 580.8546 854.115 597.9662 859.4957 621.754 867.9813 632.4474 857.5095 634.7531 833.7101 658.41 827.3472 677.1144 819.8022 697.8586 809.3089 713.6271 801.3319 738.1012 784.2059 746.7891 773.3523 752.1548 770.4904 753.9457 768.39 757.2878 761.7626L739.1452 765.8408C750.7154 755.7758 758.3372 752.9658 754.5436 730.9607 773.8883 740.8823 778.3373 743.0559 792.0451 703.5942 795.1371 694.6929 804.7213 672.9593 798.7088 663.7598 788.7302 686.1249 759.5025 697.0127 746.816 707.3464ZM946.6041 809.1505C948.8356 806.7637 946.4873 810.3753 949.1689 805.5111 949.4436 805.013 950.1829 803.4273 950.4111 802.8811 954.182 793.8383 952.2323 787.2148 966.4937 774.6471L974.6031 765.4535C946.008 767.3607 933.0625 763.1841 917.4249 777.2751 915.2371 779.2466 909.6443 783.3577 907.9603 785.7737 904.9286 790.1212 905.3549 792.2673 903.1884 797.078 893.717 818.1094 894.4155 810.957 898.4696 819.2636L894.5152 838.7898C901.8992 838.1242 903.115 834.9324 910.3215 832.3608 918.525 829.4329 919.2149 832.8674 925.8171 828.5043 936.7869 821.2552 947.7604 820.5483 946.6041 809.1505ZM976.3974 772.2397C961.8684 781.3242 953.1031 797.9576 954.5814 820.3388 955.4176 832.9986 951.1291 830.1557 959.7002 839.4415 963.8374 843.9233 961.9792 842.7728 963.6355 847.5749 969.027 863.2094 973.4043 849.1893 978.1089 867.331 984.5461 863.263 979.4866 868.2826 983.8701 861.2442 984.8665 859.6443 985.3072 857.425 986.7319 855.3172 991.5177 848.234 991.7663 855.741 993.3797 844.3987 997.2139 817.4378 996.1676 837.5423 998.5487 826.8279L998.4297 817.7791C997.6898 802.783 999.822 799.5359 992.3638 788.9142 988.3913 783.2565 983.4664 772.6725 977.4332 769.1522 977.5157 775.5352 976.0303 791.8296 977.2603 796.3594 978.4993 800.9229 985.1182 806.0746 987.7263 810.6752L975.6641 798.7501C975.0127 834.0171 978.0018 834.9993 978.3451 851.4587 974.2935 838.4054 973.3056 828.5301 972.6205 813.1671 969.6379 815.298 971.5198 813.7114 968.9947 816.3054L964.7169 824.269C966.0934 812.6685 972.0014 814.2996 973.0281 794.5296L962.8597 802.2702C970.8908 787.0414 974.6515 796.4889 976.3974 772.2397" fill="#000002" fill-rule="evenodd"/>
<path transform="matrix(1,0,0,-1,0,907.0866)" d="M679.0723 485.3818 692.4628 488.427C687.4138 476.5609 660.6819 470.7876 645.8511 469.5191 511.562 458.0328 507.4472 591.5489 569.3182 575.3662 583.8789 571.5578 598.5091 559.0738 612.2809 552.4214 638.8279 539.5975 659.7037 532.9828 690.4094 532.885 704.658 532.84 714.3372 536.4533 718.795 534.2967 696.2295 521.3134 693.1848 530.8265 684.8226 521.9663 676.4085 513.0499 673.4789 498.6989 679.0723 485.3818ZM766.4593 578.7901C764.3098 572.5077 765.0346 573.3635 760.1669 577.006 762.0885 579.1757 759.3038 584.4351 766.4593 578.7901ZM533.162 584.1428C531.5471 579.6147 533.236 576.743 527.0808 582.3584 528.9094 584.5808 524.0755 584.3066 529.8375 585.754 535.4753 587.1702 531.8481 585.1318 533.162 584.1428ZM772.2244 596.283C771.2892 612.8246 788.7458 597.2049 772.2244 596.283ZM761.7509 623.5523C764.5374 620.3667 765.1514 621.5142 763.5353 616.3186 760.8433 616.0961 756.7557 611.8855 757.0454 619.6232 757.171 622.9789 758.8213 622.4352 761.7509 623.5523ZM602.9481 662.4754C609.0364 658.868 621.303 654.999 628.8778 651.0302 665.0354 632.0854 651.0835 642.441 658.2093 656.8571 666.762 642.0696 658.4621 637.1821 651.1595 628.7477 653.5755 600.736 647.2791 570.8032 629.9263 560.6254L634.4351 550.7405C625.1822 555.5319 619.198 563.6288 606.9359 570.2737 595.6038 576.4147 575.8696 579.6904 571.2622 583.0472L585.6182 583.9605C581.2087 614.2567 578.831 629.8764 594.1287 653.7266 592.7479 655.8202 596.5744 656.5405 590.963 654.9494 576.9799 651.541 569.5628 653.557 555.2484 648.0315 546.8984 644.8079 532.1248 639.1687 529.1323 632.3851L529.4058 623.7374C521.9827 622.6603 525.7409 622.0726 521.4163 625.4722 511.2289 621.1474 510.5648 617.7407 503.2273 610.5163L507.9129 606.3151C511.1161 602.3364 510.5608 606.0025 509.4031 598.7322L502.681 598.5422 502.124 603.8824C496.2994 605.9443 496.7169 605.4038 492.6073 598.1335 486.5108 587.3482 483.0817 570.6961 486.0153 558.1962 489.1873 544.6769 501.1172 522.8887 508.2831 514.4536 545.6492 470.4695 580.5754 473.5525 588.6746 463.1451 636.7983 457.3349 703.554 459.8328 752.8521 468.5295 762.1699 470.173 762.762 470.0543 766.929 477.2713 778.2038 496.7991 787.1998 528.4749 789.1016 555.5234 790.649 577.5355 786.077 623.7207 775.802 639.462 770.8326 640.7391 748.8147 656.6559 744.0939 660.9597 743.6211 660.6003 741.8837 659.8517 741.5603 659.67L737.8863 657.3036C731.2927 660.9688 720.3492 654.7062 715.0484 652.5111 720.1726 642.5521 736.4565 632.7309 732.7494 594.8586 727.0914 537.0576 680.6001 534.761 669.477 589.7514 666.7792 603.0873 667.4692 609.3811 669.7925 622.7158 670.8308 628.6751 671.0771 644.345 671.1763 653.2475 675.4601 648.6242 675.8759 646.5492 675.7849 637.5183 692.7792 642.3953 699.7541 655.6836 720.7234 662.6302 722.9889 664.3959 721.9216 664.1385 725.9374 665.4382L736.8749 665.6037C712.1889 674.2009 697.0504 675.1327 667.1886 674.8554L613.3167 670.1114C610.6448 669.4384 607.4158 668.8142 605.4369 667.3808 600.0375 663.4698 601.901 668.2453 602.9481 662.4754" fill="#e9e101" fill-rule="evenodd"/>
<path transform="matrix(1,0,0,-1,0,907.0866)" d="M547.5266 537.4738 561.8041 540.5984C569.4092 527.6327 558.7285 529.374 577.1276 525.676 583.134 524.4693 591.3995 520.5223 594.2211 515.0256 578.2093 519.6484 587.7967 521.0725 565.2437 521.8038L558.6471 534.4243 545.9664 531.4569C541.37 537.2442 543.702 538.41 538.6632 543.0917 538.4078 514.5636 560.791 494.0535 581.432 485.9082 602.4742 477.6052 647.604 469.7079 669.4441 482.0244L666.9397 501.7507C656.9053 501.7895 648.2954 500.8139 640.6761 505.4377L668.2689 506.1314C671.1659 510.1724 676.7952 521.8333 677.1671 526.019 603.1979 533.6382 582.5194 572.3535 556.9974 569.2158 530.0901 565.9075 546.4179 541.3124 547.5266 537.4738" fill="#fdfdfd" fill-rule="evenodd"/>
<path transform="matrix(1,0,0,-1,0,907.0866)" d="M930.5028 559.1639C930.0501 576.6216 934.0064 581.7852 946.9239 585.8819 976.7256 595.3331 1012.6517 574.8922 993.007 564.8227 984.3378 560.3791 972.284 556.772 963.7929 552.3437 982.2597 556.8531 985.2097 561.3304 994.7007 565.7236 1004.1934 570.117 1004.9468 566.3123 1004.9686 566.3004 1006.1371 561.6153 1004.6537 562.0005 1005.6271 557.8795 1009.0678 543.3194 1015.3874 530.4677 988.2669 525.3392 975.4004 522.9065 966.6442 501.7768 946.8615 528.2955 932.129 548.0447 935.4149 548.7534 935.9787 559.1639 931.9691 560.9435 934.5852 557.949 930.5028 559.1639ZM938.9679 671.1049 944.2783 664.5127C942.9364 691.8063 986.521 679.1423 993.0529 671.6293 1002.9665 663.0996 1007.6559 668.7757 1011.0986 659.0795 1004.2829 654.5974 1000.1265 657.0533 990.275 653.0978L1010.7099 655.4951C1016.9651 643.9476 997.5027 619.2247 989.7999 613.0882 973.8221 600.3587 962.6995 610.5251 952.744 616.5947 948.0699 619.4446 946.3802 619.2176 945.5153 623.4602L940.7585 618.6249C947.8338 614.5367 954.2852 609.5271 960.2181 604.1256L955.6197 599.0363C947.7238 590.1171 951.3584 592.8333 942.6319 589.2942 933.1135 585.4343 930.8463 582.321 926.0527 575.4694 921.4588 582.0806 919.3935 601.4948 920.0217 612.6987 924.7762 612.7027 929.1129 613.3578 932.834 616.146 924.6609 615.3364 921.5357 614.084 913.5791 616.3812 932.4077 534.5243 908.4209 500.2373 956.393 489.6105 977.2421 484.9917 1015.4324 486.1259 1036.2498 491.4958 1064.5603 498.799 1060.3063 508.3367 1063.4395 549.7713L1070.0785 549.563 1047.2323 553.441C1059.802 521.0646 1045.5038 520.5824 1025.8129 502.9815 1017.7311 505.0582 1012.9431 507.4257 1006.5705 511.484 1003.2435 513.6026 1002.6422 514.1812 999.0856 516.7599L991.766 522.0113C1025.0363 534.3437 1011.3418 542.4015 1009.0976 559.1639 1013.2339 562.1261 1020.5359 563.2472 1026.0598 563.6826L1036.1531 563.2007C1032.2422 568.1169 1033.812 567.5255 1030.8821 571.7288 1029.975 565.418 1028.8687 563.9411 1023.9871 565.5353 1020.9708 567.1276 986.9859 593.1082 989.6179 599.2055 991.1412 607.7282 989.6474 606.5654 994.7636 611.659 997.8032 614.685 999.288 616.0428 1002.5592 619.88 1008.0218 626.2869 1012.29 630.8717 1025.0325 628.7783L1024.3438 664.7859C1013.6081 670.5298 1003.9946 666.5468 997.2887 675.0913 991.4119 682.579 989.5314 695.5183 990.7464 705.2066 990.4822 705.6096 990.3427 706.2199 990.2015 706.5462L985.6947 715.6157C985.356 700.9359 986.3634 691.9931 989.2826 678.994 981.7478 683.824 970.9328 685.4652 959.6906 684.7055 940.6159 683.4169 946.4834 674.502 938.9679 671.1049" fill="#8f5000" fill-rule="evenodd"/>
<path transform="matrix(1,0,0,-1,0,907.0866)" d="M935.4124 691.9931C935.5912 691.5784 936.0147 691.4418 936.0258 690.7853L936.0638 686.334C926.0912 686.0767 928.8859 692.7528 935.4124 691.9931ZM972.8728 704.0064C975.2199 700.6986 975.9603 700.3023 975.2083 695.3448 971.0637 695.0361 969.696 693.398 967.5831 697.4668 965.0319 702.3787 970.5852 703.0208 972.8728 704.0064ZM914.2897 715.4022C921.5019 715.5153 922.5527 711.616 914.9437 709.2213ZM904.1856 686.4347C919.8142 684.4215 929.209 675.3866 938.9679 671.1049 946.4834 674.502 940.6159 683.4169 959.6906 684.7055 970.9328 685.4652 981.7478 683.824 989.2826 678.994 986.3634 691.9931 985.356 700.9359 985.6947 715.6157L990.2015 706.5462C990.3427 706.2199 990.4822 705.6096 990.7464 705.2066L993.221 716.2943C994.4413 706.2449 992.3238 712.3808 998.3398 708.105 1001.8001 705.6456 1005.3394 705.331 1008.7699 703.8967 1020.4909 698.9958 1013.2455 694.6705 1021.0558 685.8159L1020.708 705.469C1016.9583 707.6262 1012.5621 709.9302 1007.7443 710.8209L1025.1119 713.4596 1025.6366 721.023 1026.6795 731.6728C1017.6358 731.988 1019.5421 734.4935 1002.0334 737.1836 983.8655 739.9755 984.6332 743.0034 984.1513 750.0733 994.985 755.6712 1016.3239 753.0633 1030.3255 754.7142 1038.3123 755.6559 1065.9844 758.4517 1069.9566 763.5543L1066.8589 763.6377C1060.8579 763.7924 1010.6493 756.318 979.4239 755.8943 933.0077 755.2644 928.4448 760.4289 893.2867 767.5509 897.2169 758.0684 926.5725 755.3302 935.608 754.1195 971.3599 749.3295 977.3456 759.6255 979.8401 742.9365 979.5266 742.7764 978.999 742.7081 978.817 742.6721L971.6057 741.7157C947.1368 738.9179 931.2134 757.7912 899.6323 739.0043 897.6348 722.0251 905.1497 702.6367 904.1856 686.4347" fill="#d38701" fill-rule="evenodd"/>
<path transform="matrix(1,0,0,-1,0,907.0866)" d="M588.6746 463.1451C580.5754 473.5525 545.6492 470.4695 508.2831 514.4536 501.1172 522.8887 489.1873 544.6769 486.0153 558.1962 483.0817 570.6961 486.5108 587.3482 492.6073 598.1335 496.7169 605.4038 496.2994 605.9443 502.124 603.8824L503.6632 606.4517 507.9129 606.3151 503.2273 610.5163C510.5648 617.7407 511.2289 621.1474 521.4163 625.4722L522.8359 631.9803 529.1323 632.3851C532.1248 639.1687 546.8984 644.8079 555.2484 648.0315 569.5628 653.557 576.9799 651.541 590.963 654.9494 590.5346 655.2417 589.8521 656.0884 589.5799 655.6603 589.3061 655.23 588.543 656.1967 588.1541 656.3072L578.0616 657.3127C572.7597 656.9946 570.0552 655.9659 564.5225 656.0892 574.1005 666.0867 587.094 664.791 602.9481 662.4754 601.901 668.2453 600.0375 663.4698 605.4369 667.3808 607.4158 668.8142 610.6448 669.4384 613.3167 670.1114L667.1886 674.8554C697.0504 675.1327 712.1889 674.2009 736.8749 665.6037L725.9374 665.4382C721.9216 664.1385 722.9889 664.3959 720.7234 662.6302 722.7383 662.7725 729.7685 663.5052 731.67 663.1815 740.8633 661.6182 736.9214 662.2929 737.8863 657.3036L741.5603 659.67C741.8837 659.8517 743.6211 660.6003 744.0939 660.9597 748.8147 656.6559 770.8326 640.7391 775.802 639.462 765.9666 679.7599 702.4867 690.2487 653.0474 687.0042 605.4866 683.8832 555.8545 667.4477 522.8243 646.4455 509.3099 637.8528 482.6605 619.6433 478.6639 606.5963 465.9727 565.1626 489.5753 499.5105 518.1214 479.6201 528.1438 472.6366 573.2566 464.2203 588.6746 463.1451" fill="#ccaf19" fill-rule="evenodd"/>
<path transform="matrix(1,0,0,-1,0,907.0866)" d="M446.6254 564.8941C459.1641 602.9447 477.2197 622.7731 503.53 642.5198 582.6078 701.8702 744.7051 720.5837 781.7377 648.7549 785.5617 641.3369 787.7917 628.617 791.6596 624.007 805.392 643.2684 791.6363 662.8371 780.2603 674.0158 768.651 685.4247 752.3637 694.9494 733.8438 702.4796 694.7209 718.3865 645.6336 715.3617 604.3065 706.1357 539.051 691.5677 437.514 633.534 446.6254 564.8941" fill="#c8db84" fill-rule="evenodd"/>
<path transform="matrix(1,0,0,-1,0,907.0866)" d="M678.1544 309.9728C656.261 304.7372 649.6274 300.3293 622.6064 299.3502 577.8476 297.7288 530.337 310.3089 493.465 333.798 486.258 338.3887 479.6436 345.0753 473.7557 347.0054 470.2164 334.7872 468.1327 334.0012 458.155 327.3724L454.3072 305.2905C480.6884 289.1738 532.4978 278.9697 569.0591 279.0833 610.3998 279.212 633.4923 287.3449 668.433 302.7146 674.2902 305.2908 675.1692 305.5382 678.1544 309.9728" fill="#4d9942" fill-rule="evenodd"/>
<path transform="matrix(1,0,0,-1,0,907.0866)" d="M812.0027 522.2095C820.8584 511.6363 824.5054 513.1018 838.2977 520.0727 855.589 528.8122 895.3821 558.7461 902.3494 575.6207 903.6694 585.9244 900.0652 604.9466 898.8571 616.2452 897.1163 632.5291 888.048 633.4739 888.6444 644.8394L889.158 647.6791C889.2476 648.0751 889.5572 648.7157 889.6482 649.0321 889.7389 649.3484 889.9608 649.9474 890.2137 650.355 897.4123 642.3559 893.3811 637.3145 906.2331 628.8157 937.1222 608.3898 964.815 647.4954 922.8421 672.101 900.699 685.082 882.8589 673.1546 879.9508 649.817 875.916 617.4357 893.7306 607.8986 894.6043 589.4952 889.6689 587.7017 889.6802 591.9409 884.1538 584.9473 873.8342 571.8886 865.3212 564.9225 854.619 555.5344Z" fill="#6bb63f" fill-rule="evenodd"/>
<path transform="matrix(1,0,0,-1,0,907.0866)" d="M949.1902 477.0904C952.9262 474.7354 959.1259 473.2294 964.9755 472.0232 968.9 471.2139 970.791 471.2919 974.4568 470.732 975.6292 470.5529 978.438 470.0483 979.0118 469.8281 982.7663 468.3878 982.1761 468.1709 984.1051 466.3865 966.5558 465.7062 935.1326 466.7445 929.4843 482.9814 940.2129 487.8558 966.6536 489.2165 977.629 482.4434 969.5404 477.248 958.3787 480.7976 949.1902 477.0904ZM1016.3993 484.0829C1029.757 485.6811 1046.29 488.9908 1057.4028 482.4266 1052.5813 472.2948 1024.2527 463.1567 1011.3245 468.1692 1019.6583 472.8906 1032.3969 470.4143 1039.254 477.0904ZM1070.0785 549.563 1063.4395 549.7713C1060.3063 508.3367 1064.5603 498.799 1036.2498 491.4958 1015.4324 486.1259 977.2421 484.9917 956.393 489.6105 908.4209 500.2373 932.4077 534.5243 913.5791 616.3812L905.4031 619.1402 922.2185 480.4926C929.5603 456.5049 1015.1649 455.8774 1049.4496 467.6454 1070.4246 474.8448 1067.1653 477.502 1068.4605 500.2886 1069.1753 512.8577 1073.5829 539.1828 1070.0785 549.563" fill="#acd8c9" fill-rule="evenodd"/>
<path transform="matrix(1,0,0,-1,0,907.0866)" d="M752.83 229.947C748.7271 236.0242 748.5897 246.4322 745.3953 254.0906 741.4875 263.4602 738.2792 265.646 735.139 274.0958 757.787 276.0812 759.0852 241.668 752.83 229.947ZM759.3066 242.9708C760.2041 257.8173 751.6814 270.7481 744.1067 277.4849 737.7559 283.1326 723.8095 295.2595 713.4673 296.0444 699.1917 301.487 685.9111 290.1025 684.7373 277.2598 693.4666 263.4627 704.5775 263.4925 712.9009 242.5992 719.6468 225.6659 717.0148 206.132 718.3616 187.3911 728.3684 191.7629 745.3619 197.4997 759.8146 195.8564 760.7574 210.7519 758.2422 232.09 759.3066 242.9708" fill="#6bb63f" fill-rule="evenodd"/>
<path transform="matrix(1,0,0,-1,0,907.0866)" d="M447.9528 331.9914 429.5883 304.3879C420.1909 295.4837 406.5276 303.1767 395.799 307.5846 333.4836 333.184 360.1587 346.1227 326.1702 369.7367 301.1893 387.0921 262.421 412.0716 270.4331 442.802 261.328 436.9402 260.0201 422.9388 262.1075 413.0325 269.4623 378.1267 331.9308 350.5445 335.2289 343.1412 339.8703 332.7236 338.6959 327.7996 346.1927 318.4594 365.9482 293.847 381.7576 303.6243 389.2626 289.3654L366.8 292.7132C373.4022 267.497 401.154 272.4959 417.2068 282.8256 423.6123 286.9469 425.7729 289.0885 422.5229 297.0505 444.2638 299.9971 446.4802 309.1762 447.9528 331.9914" fill="#4d9942" fill-rule="evenodd"/>
<path transform="matrix(1,0,0,-1,0,907.0866)" d="M812.0027 522.2095C790.8256 512.6199 797.0312 510.5143 789.188 489.5802 797.927 480.3766 801.3104 488.8604 801.9048 469.0664 822.128 474.5013 897.0429 523.6875 908.0291 535.9691 908.3163 543.3537 906.9599 549.3161 906.0015 556.9353L902.3494 575.6207C895.3821 558.7461 855.589 528.8122 838.2977 520.0727 824.5054 513.1018 820.8584 511.6363 812.0027 522.2095" fill="#4d9942" fill-rule="evenodd"/>
<path transform="matrix(1,0,0,-1,0,907.0866)" d="M937.9259 562.7324C939.3148 566.3945 941.4541 570.4418 944.5079 575.1048L949.625 562.7324C946.0159 556.863 949.2148 558.6489 943.74 554.832ZM930.5028 559.1639C934.5852 557.949 931.9691 560.9435 935.9787 559.1639 935.4149 548.7534 932.129 548.0447 946.8615 528.2955 966.6442 501.7768 975.4004 522.9065 988.2669 525.3392 1015.3874 530.4677 1009.0678 543.3194 1005.6271 557.8795 1004.6537 562.0005 1006.1371 561.6153 1004.9686 566.3004 1004.9468 566.3123 1004.1934 570.117 994.7007 565.7236 985.2097 561.3304 982.2597 556.8531 963.7929 552.3437 972.284 556.772 984.3378 560.3791 993.007 564.8227 1012.6517 574.8922 976.7256 595.3331 946.9239 585.8819 934.0064 581.7852 930.0501 576.6216 930.5028 559.1639" fill="#d38701" fill-rule="evenodd"/>
<path transform="matrix(1,0,0,-1,0,907.0866)" d="M581.432 485.9082C560.791 494.0535 538.4078 514.5636 538.6632 543.0917 543.702 538.41 541.37 537.2442 545.9664 531.4569L558.6471 534.4243 565.2437 521.8038C587.7967 521.0725 578.2093 519.6484 594.2211 515.0256 591.3995 520.5223 583.134 524.4693 577.1276 525.676 558.7285 529.374 569.4092 527.6327 561.8041 540.5984L547.5266 537.4738C546.4179 541.3124 530.0901 565.9075 556.9974 569.2158 582.5194 572.3535 603.1979 533.6382 677.1671 526.019 676.7952 521.8333 671.1659 510.1724 668.2689 506.1314L640.6761 505.4377C648.2954 500.8139 656.9053 501.7895 666.9397 501.7507L669.4441 482.0244C647.604 469.7079 602.4742 477.6052 581.432 485.9082ZM679.0723 485.3818C673.4789 498.6989 676.4085 513.0499 684.8226 521.9663 693.1848 530.8265 696.2295 521.3134 718.795 534.2967 714.3372 536.4533 704.658 532.84 690.4094 532.885 659.7037 532.9828 638.8279 539.5975 612.2809 552.4214 598.5091 559.0738 583.8789 571.5578 569.3182 575.3662 507.4472 591.5489 511.562 458.0328 645.8511 469.5191 660.6819 470.7876 687.4138 476.5609 692.4628 488.427Z" fill="#000002" fill-rule="evenodd"/>
<path transform="matrix(1,0,0,-1,0,907.0866)" d="M626.1517 567.3966C617.8164 569.7989 613.0916 575.8999 603.6279 579.486 590.37 584.5093 591.2983 581.3195 589.3336 599.2047 587.0004 620.4475 589.9059 639.3878 601.4667 653.1262L619.7391 645.8953C615.3554 633.397 613.9029 633.3409 613.8045 617.7807 615.9005 617.1236 619.0194 616.5516 620.4407 616.0283L626.4445 612.8269 615.596 609.1217C616.3719 595.84 628.7068 581.478 641.5557 590.6806 638.7511 579.9328 634.6397 572.4459 626.1517 567.3966ZM590.963 654.9494C596.5744 656.5405 592.7479 655.8202 594.1287 653.7266 578.831 629.8764 581.2087 614.2567 585.6182 583.9605L571.2622 583.0472C575.8696 579.6904 595.6038 576.4147 606.9359 570.2737 619.198 563.6288 625.1822 555.5319 634.4351 550.7405L629.9263 560.6254C647.2791 570.8032 653.5755 600.736 651.1595 628.7477 658.4621 637.1821 666.762 642.0696 658.2093 656.8571 651.0835 642.441 665.0354 632.0854 628.8778 651.0302 621.303 654.999 609.0364 658.868 602.9481 662.4754 587.094 664.791 574.1005 666.0867 564.5225 656.0892 570.0552 655.9659 572.7597 656.9946 578.0616 657.3127L588.1541 656.3072C588.543 656.1967 589.3061 655.23 589.5799 655.6603 589.8521 656.0884 590.5346 655.2417 590.963 654.9494" fill="#000002" fill-rule="evenodd"/>
<path transform="matrix(1,0,0,-1,0,907.0866)" d="M696.6717 608.0882 709.308 604.0902 697.6709 599.0204C699.7371 585.6406 707.9873 574.0517 722.3136 579.9297 713.8593 533.6949 666.2112 562.7653 674.655 617.8541 675.9405 626.2449 676.4882 627.4123 683.1842 630.5698 690.1308 633.8455 693.184 636.4528 700.2808 638.2845 698.292 625.9578 694.4057 623.9225 696.6717 608.0882ZM737.8863 657.3036C736.9214 662.2929 740.8633 661.6182 731.67 663.1815 729.7685 663.5052 722.7383 662.7725 720.7234 662.6302 699.7541 655.6836 692.7792 642.3953 675.7849 637.5183 675.8759 646.5492 675.4601 648.6242 671.1763 653.2475 671.0771 644.345 670.8308 628.6751 669.7925 622.7158 667.4692 609.3811 666.7792 603.0873 669.477 589.7514 680.6001 534.761 727.0914 537.0576 732.7494 594.8586 736.4565 632.7309 720.1726 642.5521 715.0484 652.5111 720.3492 654.7062 731.2927 660.9688 737.8863 657.3036" fill="#000002" fill-rule="evenodd"/>
<path transform="matrix(1,0,0,-1,0,907.0866)" d="M711.7846 88.3579C726.3408 85.0595 770.1953 81.5916 784.9457 84.2649 787.4977 92.5169 786.4415 99.9156 790.0832 107.9793 794.7108 118.2271 797.3923 115.3502 801.7126 124.2663 790.8403 122.8255 786.6652 120.5025 780.2501 114.2583 768.5697 102.8894 763.2825 112.1791 761.7263 112.9757L759.2995 114.0094C753.1608 116.0144 761.1837 111.2451 747.4927 118.4202 735.3935 124.761 743.997 115.0194 733.2846 127.478 727.8849 133.7573 731.8678 126.343 724.2829 137.9659 716.3609 138.1297 713.9069 138.3239 709.1512 141.9548 688.8373 135.7449 708.709 85.6295 710.8586 89.7083 711.0215 90.0179 711.4822 88.8126 711.7846 88.3579" fill="#e9e101" fill-rule="evenodd"/>
<path transform="matrix(1,0,0,-1,0,907.0866)" d="M564.4791 442.3859C609.9026 421.4095 674.608 410.3504 724.5723 424.6999 734.6415 427.5918 763.4489 441.1057 764.8651 449.6414L718.7176 443.9795C702.0609 442.2849 685.8822 440.7783 669.0214 439.8625 651.1861 438.8936 633.2703 439.2496 615.4333 439.5824 598.8515 439.8922 580.1071 443.6603 564.4791 442.3859" fill="#4d9942" fill-rule="evenodd"/>
<path transform="matrix(1,0,0,-1,0,907.0866)" d="M496.2214 187.9798C497.7666 197.9447 503.3738 199.3377 506.8616 208.7592 509.9326 217.0568 511.1141 224.358 515.2484 230.6384 519.0681 219.748 520.9095 211.8637 514.3229 201.8526 510.0154 195.3057 504.6993 187.7323 496.2214 187.9798ZM494.1564 171.9831C500.2098 172.7833 514.6517 190.931 518.8246 199.101 525.6388 212.4437 525.1127 228.0379 524.7893 244.1684L521.0986 246.8707C520.7204 247.1255 520.3046 247.4325 519.9123 247.68 513.1406 251.9444 505.4369 252.3141 497.4863 250.7332 487.0066 248.65 484.5759 243.4694 482.0122 232.0974 473.8493 195.8888 459.1902 193.3186 458.3704 188.0495 461.5705 172.2197 476.8509 167.1041 494.1564 171.9831" fill="#6bb63f" fill-rule="evenodd"/>
<path transform="matrix(1,0,0,-1,0,907.0866)" d="M865.3 93.3934C851.3005 77.7518 794.8134 78.0987 768.8877 78.5265 750.9158 78.8236 733.9808 79.8066 716.7447 82.2243 706.5831 83.6498 678.0643 91.8431 673.2505 89.6973 674.799 84.7505 674.2579 85.9056 680.76 84.0733L713.8851 77.8635C751.0751 72.8918 803.4018 70.0804 840.4132 77.1939 845.1057 78.0956 847.9956 79.1456 852.1489 80.0606 862.3273 82.3031 861.5897 79.4299 862.5971 78.5832 826.863 71.2071 805.7276 67.9561 765.3197 69.6455 728.7874 71.1729 705.2102 76.8129 673.0846 82.5103 673.1736 71.7667 679.0708 72.3532 689.8833 69.692 731.4287 59.466 838.9874 51.6399 868.0099 72.7279 868.9646 81.5233 869.9545 88.3545 865.3 93.3934" fill="#fdfdfd" fill-rule="evenodd"/>
<path transform="matrix(1,0,0,-1,0,907.0866)" d="M494.1564 171.9831C476.8509 167.1041 461.5705 172.2197 458.3704 188.0495 459.1902 193.3186 473.8493 195.8888 482.0122 232.0974 484.5759 243.4694 487.0066 248.65 497.4863 250.7332 505.4369 252.3141 513.1406 251.9444 519.9123 247.68 520.3046 247.4325 520.7204 247.1255 521.0986 246.8707L524.7893 244.1684 522.7217 266.4374C522.5947 266.923 522.4122 267.4607 522.2767 267.8865L521.0254 270.519C520.7329 272.7312 469.9585 286.4154 467.1111 287.0101 469.5372 265.3396 477.7262 237.8273 466.9214 217.1458 464.7166 212.9258 460.9477 208.1735 458.407 205.9089 451.4851 199.7391 436.6568 201.2528 447.0466 165.8812 468.2823 168.4746 484.9228 154.3184 494.1564 171.9831" fill="#4d9942" fill-rule="evenodd"/>
<path transform="matrix(1,0,0,-1,0,907.0866)" d="M944.2783 664.5127C946.2325 658.5837 951.1894 653.0443 951.7757 644.5763 952.6813 631.4868 946.7266 629.4368 945.5153 623.4602 946.3802 619.2176 948.0699 619.4446 952.744 616.5947 962.6995 610.5251 973.8221 600.3587 989.7999 613.0882 997.5027 619.2247 1016.9651 643.9476 1010.7099 655.4951 1010.4381 648.6188 1011.007 649.421 1004.3966 648.0281 1002.1238 647.549 993.5042 647.7075 990.9388 647.9016 987.2252 641.0415 989.4342 641.0996 983.8984 636.4604L977.3705 646.3531C974.0713 640.3062 972.3654 634.5632 972.2871 627.7229L969.6314 636.834C969.2444 640.832 969.3638 638.5703 969.9474 641.84 970.7598 646.3925 972.0394 648.9666 965.5438 655.9155 962.788 658.8629 961.3712 658.6693 960.0406 662.3841 967.7631 658.9894 968.1041 653.9139 977.5704 652.6735 974.34 658.427 975.3494 654.8406 972.8323 662.4269 978.7963 662.5505 980.8875 658.5761 985.1006 672.9559L993.0529 671.6293C986.521 679.1423 942.9364 691.8063 944.2783 664.5127" fill="#d38701" fill-rule="evenodd"/>
<path transform="matrix(1,0,0,-1,0,907.0866)" d="M904.1856 686.4347C905.1497 702.6367 897.6348 722.0251 899.6323 739.0043 931.2134 757.7912 947.1368 738.9179 971.6057 741.7157L978.817 742.6721C978.999 742.7081 979.5266 742.7764 979.8401 742.9365 977.3456 759.6255 971.3599 749.3295 935.608 754.1195 926.5725 755.3302 897.2169 758.0684 893.2867 767.5509 928.4448 760.4289 933.0077 755.2644 979.4239 755.8943 1010.6493 756.318 1060.8579 763.7924 1066.8589 763.6377 1064.6597 764.9229 1065.1671 763.7213 1063.0888 765.0473 1056.9883 768.9396 1062.67 760.1142 1059.1849 768.5172L1057.248 768.3063C1027.6362 758.9889 919.6917 757.995 895.9499 773.2678 896.22 773.4342 896.747 773.8532 896.8598 773.5416 896.974 773.2264 897.6376 773.7409 897.802 773.7384 897.9769 773.7364 898.5986 773.8172 898.8231 773.7996 903.1986 773.4566 906.5764 770.6801 916.9758 769.9983 913.6828 773.9198 906.4681 781.3372 902.7034 784.1548 895.4073 782.6397 890.4285 780.1628 885.6941 775.0522L895.9054 686.2629Z" fill="#acd8c9" fill-rule="evenodd"/>
<path transform="matrix(1,0,0,-1,0,907.0866)" d="M976.3974 772.2397C974.6515 796.4889 970.8908 787.0414 962.8597 802.2702L973.0281 794.5296C972.0014 814.2996 966.0934 812.6685 964.7169 824.269L968.9947 816.3054C971.5198 813.7114 969.6379 815.298 972.6205 813.1671 973.3056 828.5301 974.2935 838.4054 978.3451 851.4587 978.0018 834.9993 975.0127 834.0171 975.6641 798.7501L987.7263 810.6752C985.1182 806.0746 978.4993 800.9229 977.2603 796.3594 976.0303 791.8296 977.5157 775.5352 977.4332 769.1522 983.4664 772.6725 988.3913 783.2565 992.3638 788.9142 999.822 799.5359 997.6898 802.783 998.4297 817.7791L998.5487 826.8279C996.1676 837.5423 997.2139 817.4378 993.3797 844.3987 991.7663 855.741 991.5177 848.234 986.7319 855.3172 985.3072 857.425 984.8665 859.6443 983.8701 861.2442 979.4866 868.2826 984.5461 863.263 978.1089 867.331 973.4043 849.1893 969.027 863.2094 963.6355 847.5749 961.9792 842.7728 963.8374 843.9233 959.7002 839.4415 951.1291 830.1557 955.4176 832.9986 954.5814 820.3388 953.1031 797.9576 961.8684 781.3242 976.3974 772.2397" fill="#4d9942" fill-rule="evenodd"/>
<path transform="matrix(1,0,0,-1,0,907.0866)" d="M501.1931 63.7594C480.8387 58.0034 470.1254 53.7738 446.0187 52.4645 424.9111 51.3173 403.4458 52.8942 393.1994 65.7238 373.0476 90.957 394.037 149.1267 397.4681 176.7864 380.7683 160.4123 374.0443 72.2197 388.4485 50.2668 401.5511 30.2975 461.2623 34.4699 485.591 41.5383 498.6505 45.3331 501.3094 48.5969 501.1931 63.7594" fill="#fdfdfd" fill-rule="evenodd"/>
<path transform="matrix(1,0,0,-1,0,907.0866)" d="M437.0264 56.9979C453.6694 56.99 485.5955 59.0196 495.9088 68.508 489.1414 99.9924 410.3467 99.9635 398.7113 64.2708 413.8583 59.4414 416.643 57.0081 437.0264 56.9979" fill="#fdfdfd" fill-rule="evenodd"/>
<path transform="matrix(1,0,0,-1,0,907.0866)" d="M759.3066 242.9708C758.2422 232.09 760.7574 210.7519 759.8146 195.8564 745.3619 197.4997 728.3684 191.7629 718.3616 187.3911 717.0148 206.132 719.6468 225.6659 712.9009 242.5992 704.5775 263.4925 693.4666 263.4627 684.7373 277.2598 685.9111 290.1025 699.1917 301.487 713.4673 296.0444L704.2144 301.8943C700.1218 303.5699 698.4139 304.4826 694.3192 303.9562L644.2432 279.2696C668.8134 270.178 686.9662 266.8326 699.425 248.8266 712.8726 229.3911 704.8179 197.2613 702.4878 173.2175 725.7339 171.364 705.138 184.1811 730.8139 185.4887 743.1489 186.1169 729.9638 188.932 760.9995 192.4724 763.8698 202.9011 764.5737 235.4037 759.3066 242.9708" fill="#4d9942" fill-rule="evenodd"/>
<path transform="matrix(1,0,0,-1,0,907.0866)" d="M626.1517 567.3966C634.6397 572.4459 638.7511 579.9328 641.5557 590.6806 628.7068 581.478 616.3719 595.84 615.596 609.1217L626.4445 612.8269 620.4407 616.0283C619.0194 616.5516 615.9005 617.1236 613.8045 617.7807 613.9029 633.3409 615.3554 633.397 619.7391 645.8953L601.4667 653.1262C589.9059 639.3878 587.0004 620.4475 589.3336 599.2047 591.2983 581.3195 590.37 584.5093 603.6279 579.486 613.0916 575.8999 617.8164 569.7989 626.1517 567.3966" fill="#fdfdfd" fill-rule="evenodd"/>
<path transform="matrix(1,0,0,-1,0,907.0866)" d="M865.3 93.3934C863.6128 130.0836 793.2067 146.9582 790.9855 83.5625 804.3866 84.0453 817.6147 84.9552 830.6878 86.7892 843.1781 88.5404 854.5547 92.5027 865.3 93.3934" fill="#fdfdfd" fill-rule="evenodd"/>
<path transform="matrix(1,0,0,-1,0,907.0866)" d="M1025.6366 721.023 1025.1119 713.4596 1024.3438 664.7859 1025.0325 628.7783 1024.8267 606.2624 1023.9871 565.5353C1028.8687 563.9411 1029.975 565.418 1030.8821 571.7288 1030.6395 585.053 1029.509 589.784 1037.7944 596.7751 1027.6408 606.4265 1023.0854 620.8571 1031.3889 633.8568L1037.5143 640.3167C1040.6812 643.153 1038.3742 640.6282 1040.4865 643.0215 1032.2938 656.2885 1035.648 666.9388 1041.049 679.0099 1043.6414 697.866 1046.9887 726.715 1046.0075 744.7119L1039.2905 746.5499 1025.6465 739.1662C1029.8444 733.3909 1029.0949 727.4477 1025.6366 721.023" fill="#fdfdfd" fill-rule="evenodd"/>
<path transform="matrix(1,0,0,-1,0,907.0866)" d="M989.4555 772.9838C983.92 769.8696 985.5283 771.7521 983.687 766.1313 997.5214 761.2486 1047.7534 774.9697 1057.248 768.3063L1059.1849 768.5172C1064.1339 768.9609 1067.8025 770.1863 1072.4262 773.835L1056.774 773.1709C1048.4539 772.698 1053.0663 772.9115 1050.8757 775.0522 1052.5394 776.9327 1050.5435 775.7325 1053.5877 777.5668 1055.3792 778.6463 1056.5631 778.754 1058.4496 779.8093 1061.2023 781.35 1063.7459 784.1381 1066.3231 786.2882L1066.5139 792.8853C1061.8109 791.9629 1057.7339 790.323 1055.4707 789.8746 1053.0612 789.3967 1049.3717 789.4695 1046.7859 789.3173L1045.8264 785.8962C1045.6425 785.4471 1045.4666 784.855 1045.2536 784.4128 1042.9401 779.6177 1046.3604 782.1198 1041.8709 780.6677 1037.7758 789.6257 1052.4417 785.9585 1035.8833 791.3458 1031.1676 792.8796 1025.4362 792.8853 1018.6761 792.8853 1020.5649 790.4211 1018.4134 791.2548 1022.8391 793.3399 1026.5352 795.0813 1027.4046 796.0433 1029.7009 797.4462L1041.5846 805.119C1056.2846 813.1399 1063.0984 811.0947 1070.4093 821.4327 1061.6661 821.3003 1046.6603 817.6538 1043.655 812.5118 1045.3986 813.5836 1040.8771 818.9101 1040.0956 819.6486 1033.7597 803.1932 1027.5645 808.5866 1020.4515 800.022 1022.4947 800.4606 1019.215 796.1074 1022.6772 802.5097 1023.52 804.0677 1023.7431 802.8351 1024.2083 806.2282 1026.7608 824.8442 1026.8053 809.8855 1020.4696 816.0797 1016.5671 805.9459 1014.516 797.0539 1006.5042 791.0989 1001.6427 787.4853 988.1073 776.6504 989.4555 772.9838" fill="#4d9942" fill-rule="evenodd"/>
<path transform="matrix(1,0,0,-1,0,907.0866)" d="M413.8228 405.8158C403.7522 417.026 381.7698 445.5295 380.0801 461.7193 370.8054 456.1166 350.9575 444.96 344.5937 437.6373L358.6547 405.8923C372.3228 407.3771 372.9657 410.3005 386.2437 404.7137 393.6436 401.601 402.4335 405.5037 413.8228 405.8158" fill="#4d9942" fill-rule="evenodd"/>
<path transform="matrix(1,0,0,-1,0,907.0866)" d="M989.4555 772.9838C988.1073 776.6504 1001.6427 787.4853 1006.5042 791.0989 1014.516 797.0539 1016.5671 805.9459 1020.4696 816.0797 1026.8053 809.8855 1026.7608 824.8442 1024.2083 806.2282 1023.7431 802.8351 1023.52 804.0677 1022.6772 802.5097 1019.215 796.1074 1022.4947 800.4606 1020.4515 800.022 1027.5645 808.5866 1033.7597 803.1932 1040.0956 819.6486 1040.8771 818.9101 1045.3986 813.5836 1043.655 812.5118 1046.6603 817.6538 1061.6661 821.3003 1070.4093 821.4327 1063.0984 811.0947 1056.2846 813.1399 1041.5846 805.119L1029.7009 797.4462C1027.4046 796.0433 1026.5352 795.0813 1022.8391 793.3399 1018.4134 791.2548 1020.5649 790.4211 1018.6761 792.8853 1025.4362 792.8853 1031.1676 792.8796 1035.8833 791.3458 1052.4417 785.9585 1037.7758 789.6257 1041.8709 780.6677 1046.3604 782.1198 1042.9401 779.6177 1045.2536 784.4128 1045.4666 784.855 1045.6425 785.4471 1045.8264 785.8962L1046.7859 789.3173C1049.3717 789.4695 1053.0612 789.3967 1055.4707 789.8746 1057.7339 790.323 1061.8109 791.9629 1066.5139 792.8853 1072.6821 794.973 1070.2706 796.502 1078.2034 800.7973L1077.1016 785.9568C1081.2107 790.7732 1080.2852 792.1959 1080.6514 798.8496 1078.3284 806.7971 1079.951 799.5268 1077.247 807.1679 1080.6012 813.547 1086.2113 821.3049 1087.4078 829.427L1057.555 830.0217C1053.959 832.0365 1063.902 833.1729 1051.8095 831.2902 1048.7548 830.8145 1042.3213 827.4949 1038.638 826.5158 1030.0757 824.2393 1021.1499 825.7459 1013.1174 818.113 1002.3554 807.8865 1007.187 810.5454 1001.4627 795.9543 998.2786 787.8368 991.5333 781.5067 989.4555 772.9838" fill="#6bb63f" fill-rule="evenodd"/>
<path transform="matrix(1,0,0,-1,0,907.0866)" d="M1092.4407 634.5805C1087.1478 634.9192 1045.7885 636.2484 1044.2733 635.6687 1030.8685 630.54 1032.894 609.5282 1044.5584 602.8795 1053.8427 597.5872 1077.9942 595.8485 1088.2534 600.1174 1103.243 606.3551 1098.5391 623.4769 1092.4407 634.5805" fill="#6bb63f" fill-rule="evenodd"/>
<path transform="matrix(1,0,0,-1,0,907.0866)" d="M428.6106 132.7394C426.2726 135.6043 421.4738 139.7991 420.4488 144.4314 418.6749 152.4478 422.4458 150.575 422.2276 157.4274 422.1071 161.1887 419.2415 166.0161 418.5578 171.8875 417.7783 178.573 419.0545 183.0912 419.0641 189.6148 398.8826 180.0774 396.4025 99.2616 399.4875 78.5072 406.601 80.8257 406.5758 83.1875 412.9869 87.1461 417.6601 90.0315 421.0642 91.0956 426.8642 92.8182 426.5776 93.2618 426.1051 93.7596 425.884 94.0635 417.8248 105.1415 423.8666 98.2091 423.7138 108.9808L423.3776 111.818C422.9427 117.4901 422.7333 118.8062 424.3294 124.0761Z" fill="#ccaf19" fill-rule="evenodd"/>
<path transform="matrix(1,0,0,-1,0,907.0866)" d="M1024.029 505.4264C1020.2845 509.6035 1020.8293 510.175 1020.9526 518.1746 1021.0878 526.9581 1020.8157 526.5802 1027.5973 527.5114 1030.3937 522.3668 1029.846 522.4062 1028.8899 515.4409 1027.1447 502.719 1025.7236 506.5466 1024.029 505.4264ZM1047.2323 553.441C1042.3179 556.9449 1038.8591 558.6327 1036.1531 563.2007L1026.0598 563.6826C1020.5359 563.2472 1013.2339 562.1261 1009.0976 559.1639 1011.3418 542.4015 1025.0363 534.3437 991.766 522.0113L999.0856 516.7599C1002.6422 514.1812 1003.2435 513.6026 1006.5705 511.484 1012.9431 507.4257 1017.7311 505.0582 1025.8129 502.9815 1045.5038 520.5824 1059.802 521.0646 1047.2323 553.441" fill="#d38701" fill-rule="evenodd"/>
<path transform="matrix(1,0,0,-1,0,907.0866)" d="M696.6717 608.0882C694.4057 623.9225 698.292 625.9578 700.2808 638.2845 693.184 636.4528 690.1308 633.8455 683.1842 630.5698 676.4882 627.4123 675.9405 626.2449 674.655 617.8541 666.2112 562.7653 713.8593 533.6949 722.3136 579.9297 707.9873 574.0517 699.7371 585.6406 697.6709 599.0204L709.308 604.0902Z" fill="#fdfdfd" fill-rule="evenodd"/>
<path transform="matrix(1,0,0,-1,0,907.0866)" d="M1025.6366 721.023C1029.0949 727.4477 1029.8444 733.3909 1025.6465 739.1662L1039.2905 746.5499C1048.4345 750.7213 1069.3922 744.6047 1075.2586 740.8012 1076.8775 730.0695 1075.0603 712.8031 1073.982 701.3492 1073.8191 699.618 1073.5172 696.5065 1073.7326 694.8697 1075.3328 682.7074 1071.6043 701.8948 1074.479 691.7326L1075.7708 688.8118C1085.707 689.3501 1081.805 688.3906 1084.3167 714.9288 1085.2968 725.2815 1086.067 735.319 1087.331 745.5711 1085.5319 748.0423 1086.519 746.5442 1085.2157 750.0796 1084.3257 752.4938 1085.7356 750.9189 1083.6748 755.4348 1083.607 754.8446 1083.5819 753.2277 1082.9869 752.0159 1079.4144 744.7422 1081.8079 748.6152 1077.6524 744.73 1077.5823 750.119 1077.5282 752.9182 1075.8345 756.1247L1069.9566 763.5543C1065.9844 758.4517 1038.3123 755.6559 1030.3255 754.7142 1016.3239 753.0633 994.985 755.6712 984.1513 750.0733 984.6332 743.0034 983.8655 739.9755 1002.0334 737.1836 1019.5421 734.4935 1017.6358 731.988 1026.6795 731.6728Z" fill="#acd8c9" fill-rule="evenodd"/>
<path transform="matrix(1,0,0,-1,0,907.0866)" d="M1061.9192 681.0449C1032.6549 674.8313 1032.827 634.6891 1080.748 640.0137 1107.5253 642.9892 1104.7802 690.1455 1061.9192 681.0449" fill="#6bb63f" fill-rule="evenodd"/>
<path transform="matrix(1,0,0,-1,0,907.0866)" d="M515.9151 680.5913C532.3311 688.4317 545.0831 696.3228 564.1047 703.2886 582.575 710.0527 599.8467 714.6643 620.0184 718.4188 671.0956 727.9257 703.8164 722.0489 746.816 707.3464 731.7116 718.3562 719.1618 727.943 694.6041 731.2671 642.7857 738.2812 579.2868 723.562 535.6585 696.0008L518.2248 684.5494C510.946 678.8126 514.3037 682.4645 515.9151 680.5913" fill="#fdfdfd" fill-rule="evenodd"/>
<path transform="matrix(1,0,0,-1,0,907.0866)" d="M352.853 511.808C345.8792 518.7061 340.3857 554.7932 338.5457 567.6667 337.0209 578.3321 336.0589 588.786 335.9132 600.1889 335.7853 610.2442 337.441 626.9871 336.2678 635.4904 331.1637 629.6709 329.8042 613.3048 328.3719 605.4948 323.2905 577.7904 319.8943 523.266 328.1899 500.3184 334.3561 501.1466 335.6597 502.7207 341.0382 505.3039 343.3788 506.4279 345.2638 507.0594 347.2515 508.0711Z" fill="#4d9942" fill-rule="evenodd"/>
<path transform="matrix(1,0,0,-1,0,907.0866)" d="M1088.4402 593.1553C1081.1248 593.1522 1050.315 594.3251 1046.0642 592.638 1034.7953 588.1646 1037.7893 570.0872 1046.2102 563.5327 1056.0628 555.8632 1100.8894 553.6131 1088.4402 593.1553" fill="#6bb63f" fill-rule="evenodd"/>
<path transform="matrix(1,0,0,-1,0,907.0866)" d="M1041.049 679.0099C1054.0117 686.6518 1048.0895 686.9809 1061.5929 688.83L1070.8842 691.4154 1073.9024 734.3629C1069.1631 733.6534 1065.6414 732.5955 1060.6958 731.3006 1055.368 729.9062 1051.2748 728.3854 1047.1382 730.2402L1067.1338 735.2212C1074.7426 738.8719 1070.0354 735.7745 1072.7904 739.9976 1063.6741 743.7064 1057.7744 744.0999 1046.0075 744.7119 1046.9887 726.715 1043.6414 697.866 1041.049 679.0099" fill="#d38701" fill-rule="evenodd"/>
<path transform="matrix(1,0,0,-1,0,907.0866)" d="M898.4696 819.2636C894.4155 810.957 893.717 818.1094 903.1884 797.078 905.3549 792.2673 904.9286 790.1212 907.9603 785.7737 909.6443 783.3577 915.2371 779.2466 917.4249 777.2751 933.0625 763.1841 946.008 767.3607 974.6031 765.4535L966.4937 774.6471C952.2323 787.2148 954.182 793.8383 950.4111 802.8811 950.1829 803.4273 949.4436 805.013 949.1689 805.5111 946.4873 810.3753 948.8356 806.7637 946.6041 809.1505L944.227 796.7568C944.1422 796.2253 944.3217 790.2544 943.5988 793.6688 943.547 793.9125 943.3885 792.6454 943.2471 792.1434 944.8342 785.6025 942.6331 790.5546 946.9035 785.8723L948.0331 792.5859C949.8447 786.2587 951.374 783.4504 955.4139 779.682 958.8192 776.5058 959.2943 776.9134 961.3168 775.1154L965.8811 768.6371C952.6056 771.8366 947.3284 771.3431 933.8023 773.0277 935.8821 774.733 934.5807 774.5304 938.4236 775.912L949.7747 776.4763C942.9086 777.3435 942.681 783.9819 937.5279 786.8401 932.9822 789.3607 923.6871 788.9434 917.4498 791.5116 922.2242 793.7334 922.9442 792.3739 929.4574 791.1193 923.9947 801.0113 918.2871 803.1572 915.048 806.9975 912.6496 809.8407 912.1878 812.0469 910.4207 814.9394 907.6986 819.3946 907.9118 816.9987 906.9557 823.5581L904.4878 826.1161C904.2814 825.8304 904.119 825.3349 904.0122 825.173 903.9016 825.0049 903.6065 824.4366 903.4574 824.2308 899.1746 818.3183 905.3147 823.6086 898.4696 819.2636" fill="#4d9942" fill-rule="evenodd"/>
<path transform="matrix(1,0,0,-1,0,907.0866)" d="M664.177 317.0928C703.0729 324.1596 755.4458 388.4017 761.3527 425.23L714.5921 369.0524C697.0144 348.211 684.6026 334.6659 664.177 317.0928" fill="#fdfdfd" fill-rule="evenodd"/>
<path transform="matrix(1,0,0,-1,0,907.0866)" d="M597.9662 859.4957 609.5602 854.7026C634.7254 845.4407 617.1466 829.9791 616.1312 826.7944L641.281 821.7357 644.3838 821.9704C664.8928 816.8153 683.7817 810.5255 700.8724 801.5944 709.8194 796.9187 717.8255 793.2844 726.09 787.6142 730.3272 784.7076 744.6393 772.818 746.7891 773.3523 738.1012 784.2059 713.6271 801.3319 697.8586 809.3089 677.1144 819.8022 658.41 827.3472 634.7531 833.7101 632.4474 857.5095 621.754 867.9813 597.9662 859.4957" fill="#fdfdfd" fill-rule="evenodd"/>
<path transform="matrix(1,0,0,-1,0,907.0866)" d="M711.7846 88.3579C711.4822 88.8126 711.0215 90.0179 710.8586 89.7083 708.709 85.6295 688.8373 135.7449 709.1512 141.9548 704.8749 147.3248 694.6095 147.3202 687.083 146.9846 683.0005 130.2106 676.3745 114.2246 676.294 95.1849Z" fill="#ccaf19" fill-rule="evenodd"/>
<path transform="matrix(1,0,0,-1,0,907.0866)" d="M990.7464 705.2066C989.5314 695.5183 991.4119 682.579 997.2887 675.0913 1003.9946 666.5468 1013.6081 670.5298 1024.3438 664.7859L1025.1119 713.4596 1007.7443 710.8209C1012.5621 709.9302 1016.9583 707.6262 1020.708 705.469L1021.0558 685.8159C1013.2455 694.6705 1020.4909 698.9958 1008.7699 703.8967 1005.3394 705.331 1001.8001 705.6456 998.3398 708.105 992.3238 712.3808 994.4413 706.2449 993.221 716.2943Z" fill="#ccaf19" fill-rule="evenodd"/>
<path transform="matrix(1,0,0,-1,0,907.0866)" d="M932.834 616.146C929.1129 613.3578 924.7762 612.7027 920.0217 612.6987 919.3935 601.4948 921.4588 582.0806 926.0527 575.4694 930.8463 582.321 933.1135 585.4343 942.6319 589.2942 951.3584 592.8333 947.7238 590.1171 955.6197 599.0363L960.2181 604.1256C954.2852 609.5271 947.8338 614.5367 940.7585 618.6249Z" fill="#d38701" fill-rule="evenodd"/>
<path transform="matrix(1,0,0,-1,0,907.0866)" d="M898.4696 819.2636C905.3147 823.6086 899.1746 818.3183 903.4574 824.2308 903.6065 824.4366 903.9016 825.0049 904.0122 825.173 904.119 825.3349 904.2814 825.8304 904.4878 826.1161L906.9557 823.5581C911.6331 818.871 922.3841 811.4511 922.9564 806.881L921.3744 818.4555C925.95 814.161 924.6492 815.5114 926.2463 809.0629 927.3101 804.7706 925.9753 805.8433 929.2419 801.5383 931.4932 798.571 937.3603 794.0874 940.0717 790.6201L943.2471 792.1434C943.3885 792.6454 943.547 793.9125 943.5988 793.6688 944.3217 790.2544 944.1422 796.2253 944.227 796.7568L946.6041 809.1505C947.7604 820.5483 936.7869 821.2552 925.8171 828.5043 919.2149 832.8674 918.525 829.4329 910.3215 832.3608 903.115 834.9324 901.8992 838.1242 894.5152 838.7898Z" fill="#6bb63f" fill-rule="evenodd"/>
<path transform="matrix(1,0,0,-1,0,907.0866)" d="M1010.7099 655.4951 990.275 653.0978C1000.1265 657.0533 1004.2829 654.5974 1011.0986 659.0795 1007.6559 668.7757 1002.9665 663.0996 993.0529 671.6293L985.1006 672.9559C980.8875 658.5761 978.7963 662.5505 972.8323 662.4269 975.3494 654.8406 974.34 658.427 977.5704 652.6735 968.1041 653.9139 967.7631 658.9894 960.0406 662.3841 961.3712 658.6693 962.788 658.8629 965.5438 655.9155 972.0394 648.9666 970.7598 646.3925 969.9474 641.84 969.3638 638.5703 969.2444 640.832 969.6314 636.834L972.2871 627.7229C972.3654 634.5632 974.0713 640.3062 977.3705 646.3531L983.8984 636.4604C989.4342 641.0996 987.2252 641.0415 990.9388 647.9016 993.5042 647.7075 1002.1238 647.549 1004.3966 648.0281 1011.007 649.421 1010.4381 648.6188 1010.7099 655.4951" fill="#ccaf19" fill-rule="evenodd"/>
<path transform="matrix(1,0,0,-1,0,907.0866)" d="M442.2413 143.4291C455.508 137.9171 480.3174 130.7279 489.8548 144.3779 498.4234 156.6405 486.4791 155.6563 476.4064 156.1859 466.0226 156.7315 460.6523 160.1535 448.9492 159.7575 447.0678 153.4122 443.9007 148.8291 442.2413 143.4291" fill="#e9e101" fill-rule="evenodd"/>
<path transform="matrix(1,0,0,-1,0,907.0866)" d="M1077.1016 785.9568C1067.7716 781.9897 1072.8222 786.2845 1066.263 779.154 1062.779 775.3663 1062.4476 774.7002 1056.774 773.1709L1072.4262 773.835C1067.8025 770.1863 1064.1339 768.9609 1059.1849 768.5172 1062.67 760.1142 1056.9883 768.9396 1063.0888 765.0473 1065.1671 763.7213 1064.6597 764.9229 1066.8589 763.6377L1069.9566 763.5543 1075.8345 756.1247C1077.5282 752.9182 1077.5823 750.119 1077.6524 744.73 1081.8079 748.6152 1079.4144 744.7422 1082.9869 752.0159 1083.5819 753.2277 1083.607 754.8446 1083.6748 755.4348 1085.7356 750.9189 1084.3257 752.4938 1085.2157 750.0796 1086.519 746.5442 1085.5319 748.0423 1087.331 745.5711L1089.489 763.9716 1090.0018 770.7815C1087.1589 771.8352 1090.5042 774.1854 1087.5039 779.7762 1084.9711 784.4947 1085.0803 780.3471 1082.6399 787.2942 1081.5576 790.3763 1081.5126 795.0569 1080.6514 798.8496 1080.2852 792.1959 1081.2107 790.7732 1077.1016 785.9568" fill="#d8e9df" fill-rule="evenodd"/>
<path transform="matrix(1,0,0,-1,0,907.0866)" d="M438.4664 149.2209C447.2252 165.2357 434.8431 168.9936 437.9899 181.9026 438.9367 185.7872 439.9194 185.0879 441.0751 188.9558 442.0103 192.0861 441.5763 193.9042 442.8264 198.144 445.0286 205.6105 448.1178 205.223 451.2059 211.8243 419.908 208.7685 414.7923 154.597 438.4664 149.2209" fill="#fdfdfd" fill-rule="evenodd"/>
<path transform="matrix(1,0,0,-1,0,907.0866)" d="M989.6179 599.2055C993.8285 598.5938 999.6452 598.3784 1004.2313 598.6539 1009.8706 598.9927 1012.8798 601.4911 1017.1746 597.5524L1024.8267 606.2624 1025.0325 628.7783C1012.29 630.8717 1008.0218 626.2869 1002.5592 619.88 999.288 616.0428 997.8032 614.685 994.7636 611.659 989.6474 606.5654 991.1412 607.7282 989.6179 599.2055" fill="#d38701" fill-rule="evenodd"/>
<path transform="matrix(1,0,0,-1,0,907.0866)" d="M989.6179 599.2055C986.9859 593.1082 1020.9708 567.1276 1023.9871 565.5353L1024.8267 606.2624 1017.1746 597.5524C1012.8798 601.4911 1009.8706 598.9927 1004.2313 598.6539 999.6452 598.3784 993.8285 598.5938 989.6179 599.2055" fill="#ccaf19" fill-rule="evenodd"/>
<path transform="matrix(1,0,0,-1,0,907.0866)" d="M700.6878 149.938C711.7574 148.8396 704.4174 149.6954 712.7294 154.9916 718.0631 158.3904 721.5494 157.3642 727.4186 159.5024 726.385 168.7311 718.5745 165.1725 697.3614 168.6906 694.2677 173.4695 696.1229 172.7427 693.6877 178.1266L683.3857 172.2203C680.6117 156.1133 686.1008 151.3857 700.6878 149.938" fill="#fdfdfd" fill-rule="evenodd"/>
<path transform="matrix(1,0,0,-1,0,907.0866)" d="M763.0002 160.0892C763.3791 170.8384 766.1704 169.1181 767.7711 178.6147L772.2476 178.3704C767.5319 185.4201 754.6623 186.035 745.9571 182.5469 736.8001 178.878 734.2282 172.4261 734.5528 160.5849Z" fill="#e9e101" fill-rule="evenodd"/>
<path transform="matrix(1,0,0,-1,0,907.0866)" d="M943.2471 792.1434 940.0717 790.6201C937.3603 794.0874 931.4932 798.571 929.2419 801.5383 925.9753 805.8433 927.3101 804.7706 926.2463 809.0629 924.6492 815.5114 925.95 814.161 921.3744 818.4555L922.9564 806.881C922.3841 811.4511 911.6331 818.871 906.9557 823.5581 907.9118 816.9987 907.6986 819.3946 910.4207 814.9394 912.1878 812.0469 912.6496 809.8407 915.048 806.9975 918.2871 803.1572 923.9947 801.0113 929.4574 791.1193 922.9442 792.3739 922.2242 793.7334 917.4498 791.5116 923.6871 788.9434 932.9822 789.3607 937.5279 786.8401 942.681 783.9819 942.9086 777.3435 949.7747 776.4763L938.4236 775.912C934.5807 774.5304 935.8821 774.733 933.8023 773.0277 947.3284 771.3431 952.6056 771.8366 965.8811 768.6371L961.3168 775.1154C959.2943 776.9134 958.8192 776.5058 955.4139 779.682 951.374 783.4504 949.8447 786.2587 948.0331 792.5859L946.9035 785.8723C942.6331 790.5546 944.8342 785.6025 943.2471 792.1434" fill="#2c460a" fill-rule="evenodd"/>
<path transform="matrix(1,0,0,-1,0,907.0866)" d="M949.1902 477.0904C958.3787 480.7976 969.5404 477.248 977.629 482.4434 966.6536 489.2165 940.2129 487.8558 929.4843 482.9814 935.1326 466.7445 966.5558 465.7062 984.1051 466.3865 982.1761 468.1709 982.7663 468.3878 979.0118 469.8281 978.438 470.0483 975.6292 470.5529 974.4568 470.732 970.791 471.2919 968.9 471.2139 964.9755 472.0232 959.1259 473.2294 952.9262 474.7354 949.1902 477.0904" fill="#4d9942" fill-rule="evenodd"/>
<path transform="matrix(1,0,0,-1,0,907.0866)" d="M713.3454 147.0132C717.4026 139.5507 719.6134 142.1955 728.585 144.4212 759.2202 152.0223 777.2434 145.766 783.8473 146.2541 779.1163 161.4217 740.0642 156.562 727.7615 154.057 719.7333 152.4229 716.6866 153.1814 713.3454 147.0132" fill="#6bb63f" fill-rule="evenodd"/>
<path transform="matrix(1,0,0,-1,0,907.0866)" d="M437.0406 141.662C432.0391 144.9094 430.2088 148.4274 424.639 150.5163 422.3934 136.8459 441.7807 130.0411 453.2981 127.4363 460.4017 125.8302 470.2779 124.9027 477.8178 125.8362 491.2089 127.4941 491.6075 131.6282 492.7853 136.9335 477.7764 133.4205 470.3332 129.2658 452.6042 134.21 447.0778 135.7515 441.4595 138.7922 437.0406 141.662" fill="#6bb63f" fill-rule="evenodd"/>
<path transform="matrix(1,0,0,-1,0,907.0866)" d="M465.7459 104.4992C453.1501 107.7877 429.2768 112.807 425.3607 97.8163 433.2212 95.688 443.1662 98.2446 453.1082 97.9092 462.7735 97.5841 470.1586 93.7752 476.2125 96.7516 474.1081 103.0221 472.4853 102.7397 465.7459 104.4992" fill="#6bb63f" fill-rule="evenodd"/>
<path transform="matrix(1,0,0,-1,0,907.0866)" d="M1057.4028 482.4266C1046.29 488.9908 1029.757 485.6811 1016.3993 484.0829L1039.254 477.0904C1032.3969 470.4143 1019.6583 472.8906 1011.3245 468.1692 1024.2527 463.1567 1052.5813 472.2948 1057.4028 482.4266" fill="#2c460a" fill-rule="evenodd"/>
<path transform="matrix(1,0,0,-1,0,907.0866)" d="M752.83 229.947C759.0852 241.668 757.787 276.0812 735.139 274.0958 738.2792 265.646 741.4875 263.4602 745.3953 254.0906 748.5897 246.4322 748.7271 236.0242 752.83 229.947" fill="#d8e9df" fill-rule="evenodd"/>
<path transform="matrix(1,0,0,-1,0,907.0866)" d="M465.4621 764.6031C475.0877 767.6459 470.4951 768.0572 476.2789 774.2364 480.5005 767.1447 479.5951 767.1719 484.9965 762.5631 479.5472 756.8388 478.5599 759.9033 474.2028 751.9635ZM458.3801 764.3469 460.131 762.3011C467.8934 756.2832 453.3902 767.0633 463.3466 760.1992 474.0829 752.7969 467.9921 748.0933 472.7103 741.4194 482.6798 751.0961 473.3592 756.553 494.2162 760.5173 491.9321 764.1839 495.5939 761.3133 489.424 765.186 486.2103 767.2028 485.8149 766.3025 483.0766 769.3271 479.416 773.3707 479.2754 779.4145 478.8536 784.7269 470.9007 779.9587 475.4874 778.1896 470.0373 772.3267 467.0575 769.1219 462.5714 767.751 458.3801 764.3469" fill="#2c460a" fill-rule="evenodd"/>
<path transform="matrix(1,0,0,-1,0,907.0866)" d="M496.2214 187.9798C504.6993 187.7323 510.0154 195.3057 514.3229 201.8526 520.9095 211.8637 519.0681 219.748 515.2484 230.6384 511.1141 224.358 509.9326 217.0568 506.8616 208.7592 503.3738 199.3377 497.7666 197.9447 496.2214 187.9798" fill="#d8e9df" fill-rule="evenodd"/>
<path transform="matrix(1,0,0,-1,0,907.0866)" d="M452.9472 110.9001C461.0228 109.9947 468.2611 107.0802 476.6905 107.0736 474.5835 112.9844 473.7728 113.7475 466.5172 116.0189 457.7298 118.7702 446.1123 119.5764 436.902 118.6659 424.3825 117.4289 427.1848 114.9574 426.0475 112.5207 432.504 109.0828 442.8539 112.032 452.9472 110.9001" fill="#6bb63f" fill-rule="evenodd"/>
<path transform="matrix(1,0,0,-1,0,907.0866)" d="M768.4277 114.304C775.9451 112.864 780.0701 123.7499 796.7727 127.6877L808.5569 130.9555C800.263 143.2301 776.2218 129.0002 771.4723 124.7564 763.8925 117.9833 768.3639 114.4848 768.4277 114.304" fill="#6bb63f" fill-rule="evenodd"/>
<path transform="matrix(1,0,0,-1,0,907.0866)" d="M643.0697 815.3172 651.1008 807.1679C646.0458 803.7782 647.4436 805.0416 643.9938 800.0419L636.4114 807.1679ZM641.281 821.7357C638.5297 811.9378 635.7249 810.4133 628.3695 807.2118 632.6138 802.0097 633.2434 804.1819 637.5368 800.7301 644.0202 795.5184 638.0952 796.2576 643.7931 790.0767 645.0806 792.7053 647.2984 798.3238 649.0874 800.3775 651.5963 803.2595 651.1861 802.2521 654.2056 803.6232 654.6906 803.8431 656.2443 804.2992 656.7228 804.5501 659.3411 805.9221 659.0968 806.0168 660.3633 807.1679 651.6975 814.47 649.4822 810.1964 644.3838 821.9704Z" fill="#2c460a" fill-rule="evenodd"/>
<path transform="matrix(1,0,0,-1,0,907.0866)" d="M753.4536 119.1345C761.7926 119.2088 764.4067 125.3801 768.9991 129.0407 774.7622 133.6351 780.4327 134.5609 786.5631 137.7694 784.1441 139.739 790.2363 139.2216 781.3463 140.0516 778.2012 140.345 749.5597 134.3066 753.4536 119.1345" fill="#6bb63f" fill-rule="evenodd"/>
<path transform="matrix(1,0,0,-1,0,907.0866)" d="M1066.5139 792.8853 1066.3231 786.2882C1063.7459 784.1381 1061.2023 781.35 1058.4496 779.8093 1056.5631 778.754 1055.3792 778.6463 1053.5877 777.5668 1050.5435 775.7325 1052.5394 776.9327 1050.8757 775.0522 1053.0663 772.9115 1048.4539 772.698 1056.774 773.1709 1062.4476 774.7002 1062.779 775.3663 1066.263 779.154 1072.8222 786.2845 1067.7716 781.9897 1077.1016 785.9568L1078.2034 800.7973C1070.2706 796.502 1072.6821 794.973 1066.5139 792.8853" fill="#000002" fill-rule="evenodd"/>
<path transform="matrix(1,0,0,-1,0,907.0866)" d="M371.0109 661.4994C368.2661 666.546 366.664 665.5708 372.7953 670.9813 378.8442 668.5639 379.9902 670.6026 377.4932 662.6475 374.9831 661.362 381.6955 657.9051 371.0109 661.4994ZM362.4888 660.8631C366.2946 658.734 368.206 659.8613 372.7613 657.1437 377.1624 654.5186 374.8555 654.078 379.6608 650.7921 380.5243 662.0678 377.2352 662.7203 386.0444 668.6674 381.2054 673.5067 387.4516 669.3599 381.7647 671.8538L367.3233 679.5814C368.5246 669.685 365.309 666.2673 362.4888 660.8631" fill="#2c460a" fill-rule="evenodd"/>
<path transform="matrix(1,0,0,-1,0,907.0866)" d="M490.0071 125.3157 483.8272 123.0925C482.3342 112.9612 484.0214 111.3715 478.7833 104.1922 483.5687 97.2295 480.8245 97.0903 478.2433 91.8295L485.9065 88.7434Z" fill="#c8db84" fill-rule="evenodd"/>
<path transform="matrix(1,0,0,-1,0,907.0866)" d="M741.331 124.7372C750.3296 125.5652 746.8747 131.7039 762.3383 139.3911L769.2746 143.4977C756.4544 143.6757 733.3013 137.4191 741.331 124.7372" fill="#6bb63f" fill-rule="evenodd"/>
<path transform="matrix(1,0,0,-1,0,907.0866)" d="M465.4621 764.6031 474.2028 751.9635C478.5599 759.9033 479.5472 756.8388 484.9965 762.5631 479.5951 767.1719 480.5005 767.1447 476.2789 774.2364 470.4951 768.0572 475.0877 767.6459 465.4621 764.6031" fill="#e9e101" fill-rule="evenodd"/>
<path transform="matrix(1,0,0,-1,0,907.0866)" d="M493.8483 159.5024C500.233 152.0963 498.8336 153.2245 494.7199 142.3406 503.5079 146.1779 508.4603 154.5188 507.562 167.8691 502.458 167.3887 504.5306 167.4969 500.0409 164.3729Z" fill="#d8e9df" fill-rule="evenodd"/>
<path transform="matrix(1,0,0,-1,0,907.0866)" d="M1024.029 505.4264C1025.7236 506.5466 1027.1447 502.719 1028.8899 515.4409 1029.846 522.4062 1030.3937 522.3668 1027.5973 527.5114 1020.8157 526.5802 1021.0878 526.9581 1020.9526 518.1746 1020.8293 510.175 1020.2845 509.6035 1024.029 505.4264" fill="#d8e9df" fill-rule="evenodd"/>
<path transform="matrix(1,0,0,-1,0,907.0866)" d="M718.9948 758.9945C720.2384 752.7889 720.3557 753.3496 724.2829 750.4087 736.3811 752.1273 734.9499 762.0562 726.0673 765.2149 721.5579 763.825 721.2662 763.4923 718.9948 758.9945" fill="#000002" fill-rule="evenodd"/>
<path transform="matrix(1,0,0,-1,0,907.0866)" d="M763.0002 160.0892C770.781 159.7275 770.9301 158.7489 772.9138 166.3696 774.2497 171.502 774.1534 174.1056 772.2476 178.3704L767.7711 178.6147C766.1704 169.1181 763.3791 170.8384 763.0002 160.0892" fill="#d8e9df" fill-rule="evenodd"/>
<path transform="matrix(1,0,0,-1,0,907.0866)" d="M937.9259 562.7324 943.74 554.832C949.2148 558.6489 946.0159 556.863 949.625 562.7324L944.5079 575.1048C941.4541 570.4418 939.3148 566.3945 937.9259 562.7324" fill="#d8e9df" fill-rule="evenodd"/>
<path transform="matrix(1,0,0,-1,0,907.0866)" d="M636.4114 807.1679 643.9938 800.0419C647.4436 805.0416 646.0458 803.7782 651.1008 807.1679L643.0697 815.3172Z" fill="#e9e101" fill-rule="evenodd"/>
<path transform="matrix(1,0,0,-1,0,907.0866)" d="M371.0109 661.4994C381.6955 657.9051 374.9831 661.362 377.4932 662.6475 379.9902 670.6026 378.8442 668.5639 372.7953 670.9813 366.664 665.5708 368.2661 666.546 371.0109 661.4994" fill="#ccaf19" fill-rule="evenodd"/>
<path transform="matrix(1,0,0,-1,0,907.0866)" d="M730.7385 178.5915C722.2654 179.697 721.5367 178.562 719.5031 171.8578L729.1346 170.4966Z" fill="#ccaf19" fill-rule="evenodd"/>
<path transform="matrix(1,0,0,-1,0,907.0866)" d="M521.4163 625.4722C525.7409 622.0726 521.9827 622.6603 529.4058 623.7374L529.1323 632.3851 522.8359 631.9803Z" fill="#000002" fill-rule="evenodd"/>
<path transform="matrix(1,0,0,-1,0,907.0866)" d="M975.2083 695.3448C975.9603 700.3023 975.2199 700.6986 972.8728 704.0064 970.5852 703.0208 965.0319 702.3787 967.5831 697.4668 969.696 693.398 971.0637 695.0361 975.2083 695.3448" fill="#d8e9df" fill-rule="evenodd"/>
<path transform="matrix(1,0,0,-1,0,907.0866)" d="M502.124 603.8824 502.681 598.5422 509.4031 598.7322C510.5608 606.0025 511.1161 602.3364 507.9129 606.3151L503.6632 606.4517Z" fill="#000002" fill-rule="evenodd"/>
<path transform="matrix(1,0,0,-1,0,907.0866)" d="M763.5353 616.3186C765.1514 621.5142 764.5374 620.3667 761.7509 623.5523 758.8213 622.4352 757.171 622.9789 757.0454 619.6232 756.7557 611.8855 760.8433 616.0961 763.5353 616.3186" fill="#2c460a" fill-rule="evenodd"/>
<path transform="matrix(1,0,0,-1,0,907.0866)" d="M689.9587 756.756C707.6466 758.177 689.5945 774.3325 689.9587 756.756" fill="#000002" fill-rule="evenodd"/>
<path transform="matrix(1,0,0,-1,0,907.0866)" d="M772.2244 596.283C788.7458 597.2049 771.2892 612.8246 772.2244 596.283" fill="#000002" fill-rule="evenodd"/>
<path transform="matrix(1,0,0,-1,0,907.0866)" d="M936.0258 690.7853C936.0147 691.4418 935.5912 691.5784 935.4124 691.9931 928.8859 692.7528 926.0912 686.0767 936.0638 686.334Z" fill="#d8e9df" fill-rule="evenodd"/>
<path transform="matrix(1,0,0,-1,0,907.0866)" d="M527.0808 582.3584C533.236 576.743 531.5471 579.6147 533.162 584.1428 531.8481 585.1318 535.4753 587.1702 529.8375 585.754 524.0755 584.3066 528.9094 584.5808 527.0808 582.3584" fill="#000002" fill-rule="evenodd"/>
<path transform="matrix(1,0,0,-1,0,907.0866)" d="M760.1669 577.006C765.0346 573.3635 764.3098 572.5077 766.4593 578.7901 759.3038 584.4351 762.0885 579.1757 760.1669 577.006" fill="#000002" fill-rule="evenodd"/>
<path transform="matrix(1,0,0,-1,0,907.0866)" d="M914.9437 709.2213C922.5527 711.616 921.5019 715.5153 914.2897 715.4022Z" fill="#d8e9df" fill-rule="evenodd"/>
</g>
</svg>
